<svg width="555" height="203" viewBox="0 0 555 203" fill="none" xmlns="http://www.w3.org/2000/svg">
<path d="M48.238 32.8988H0V193.691H48.238V32.8988ZM32.1583 48.9764V177.61H16.0799V48.9764H33.2308" fill="#FBD10D"/>
<path d="M112.555 41.2435H64.3169V202.034H112.555V41.2435ZM96.4755 57.3219V185.956H80.3968V57.3219H97.5477" fill="#FBD10D"/>
<path d="M80.3957 0.742188H32.1577V161.533H80.3957V0.742188ZM64.3158 16.8216V145.453H48.2371V16.8216H65.3885" fill="#FBD10D"/>
<path d="M144.713 8.78113H96.4746V169.573H144.713V8.78113ZM128.633 24.8603V153.494H112.554V24.8603H129.705" fill="#FBD10D"/>
<path d="M201.474 90.0902C198.158 90.0902 195.101 89.5707 192.305 88.5319C189.548 87.4532 187.131 85.9351 185.053 83.9771C183.015 82.0195 181.417 79.7221 180.259 77.0852C179.14 74.4482 178.581 71.5516 178.581 68.3953C178.581 65.2388 179.14 62.3422 180.259 59.7052C181.417 57.0683 183.035 54.7709 185.113 52.8133C187.191 50.8556 189.628 49.3573 192.424 48.3185C195.221 47.2398 198.298 46.7002 201.654 46.7002C205.37 46.7002 208.706 47.3196 211.662 48.5583C214.659 49.7967 217.176 51.5946 219.214 53.9519L212.981 59.7052C211.463 58.107 209.804 56.9285 208.007 56.1694C206.209 55.3702 204.251 54.9709 202.133 54.9709C200.096 54.9709 198.238 55.2905 196.56 55.9296C194.882 56.5688 193.423 57.4879 192.185 58.6865C190.986 59.8851 190.047 61.3034 189.368 62.9415C188.729 64.5796 188.409 66.3975 188.409 68.3953C188.409 70.353 188.729 72.1509 189.368 73.7889C190.047 75.427 190.986 76.8654 192.185 78.1041C193.423 79.3027 194.862 80.2216 196.5 80.8608C198.178 81.5002 200.016 81.8198 202.013 81.8198C203.931 81.8198 205.789 81.52 207.587 80.9207C209.425 80.2816 211.203 79.2227 212.921 77.7444L218.435 84.7563C216.157 86.4744 213.5 87.7929 210.464 88.7118C207.467 89.6306 204.471 90.0902 201.474 90.0902ZM209.565 83.4978V67.7361H218.435V84.7563L209.565 83.4978ZM221.94 89.371L240.638 47.4194H250.227L268.985 89.371H258.797L243.455 52.3339H247.29L231.888 89.371H221.94ZM231.289 80.3814L233.866 73.0098H255.441L258.078 80.3814H231.289ZM273.338 89.371V47.4194H291.497C295.253 47.4194 298.488 48.0388 301.207 49.2772C303.923 50.4761 306.019 52.214 307.499 54.4912C308.977 56.7687 309.715 59.4855 309.715 62.642C309.715 65.7584 308.977 68.4553 307.499 70.7325C306.019 72.9699 303.923 74.688 301.207 75.8866C298.488 77.0852 295.253 77.6845 291.497 77.6845H278.731L283.046 73.4295V89.371H273.338ZM300.008 89.371L289.518 74.1487H299.888L310.495 89.371H300.008ZM283.046 74.5081L278.731 69.9534H290.957C293.955 69.9534 296.191 69.3142 297.669 68.0356C299.147 66.7171 299.888 64.9192 299.888 62.642C299.888 60.3246 299.147 58.5267 297.669 57.2481C296.191 55.9695 293.955 55.3303 290.957 55.3303H278.731L283.046 50.7156V74.5081ZM311.894 89.371L330.593 47.4194H340.183L358.941 89.371H348.751L333.41 52.3339H337.245L321.842 89.371H311.894ZM321.242 80.3814L323.82 73.0098H345.396L348.032 80.3814H321.242ZM382.965 90.0902C379.646 90.0902 376.591 89.5707 373.794 88.5319C371.036 87.4532 368.62 85.9351 366.542 83.9771C364.504 82.0195 362.906 79.7221 361.748 77.0852C360.63 74.4482 360.07 71.5516 360.07 68.3953C360.07 65.2388 360.63 62.3422 361.748 59.7052C362.906 57.0683 364.524 54.7709 366.602 52.8133C368.68 50.8556 371.117 49.3573 373.914 48.3185C376.711 47.2398 379.787 46.7002 383.144 46.7002C386.859 46.7002 390.196 47.3196 393.152 48.5583C396.149 49.7967 398.665 51.5946 400.703 53.9519L394.471 59.7052C392.951 58.107 391.293 56.9285 389.497 56.1694C387.698 55.3702 385.741 54.9709 383.624 54.9709C381.586 54.9709 379.727 55.2905 378.048 55.9296C376.372 56.5688 374.912 57.4879 373.674 58.6865C372.475 59.8851 371.537 61.3034 370.859 62.9415C370.218 64.5796 369.9 66.3975 369.9 68.3953C369.9 70.353 370.218 72.1509 370.859 73.7889C371.537 75.427 372.475 76.8654 373.674 78.1041C374.912 79.3027 376.351 80.2216 377.988 80.8608C379.667 81.5002 381.505 81.8198 383.504 81.8198C385.42 81.8198 387.279 81.52 389.077 80.9207C390.915 80.2816 392.693 79.2227 394.411 77.7444L399.924 84.7563C397.646 86.4744 394.99 87.7929 391.953 88.7118C388.957 89.6306 385.96 90.0902 382.965 90.0902ZM391.053 83.4978V67.7361H399.924V84.7563L391.053 83.4978ZM417.872 64.32H438.069V71.8712H417.872V64.32ZM418.591 81.58H441.426V89.371H408.943V47.4194H440.647V55.2104H418.591V81.58Z" fill="black"/>
<path d="M199.855 156.823C193.902 156.823 189.247 155.165 185.891 151.849C182.535 148.532 180.857 143.798 180.857 137.645V114.152H190.566V137.285C190.566 141.281 191.385 144.158 193.023 145.915C194.661 147.673 196.959 148.552 199.915 148.552C202.872 148.552 205.169 147.673 206.807 145.915C208.445 144.158 209.264 141.281 209.264 137.285V114.152H218.853V137.645C218.853 143.798 217.175 148.532 213.819 151.849C210.463 155.165 205.808 156.823 199.855 156.823ZM228.447 156.104V114.152H236.478L261.229 144.357H257.334V114.152H266.922V156.104H258.952L234.141 125.899H238.036V156.104H228.447ZM276.848 156.104V114.152H286.556V156.104H276.848ZM308.922 156.104L290.823 114.152H301.313L317.133 151.309H310.96L327.023 114.152H336.671L318.512 156.104H308.922ZM349.102 131.053H369.299V138.604H349.102V131.053ZM349.822 148.313H372.657V156.104H340.174V114.152H371.877V121.943H349.822V148.313ZM380.38 156.104V114.152H398.539C402.295 114.152 405.533 114.771 408.249 116.01C410.965 117.209 413.064 118.947 414.542 121.224C416.02 123.501 416.76 126.218 416.76 129.375C416.76 132.491 416.02 135.188 414.542 137.465C413.064 139.703 410.965 141.421 408.249 142.619C405.533 143.818 402.295 144.417 398.539 144.417H385.774L390.091 140.162V156.104H380.38ZM407.05 156.104L396.563 140.881H406.93L417.537 156.104H407.05ZM390.091 141.241L385.774 136.686H397.999C400.997 136.686 403.234 136.047 404.712 134.768C406.192 133.45 406.93 131.652 406.93 129.375C406.93 127.057 406.192 125.259 404.712 123.981C403.234 122.702 400.997 122.063 397.999 122.063H385.774L390.091 117.448V141.241ZM438.234 156.823C434.88 156.823 431.663 156.383 428.587 155.504C425.511 154.586 423.032 153.407 421.155 151.968L424.45 144.657C426.249 145.936 428.365 146.994 430.803 147.833C433.282 148.632 435.779 149.032 438.294 149.032C440.213 149.032 441.751 148.852 442.911 148.493C444.107 148.093 444.989 147.554 445.546 146.874C446.107 146.195 446.386 145.416 446.386 144.537C446.386 143.418 445.945 142.539 445.067 141.9C444.188 141.221 443.031 140.681 441.592 140.282C440.153 139.843 438.555 139.443 436.798 139.083C435.078 138.684 433.342 138.204 431.582 137.645C429.864 137.086 428.287 136.366 426.848 135.487C425.409 134.608 424.231 133.45 423.313 132.012C422.432 130.573 421.994 128.735 421.994 126.498C421.994 124.101 422.633 121.923 423.913 119.965C425.229 117.968 427.187 116.39 429.786 115.231C432.421 114.032 435.719 113.433 439.673 113.433C442.311 113.433 444.908 113.753 447.465 114.392C450.022 114.991 452.28 115.91 454.237 117.149L451.24 124.52C449.282 123.402 447.324 122.583 445.367 122.063C443.409 121.504 441.49 121.224 439.613 121.224C437.737 121.224 436.199 121.444 435 121.883C433.8 122.323 432.94 122.902 432.421 123.621C431.903 124.3 431.642 125.1 431.642 126.018C431.642 127.097 432.083 127.976 432.961 128.655C433.84 129.295 435 129.814 436.438 130.214C437.875 130.613 439.454 131.013 441.172 131.412C442.929 131.812 444.668 132.271 446.386 132.791C448.143 133.31 449.743 134.009 451.18 134.888C452.618 135.767 453.778 136.926 454.657 138.364C455.575 139.802 456.036 141.62 456.036 143.818C456.036 146.175 455.376 148.333 454.057 150.29C452.738 152.248 450.76 153.826 448.124 155.025C445.526 156.224 442.231 156.823 438.234 156.823ZM462.667 156.104V114.152H472.378V156.104H462.667ZM491.024 156.104V122.063H477.599V114.152H514.156V122.063H500.731V156.104H491.024ZM528.988 156.104V138.964L531.207 144.837L512.748 114.152H523.055L537.199 137.705H531.267L545.471 114.152H554.998L536.54 144.837L538.698 138.964V156.104H528.988Z" fill="black"/>
</svg>
