<?xml version="1.0" encoding="UTF-8"?>
<svg version="1.1" xmlns="http://www.w3.org/2000/svg" width="512" height="512">
<path d="M0 0 C168.96 0 337.92 0 512 0 C512 168.96 512 337.92 512 512 C343.04 512 174.08 512 0 512 C0 343.04 0 174.08 0 0 Z " fill="#FEFEFE" transform="translate(0,0)"/>
<path d="M0 0 C5.67276511 -0.29341888 8.99067246 -0.00559652 14 3 C14 3.66 14 4.32 14 5 C14.81791016 5.14912842 14.81791016 5.14912842 15.65234375 5.30126953 C21.50187335 6.46992555 26.60776409 8.35675094 32 10.875 C32.7425 11.21402344 33.485 11.55304688 34.25 11.90234375 C35.74606173 12.58544138 37.24086528 13.27130152 38.734375 13.95996094 C44.11260711 16.42884766 49.50464742 18.80185897 55 21 C55 141.12 55 261.24 55 385 C43 390 43 390 41 390 C41 390.99 41 391.98 41 393 C39.71839144 393.66556966 38.42377707 394.30608762 37.125 394.9375 C36.40570313 395.29714844 35.68640625 395.65679687 34.9453125 396.02734375 C32 397 32 397 22 398 C21.67 281.18 21.34 164.36 21 44 C10.79784946 39.74910394 4.34958055 37.24011185 -6 40 C-6 40.66 -6 41.32 -6 42 C-7.32 42.33 -8.64 42.66 -10 43 C-10 135.4 -10 227.8 -10 323 C-13.3 322.67 -16.6 322.34 -20 322 C-20.33 321.34 -20.66 320.68 -21 320 C-26.95160095 317.36756112 -32.96137516 316.07404015 -39.33984375 314.84375 C-40.21769531 314.5653125 -41.09554687 314.286875 -42 314 C-42.93088856 311.20733432 -43.12446875 309.54709787 -43.12304783 306.66404438 C-43.12503888 305.77328876 -43.12702993 304.88253314 -43.12908131 303.96478492 C-43.12616847 302.98522258 -43.12325563 302.00566023 -43.12025452 300.99641418 C-43.12110894 299.95662861 -43.12196337 298.91684304 -43.12284368 297.84554881 C-43.12449709 294.3446878 -43.11897934 290.84387421 -43.11352539 287.34301758 C-43.11324346 284.84014385 -43.11340136 282.33727004 -43.1139679 279.83439636 C-43.11419597 274.43727313 -43.11135073 269.04016478 -43.10573006 263.64304543 C-43.09760875 255.8396839 -43.09499919 248.03632822 -43.09374207 240.23296293 C-43.09155254 227.57302992 -43.08489514 214.91310334 -43.07543945 202.25317383 C-43.06626277 189.95402051 -43.05918319 177.65486894 -43.05493164 165.35571289 C-43.05466892 164.59780418 -43.05440619 163.83989548 -43.05413551 163.05901984 C-43.05283049 159.25687766 -43.05156678 155.45473546 -43.05032361 151.65259326 C-43.03995409 120.10172416 -43.02226422 88.55086305 -43 57 C-43.90363281 57.433125 -44.80726563 57.86625 -45.73828125 58.3125 C-46.91777344 58.869375 -48.09726563 59.42625 -49.3125 60 C-51.07013672 60.8353125 -51.07013672 60.8353125 -52.86328125 61.6875 C-56 63 -56 63 -59 63 C-59 63.66 -59 64.32 -59 65 C-61.01822917 65.45572917 -63.03645833 65.91145833 -65.0546875 66.3671875 C-67.20719964 66.90474428 -67.20719964 66.90474428 -69 69 C-71.625 69.125 -71.625 69.125 -74 69 C-74 69.66 -74 70.32 -74 71 C-74.66 71 -75.32 71 -76 71 C-76 145.58 -76 220.16 -76 297 C-83.89924433 295.87153652 -83.89924433 295.87153652 -88.0625 294.125 C-89.34640625 293.59132813 -89.34640625 293.59132813 -90.65625 293.046875 C-92.49163464 292.22706986 -94.28683284 291.31719074 -96.0625 290.375 C-99.86398385 288.46584231 -99.86398385 288.46584231 -108 287 C-108 208.13 -108 129.26 -108 48 C-103.44740396 45.39851655 -100.07092692 43.59505583 -95.32421875 41.92578125 C-91.25893908 40.30650179 -87.41799459 38.22505794 -83.5390625 36.20703125 C-81 35 -81 35 -79 35 C-79 34.34 -79 33.68 -79 33 C-75.38026598 31.68373308 -72.90432869 31 -69 31 C-69 30.34 -69 29.68 -69 29 C-68.43152344 28.81824219 -67.86304688 28.63648437 -67.27734375 28.44921875 C-63.59291089 27.24977901 -60.04301674 26.0192039 -56.5 24.4375 C-53.66275847 23.27220437 -51.40254483 22.62679902 -48.4375 22.0625 C-44.21976749 21.20755422 -41.53711424 19.48350574 -38 17 C-36.11441455 16.25226784 -34.22569268 15.5099031 -32.3125 14.8359375 C-26.1787156 12.61865733 -20.1914425 9.96886139 -14.22265625 7.34375 C-13.27737061 6.93056519 -13.27737061 6.93056519 -12.31298828 6.5090332 C-10.51789839 5.72271747 -8.72567425 4.9298692 -6.93359375 4.13671875 C-4 3 -4 3 -1 3 C-0.67 2.01 -0.34 1.02 0 0 Z " fill="#81769E" transform="translate(250,70)"/>
<path d="M0 0 C3.3 0.33 6.6 0.66 10 1 C10 1.66 10 2.32 10 3 C11.07314453 3.18369141 11.07314453 3.18369141 12.16796875 3.37109375 C15.05112713 4.01135375 17.58592473 4.93551556 20.3125 6.0625 C21.19550781 6.42472656 22.07851563 6.78695312 22.98828125 7.16015625 C23.98408203 7.57587891 23.98408203 7.57587891 25 8 C25 8.66 25 9.32 25 10 C25.721875 10.12375 26.44375 10.2475 27.1875 10.375 C30.81650889 11.18144642 34.038625 12.5809391 37.4375 14.0625 C40.27714594 15.10139486 43.01093625 15.58292134 46 16 C46 16.66 46 17.32 46 18 C47.051875 18.144375 48.10375 18.28875 49.1875 18.4375 C52.15460549 18.87526966 55.06794366 19.37804866 58 20 C58 20.66 58 21.32 58 22 C58.556875 22.12375 59.11375 22.2475 59.6875 22.375 C62.2421041 23.06543354 64.59460135 23.89481684 67 25 C67.495 25.99 67.495 25.99 68 27 C73.23622985 29.20472836 78.46724886 30.75332796 84 32 C84.82628906 32.18691406 85.65257812 32.37382812 86.50390625 32.56640625 C88.66792918 33.05068681 90.8331595 33.52851156 93 34 C93 34.66 93 35.32 93 36 C94.65 36 96.3 36 98 36 C98 72.63 98 109.26 98 147 C96.02 146.67 94.04 146.34 92 146 C92 145.34 92 144.68 92 144 C88.04 143.67 84.08 143.34 80 143 C80 142.34 80 141.68 80 141 C78.35 141 76.7 141 75 141 C75 140.34 75 139.68 75 139 C73.9171875 138.814375 73.9171875 138.814375 72.8125 138.625 C70 138 70 138 65 136 C65 111.58 65 87.16 65 62 C63.68 62 62.36 62 61 62 C61 61.34 61 60.68 61 60 C59.68 60 58.36 60 57 60 C57 59.34 57 58.68 57 58 C53.7 57.34 50.4 56.68 47 56 C47 55.01 47 54.02 47 53 C45.7625 52.814375 45.7625 52.814375 44.5 52.625 C40.62930019 51.93380361 36.8145319 50.95363297 33 50 C33 85.97 33 121.94 33 159 C36.8051181 160.52204724 40.61482118 162.02315824 44.4375 163.5 C45.52933594 163.9228125 46.62117188 164.345625 47.74609375 164.78125 C50.81001089 165.92883961 53.88945024 166.98660822 57 168 C57 168.66 57 169.32 57 170 C59.97 170.66 62.94 171.32 66 172 C66 172.66 66 173.32 66 174 C68.89568747 174.64649305 71.79154279 175.29221732 74.6875 175.9375 C75.50412109 176.11990234 76.32074219 176.30230469 77.16210938 176.49023438 C81.10082483 177.36727628 85.03791195 178.23340455 89 179 C89 179.66 89 180.32 89 181 C90.65 181 92.3 181 94 181 C94 181.99 94 182.98 94 184 C95.65 184 97.3 184 99 184 C99 220.96 99 257.92 99 296 C93.80057959 298.31085352 89.27359706 300.28301491 84 302 C83.319375 302.37125 82.63875 302.7425 81.9375 303.125 C79.52612646 304.2140074 77.61567161 304.14531509 75 304 C75 304.66 75 305.32 75 306 C70.63763416 307.90853506 66.25894482 309.66515537 61.7890625 311.3046875 C59.88074022 312.01081557 59.88074022 312.01081557 57.6875 313.1875 C56 314 56 314 53 314 C53 314.66 53 315.32 53 316 C51.92621094 316.39832031 50.85242188 316.79664063 49.74609375 317.20703125 C48.30986242 317.74209782 46.87366638 318.27725914 45.4375 318.8125 C44.38079102 319.20405273 44.38079102 319.20405273 43.30273438 319.60351562 C41.19674384 320.38962269 39.0978256 321.19238407 37 322 C36.32211426 322.25185059 35.64422852 322.50370117 34.94580078 322.76318359 C33.2611074 323.42319764 31.62457124 324.20339557 30 325 C29.67 325.99 29.34 326.98 29 328 C26.31076418 328.8285913 23.74360939 329.48973618 21 330.0625 C18.30102717 330.63985759 15.66754896 331.27753882 13 332 C12.67 332.66 12.34 333.32 12 334 C11.01 334 10.02 334 9 334 C9 334.66 9 335.32 9 336 C7.02253397 336.73080266 5.01927511 337.39421747 3 338 C2.34 337.67 1.68 337.34 1 337 C1 298.39 1 259.78 1 220 C11.04831752 222.23295945 11.04831752 222.23295945 15.25 224.0625 C18.49809463 225.46894621 21.50711141 226.39927271 25 227 C25 227.66 25 228.32 25 229 C26.65 229 28.3 229 30 229 C30 229.66 30 230.32 30 231 C31.32 231.33 32.64 231.66 34 232 C34 249.49 34 266.98 34 285 C40.35714172 282.49337334 40.35714172 282.49337334 43.375 280.5 C47.06870291 278.38931262 50.95788837 277.2764563 55 276 C57.97 275.01 60.94 274.02 64 273 C64 251.88 64 230.76 64 209 C55.7339526 204.72273734 55.7339526 204.72273734 47.375 202.1875 C46.35148437 201.95417969 45.32796875 201.72085938 44.2734375 201.48046875 C43.52320313 201.32191406 42.77296875 201.16335938 42 201 C42 200.34 42 199.68 42 199 C41.2575 199.0825 40.515 199.165 39.75 199.25 C37 199 37 199 35.1875 197.125 C32.69712478 194.70577836 30.79322927 194.3232865 27.4609375 193.6171875 C19.47902587 191.61537474 5.92147661 187.92147661 0 182 C-0.09763101 179.64712707 -0.12997445 177.32365314 -0.12025452 174.97032166 C-0.12110894 174.2262607 -0.12196337 173.48219975 -0.12284368 172.71559149 C-0.12450071 170.2035182 -0.1189735 167.69151058 -0.11352539 165.17944336 C-0.11324354 163.38621523 -0.11340121 161.59298698 -0.1139679 159.79975891 C-0.11425596 154.91566635 -0.10835786 150.03159813 -0.10139394 145.14751124 C-0.09516181 140.0492342 -0.09455671 134.95095666 -0.09336853 129.85267639 C-0.0902548 120.19122841 -0.08204084 110.52979168 -0.07201904 100.86834866 C-0.06085921 89.87216377 -0.05534778 78.87597837 -0.05032361 67.87978923 C-0.03985826 45.25318657 -0.02225801 22.62659392 0 0 Z " fill="#C3BADA" transform="translate(337,104)"/>
<path d="M0 0 C2.31 0 4.62 0 7 0 C7.33 81.51 7.66 163.02 8 247 C18.30901579 251.29542325 28.30043756 255.44853383 39.1015625 258.19140625 C39.72804688 258.45824219 40.35453125 258.72507812 41 259 C41.495 260.485 41.495 260.485 42 262 C42.639375 262.0825 43.27875 262.165 43.9375 262.25 C46.61381709 262.90542459 48.65338117 263.7124073 51.125 264.875 C55.48619295 266.89122991 59.8605215 268.14615967 64.51953125 269.2890625 C66.87271091 269.96351714 68.85643531 270.83078289 71 272 C71 272.99 71 273.98 71 275 C71.78375 274.9175 72.5675 274.835 73.375 274.75 C77.61639 275.04250966 80.64669151 276.38485431 84.51953125 278.04296875 C87.71900391 279.27741096 90.59619954 279.70401735 94 280 C94 280.66 94 281.32 94 282 C94.72445312 282.11730469 95.44890625 282.23460937 96.1953125 282.35546875 C99.05812008 283.01335629 101.25715127 283.99542034 103.875 285.3125 C109.39043102 287.91453802 114.88549823 289.34113393 120.8359375 290.6171875 C126.87870265 292.62388437 132.39382243 295.981289 138 299 C138 310.55 138 322.1 138 334 C133.59714577 334 131.80043446 333.73734147 128 332 C128 331.34 128 330.68 128 330 C126.700625 330.0928125 126.700625 330.0928125 125.375 330.1875 C121.51199516 329.97288862 119.40175727 328.77174858 116 327 C112.7633037 326.29241674 112.7633037 326.29241674 110 326 C110 325.34 110 324.68 110 324 C108.63875 323.6596875 108.63875 323.6596875 107.25 323.3125 C102.77081001 322.03530125 98.56095991 320.19576853 94.28515625 318.36328125 C89.75536167 316.48349729 85.14288417 314.84529001 80.51953125 313.2109375 C79.68808594 312.81132812 78.85664063 312.41171875 78 312 C77.505 310.515 77.505 310.515 77 309 C75.98808594 309.05800781 74.97617188 309.11601562 73.93359375 309.17578125 C69.62278256 308.98314321 66.96003168 307.98939597 63.0625 306.1875 C61.8338647 305.63293583 60.60470089 305.07954104 59.375 304.52734375 C57.704375 303.77130859 57.704375 303.77130859 56 303 C52.33179825 301.50097525 48.66163565 300.18133718 44.8359375 299.1328125 C40.4775758 297.84571994 36.29129107 296.28083043 32.0625 294.625 C30.92264648 294.18800781 30.92264648 294.18800781 29.75976562 293.7421875 C25.97654809 292.26896189 22.32405874 290.69816122 18.71484375 288.8359375 C15.97418924 287.43115262 13.56833914 286.47205218 10.5 286 C6.577043 285.23963269 3.48425436 283.88661564 -0.02734375 282.015625 C-5.14199341 279.38234002 -10.28180421 277.71477447 -16 277 C-16 276.34 -16 275.68 -16 275 C-20.455 273.515 -20.455 273.515 -25 272 C-25 186.53 -25 101.06 -25 13 C-20.12749715 10.91178449 -15.26322233 8.8984919 -10.33203125 6.96484375 C-8.16339939 6.0676041 -6.0837621 5.07780798 -4 4 C-4 3.34 -4 2.68 -4 2 C-2.68 2 -1.36 2 0 2 C0 1.34 0 0.68 0 0 Z " fill="#441E54" transform="translate(102,132)"/>
<path d="M0 0 C-6.07576417 3.26291039 -11.18378434 4.9551353 -18 7 C-18 92.14 -18 177.28 -18 265 C-18.33 265 -18.66 265 -19 265 C-19.01030746 264.18965302 -19.02061493 263.37930603 -19.03123474 262.54440308 C-19.13087952 254.75414748 -19.23356687 246.9639398 -19.33933926 239.17376518 C-19.39356644 235.17266535 -19.44677803 231.17155844 -19.49731445 227.17041016 C-19.54649653 223.27992019 -19.59880725 219.38948187 -19.65294075 215.49905777 C-19.67269544 214.04459108 -19.69148102 212.59011075 -19.70907402 211.1356163 C-19.81563156 202.39495824 -20.04084919 193.66553833 -20.36570644 184.93009853 C-21.06670359 165.82339836 -21.21782296 146.73118443 -21.2734375 127.61328125 C-21.27608628 126.76236774 -21.27873506 125.91145423 -21.2814641 125.03475547 C-21.30646904 116.98637021 -21.32838451 108.93798396 -21.34119225 100.88956928 C-21.3575614 90.68728879 -21.3912477 80.48538015 -21.44759309 70.28323966 C-21.48619508 63.04528053 -21.50580973 55.80742174 -21.51111281 48.56936234 C-21.51476205 44.26646511 -21.52675058 39.96397261 -21.55921555 35.66118813 C-21.58914602 31.64125318 -21.59566281 27.62197213 -21.58383179 23.60194969 C-21.58361021 22.12766966 -21.59198484 20.65336013 -21.60948563 19.17918396 C-21.63202903 17.1719761 -21.62094354 15.16447352 -21.60800171 13.15718079 C-21.61131186 12.03376439 -21.614622 10.910348 -21.61803246 9.75288868 C-21 7 -21 7 -18.67952919 5.20404339 C-15.42969964 3.74373618 -12.16725664 2.45191492 -8.8125 1.25 C-7.58144531 0.80140625 -6.35039063 0.3528125 -5.08203125 -0.109375 C-2 -1 -2 -1 0 0 Z " fill="#D4C4DA" transform="translate(95,138)"/>
<path d="M0 0 C0.33 0 0.66 0 1 0 C1.19329256 14.79138699 1.35390513 29.58307495 1.5 44.375 C1.51187725 45.57620735 1.5237545 46.7774147 1.53599167 48.01502228 C2.15826618 112.12224337 2.08393062 176.23215535 2.06315851 240.34168255 C2.0624981 242.38085913 2.06185531 244.42003572 2.06121445 246.4592123 C2.05003751 281.639481 2.02955602 316.8197419 2 352 C6.74398475 351.42830311 9.25833579 350.89677229 13 348 C16.25 347.3125 16.25 347.3125 19 347 C19 347.66 19 348.32 19 349 C17.71839144 349.66556966 16.42377707 350.30608762 15.125 350.9375 C14.40570313 351.29714844 13.68640625 351.65679687 12.9453125 352.02734375 C10 353 10 353 0 354 C0 237.18 0 120.36 0 0 Z " fill="#9D97B1" transform="translate(272,114)"/>
<path d="M0 0 C2.475 0.495 2.475 0.495 5 1 C5 82.84 5 164.68 5 249 C6.32 249.33 7.64 249.66 9 250 C9.99 250.33 10.98 250.66 12 251 C12 251.66 12 252.32 12 253 C5.25 251.25 5.25 251.25 3 249 C2.75160301 247.16783178 2.75160301 247.16783178 2.75390434 244.8964138 C2.74992225 244.032033 2.74594015 243.16765219 2.74183738 242.27707803 C2.74766307 241.32183949 2.75348875 240.36660094 2.75949097 239.38241577 C2.75778212 238.37206949 2.75607327 237.36172321 2.75431263 236.32076037 C2.75100152 232.91347658 2.76204808 229.50638694 2.77294922 226.09912109 C2.77351298 223.66535954 2.77319746 221.23159765 2.77206421 218.7978363 C2.77160783 213.54692053 2.77730417 208.29604918 2.78853989 203.04514694 C2.80477442 195.45317088 2.81000079 187.86121888 2.81251587 180.26922734 C2.8168962 167.95258327 2.83021444 155.63596564 2.84912109 143.31933594 C2.86747117 131.35286593 2.88163194 119.3864031 2.89013672 107.41992188 C2.89092489 106.31402818 2.89092489 106.31402818 2.89172898 105.18579321 C2.894339 101.48726892 2.89686643 97.78874458 2.89935279 94.09022021 C2.9200958 63.3934612 2.95547887 32.69673427 3 2 C2.01 2 1.02 2 0 2 C0 1.34 0 0.68 0 0 Z " fill="#C3B3C9" transform="translate(106,130)"/>
<path d="M0 0 C0 80.85 0 161.7 0 245 C-1.32 245.33 -2.64 245.66 -4 246 C-3.67 245.01 -3.34 244.02 -3 243 C-2.90642949 241.63519104 -2.86635105 240.26630851 -2.8613348 238.89830494 C-2.85586036 238.05980025 -2.85038591 237.22129556 -2.84474558 236.35738164 C-2.84376747 235.43618352 -2.84278936 234.51498541 -2.84178162 233.56587219 C-2.83684364 232.5873399 -2.83190566 231.60880762 -2.82681805 230.60062283 C-2.81140528 227.30707388 -2.80307219 224.01354448 -2.79467773 220.7199707 C-2.78510218 218.36487657 -2.7750923 216.00978418 -2.76467896 213.6546936 C-2.73758885 207.24806182 -2.71660153 200.84142264 -2.69667697 194.4347651 C-2.67752282 188.4216673 -2.65289746 182.40859022 -2.62875474 176.39551082 C-2.58107899 164.48430835 -2.53781475 152.5730941 -2.49731445 140.66186523 C-2.45795945 129.09024132 -2.41653321 117.51862788 -2.37231445 105.94702148 C-2.36822804 104.87736583 -2.36822804 104.87736583 -2.36405908 103.78610096 C-2.3503796 100.2087197 -2.33665933 96.6313386 -2.32291877 93.05395758 C-2.20895425 63.36932709 -2.10221816 33.68467332 -2 4 C-3.32 3.67 -4.64 3.34 -6 3 C-3.375 0 -3.375 0 0 0 Z " fill="#371A45" transform="translate(108,133)"/>
<path d="M0 0 C2.64 0 5.28 0 8 0 C8 0.66 8 1.32 8 2 C8.88751953 2.16435547 8.88751953 2.16435547 9.79296875 2.33203125 C14.46430243 3.26934616 17.99077641 4.32718427 22 7 C23.65842177 7.68692026 25.32430751 8.35635653 27 9 C27.12816666 49.68816227 27.25563103 90.37632668 27.38218227 131.06449401 C27.39719858 135.89227987 27.41222058 140.72006572 27.42724609 145.54785156 C27.43023671 146.50878433 27.43322732 147.46971709 27.43630856 148.45976903 C27.48444348 163.92196056 27.53303646 179.38415062 27.58180541 194.84634016 C27.63201442 210.7684162 27.68171571 226.69049376 27.73096704 242.61257279 C27.75857107 251.5319372 27.78639571 260.4513008 27.81480408 269.37066269 C28.04479308 341.64835559 28.04479308 341.64835559 28 376 C26.08959948 376.8680908 24.17139263 377.71901783 22.25 378.5625 C21.18265625 379.03816406 20.1153125 379.51382812 19.015625 380.00390625 C16.01630163 380.9946154 14.86578759 381.16161779 12 380 C13.58199631 379.35089846 15.16565724 378.70585306 16.75 378.0625 C17.63171875 377.70285156 18.5134375 377.34320313 19.421875 376.97265625 C22 376 22 376 26 375 C25.67 254.88 25.34 134.76 25 11 C21.04 9.68 17.08 8.36 13 7 C8 4.375 8 4.375 5.9375 3.1484375 C3.99894881 1.99937691 2.02568134 0.98571101 0 0 Z " fill="#D7D2DF" transform="translate(279,80)"/>
<path d="M0 0 C0.66 0 1.32 0 2 0 C2 75.24 2 150.48 2 228 C0.35 228 -1.3 228 -3 228 C-3 227.34 -3 226.68 -3 226 C-2.01 226 -1.02 226 0 226 C0 151.42 0 76.84 0 0 Z " fill="#CEC9D7" transform="translate(174,141)"/>
<path d="M0 0 C0.33 0 0.66 0 1 0 C1.87210127 52.38985499 2.26517664 104.77729684 2.51740873 157.17343485 C2.56803893 167.66325783 2.62246461 178.1530603 2.67708123 188.64286315 C2.78869739 210.09522287 2.89595196 231.54760232 3 253 C4.98 253.66 6.96 254.32 9 255 C9 255.66 9 256.32 9 257 C9.99 257.33 10.98 257.66 12 258 C11.29875 257.855625 10.5975 257.71125 9.875 257.5625 C6.92443859 256.98521625 3.96729849 256.48304859 1 256 C0.07052287 253.21156862 -0.12447178 251.55747143 -0.12304783 248.67966175 C-0.12503888 247.79238952 -0.12702993 246.9051173 -0.12908131 245.99095803 C-0.12616847 245.01528664 -0.12325563 244.03961525 -0.12025452 243.03437805 C-0.12110894 241.99867603 -0.12196337 240.96297401 -0.12284368 239.89588708 C-0.12449707 236.40884554 -0.11897938 232.9218516 -0.11352539 229.43481445 C-0.11324346 226.94179282 -0.11340136 224.4487711 -0.1139679 221.95574951 C-0.11419597 216.57990718 -0.11135077 211.20407979 -0.10573006 205.82824135 C-0.0976087 198.05564891 -0.09499918 190.28306234 -0.09374207 182.51046612 C-0.09155255 169.9004474 -0.08489517 157.29043514 -0.07543945 144.68041992 C-0.06626275 132.42976921 -0.05918318 120.17912025 -0.05493164 107.9284668 C-0.05466892 107.17354509 -0.05440619 106.41862338 -0.05413551 105.64082525 C-0.05283049 101.85366714 -0.05156678 98.06650901 -0.05032361 94.27935088 C-0.03995412 62.85289588 -0.02226427 31.42644892 0 0 Z " fill="#9089A2" transform="translate(207,128)"/>
<path d="M0 0 C0.66 0.33 1.32 0.66 2 1 C2 93.4 2 185.8 2 281 C-1.3 280.67 -4.6 280.34 -8 280 C-8 279.67 -8 279.34 -8 279 C-5.36 279 -2.72 279 0 279 C0 186.93 0 94.86 0 0 Z " fill="#9A94AD" transform="translate(238,112)"/>
<path d="M0 0 C1.48034764 0.47550561 2.95925021 0.95551216 4.4375 1.4375 C5.26121094 1.70433594 6.08492188 1.97117187 6.93359375 2.24609375 C9 3 9 3 10 4 C10.09762276 5.8817816 10.12371343 7.76728502 10.12304783 9.65159702 C10.12503888 10.88671011 10.12702993 12.12182319 10.12908131 13.39436394 C10.12622772 14.78273065 10.12328211 16.17109716 10.12025452 17.5594635 C10.12069009 19.02050608 10.12156474 20.48154857 10.12284368 21.94259065 C10.12509138 25.97649831 10.12106363 30.01037968 10.11606562 34.04428399 C10.11176522 38.38718361 10.11320725 42.73008164 10.1139679 47.07298279 C10.11449339 54.60368771 10.11134392 62.134384 10.10573006 69.66508675 C10.09761852 80.55334906 10.09500019 91.44160718 10.09374207 102.32987218 C10.091551 119.99343604 10.08488943 137.65699529 10.07543945 155.32055664 C10.06626675 172.48364234 10.05918522 189.6467268 10.05493164 206.80981445 C10.05466892 207.86694816 10.05440619 208.92408188 10.05413551 210.01324994 C10.05283051 215.31634052 10.0515668 220.61943111 10.05032361 225.92252171 C10.03994929 269.948351 10.02232949 313.97417526 10 358 C11.98 357.67 13.96 357.34 16 357 C16 357.66 16 358.32 16 359 C13.69 359 11.38 359 9 359 C9 242.18 9 125.36 9 5 C7.68 4.67 6.36 4.34 5 4 C3.3255761 3.3530635 1.65697379 2.69040574 0 2 C0 1.34 0 0.68 0 0 Z " fill="#DCD8E4" transform="translate(262,110)"/>
<path d="M0 0 C2.31 0.33 4.62 0.66 7 1 C7 1.66 7 2.32 7 3 C8.65 3 10.3 3 12 3 C12 3.99 12 4.98 12 6 C13.65 6 15.3 6 17 6 C17 42.96 17 79.92 17 118 C13.535 118.99 13.535 118.99 10 120 C10.66 118.35 11.32 116.7 12 115 C12.66 115 13.32 115 14 115 C14.33 79.36 14.66 43.72 15 7 C13.35 6.67 11.7 6.34 10 6 C8.2146857 5.35103174 6.44305392 4.66312895 4.6875 3.9375 C3.36298828 3.39416016 3.36298828 3.39416016 2.01171875 2.83984375 C1.34785156 2.56269531 0.68398438 2.28554688 0 2 C0 1.34 0 0.68 0 0 Z " fill="#D5D1E3" transform="translate(419,282)"/>
<path d="M0 0 C2.31 0 4.62 0 7 0 C7 81.51 7 163.02 7 247 C6.67 247 6.34 247 6 247 C6 165.82 6 84.64 6 1 C1.545 2.485 1.545 2.485 -3 4 C-3.33 3.34 -3.66 2.68 -4 2 C-2.68 2 -1.36 2 0 2 C0 1.34 0 0.68 0 0 Z " fill="#6B5277" transform="translate(102,132)"/>
<path d="M0 0 C1.32 0 2.64 0 4 0 C5.37327545 2.74655091 5.15768143 4.98033569 5.19287109 8.05444336 C5.20893402 9.32593735 5.22499695 10.59743134 5.24154663 11.90745544 C5.25303109 13.3015781 5.26364013 14.69570821 5.2734375 16.08984375 C5.27876118 16.79034914 5.28408485 17.49085453 5.28956985 18.21258736 C5.31628795 21.9183251 5.33566952 25.62402927 5.35009766 29.32983398 C5.36676884 33.16146248 5.41156912 36.99223469 5.4624691 40.82353878 C5.49607952 43.76690183 5.5076679 46.71005971 5.51332474 49.65359688 C5.52005152 51.06626516 5.53531088 52.47891926 5.55921555 53.89140129 C5.5907357 55.8660866 5.58791193 57.84123019 5.58349609 59.81616211 C5.59562637 61.50255043 5.59562637 61.50255043 5.60800171 63.2230072 C5 66 5 66 2.58981323 67.83276367 C0.41979245 68.81079833 -1.70725273 69.75012232 -3.953125 70.53515625 C-4.654375 70.78716797 -5.355625 71.03917969 -6.078125 71.29882812 C-7.54117048 71.81326228 -9.00472363 72.32625465 -10.46875 72.83789062 C-14.46286757 73.99934263 -14.46286757 73.99934263 -17 77 C-20.96 77.99 -24.92 78.98 -29 80 C-29 61.85 -29 43.7 -29 25 C-28.67 25 -28.34 25 -28 25 C-28 42.49 -28 59.98 -28 78 C-21.64285828 75.49337334 -21.64285828 75.49337334 -18.625 73.5 C-14.93129709 71.38931262 -11.04211163 70.2764563 -7 69 C-5.44367275 68.48441947 -3.88806344 67.96666892 -2.33300781 67.44726562 C-1.52180481 67.17644165 -0.71060181 66.90561768 0.12518311 66.62658691 C0.74387268 66.41981323 1.36256226 66.21303955 2 66 C2.04628625 57.68999208 2.0818502 49.38003779 2.10362434 41.06993294 C2.11407343 37.21145203 2.128253 33.35305915 2.15087891 29.49462891 C2.1725674 25.77287808 2.18456014 22.05121206 2.18975449 18.32940292 C2.19345745 16.90758809 2.20068819 15.48577803 2.21146011 14.06399918 C2.22592119 12.07672886 2.22681646 10.08937369 2.22705078 8.10205078 C2.23371262 6.40328293 2.23371262 6.40328293 2.24050903 4.67019653 C2.27367062 1.84645576 2.27367062 1.84645576 0 0 Z " fill="#DFDBEB" transform="translate(399,311)"/>
<path d="M0 0 C0.33 0 0.66 0 1 0 C1.33 55.11 1.66 110.22 2 167 C8.6187972 166.20013168 8.6187972 166.20013168 13 163 C16.25 162.3125 16.25 162.3125 19 162 C19 162.66 19 163.32 19 164 C17.71839144 164.66556966 16.42377707 165.30608762 15.125 165.9375 C14.04605469 166.47697266 14.04605469 166.47697266 12.9453125 167.02734375 C10 168 10 168 0 169 C0 113.23 0 57.46 0 0 Z " fill="#BDB8CC" transform="translate(272,299)"/>
<path d="M0 0 C0.33 0 0.66 0 1 0 C1.00423194 0.75223563 1.00846388 1.50447126 1.01282406 2.27950191 C1.11650258 20.65328581 1.2251928 39.02703396 1.33933926 57.40075588 C1.39442284 66.28644527 1.4478615 75.17213867 1.49731445 84.05786133 C1.54046351 91.81012533 1.58681431 99.56236274 1.63687855 107.31458527 C1.66323484 111.41251341 1.68807711 115.51043713 1.70907402 119.60839653 C1.72896243 123.48008075 1.75319098 127.35171551 1.78049088 131.22335434 C1.78969419 132.63041706 1.79742574 134.03749048 1.80341911 135.44457054 C1.84820586 145.66153624 2.32001708 155.80968001 3 166 C4.98 166.66 6.96 167.32 9 168 C9 168.66 9 169.32 9 170 C9.99 170.33 10.98 170.66 12 171 C11.29875 170.855625 10.5975 170.71125 9.875 170.5625 C6.92443859 169.98521625 3.96729849 169.48304859 1 169 C-0.14259598 165.57221205 -0.12298379 162.95352052 -0.12025452 159.3372345 C-0.12110894 158.65680153 -0.12196337 157.97636856 -0.12284368 157.27531642 C-0.12449353 154.9905652 -0.1189852 152.70588706 -0.11352539 150.42114258 C-0.11324339 148.78525291 -0.11340151 147.14936311 -0.1139679 145.51347351 C-0.11425535 141.06750092 -0.10836694 136.62155519 -0.10139394 132.17558885 C-0.09515183 127.53109768 -0.09455592 122.88660592 -0.09336853 118.24211121 C-0.09025775 109.44487888 -0.08204776 100.64765896 -0.07201904 91.8504321 C-0.06085006 81.83604448 -0.05534547 71.82165627 -0.05032361 61.80726397 C-0.03986495 41.20483572 -0.02227039 20.60241864 0 0 Z " fill="#A49FB2" transform="translate(207,215)"/>
<path d="M0 0 C0.99 0.33 1.98 0.66 3 1 C2.34 1 1.68 1 1 1 C1 38.62 1 76.24 1 115 C3.97 114.01 3.97 114.01 7 113 C9.375 113.375 9.375 113.375 11 114 C10.01 114 9.02 114 8 114 C8 114.66 8 115.32 8 116 C6.02253397 116.73080266 4.01927511 117.39421747 2 118 C1.34 117.67 0.68 117.34 0 117 C0 78.39 0 39.78 0 0 Z " fill="#D1CCDD" transform="translate(338,324)"/>
<path d="M0 0 C0.33 0 0.66 0 1 0 C1 36.63 1 73.26 1 111 C-2.59616816 112.19872272 -3.28921639 111.72500287 -6.625 110.1875 C-7.42164063 109.83042969 -8.21828125 109.47335938 -9.0390625 109.10546875 C-11 108 -11 108 -12 106 C-10.02 106.33 -8.04 106.66 -6 107 C-6 107.66 -6 108.32 -6 109 C-4.02 109.33 -2.04 109.66 0 110 C0 73.7 0 37.4 0 0 Z " fill="#E9E5F0" transform="translate(435,141)"/>
<path d="M0 0 C0.33 0 0.66 0 1 0 C1 12.21 1 24.42 1 37 C-1.97 36.67 -4.94 36.34 -8 36 C-8 35.34 -8 34.68 -8 34 C-9.65 34 -11.3 34 -13 34 C-13 33.34 -13 32.68 -13 32 C-14.98 32 -16.96 32 -19 32 C-19 31.34 -19 30.68 -19 30 C-20.65 30 -22.3 30 -24 30 C-24 29.34 -24 28.68 -24 28 C-25.65 28 -27.3 28 -29 28 C-29 27.34 -29 26.68 -29 26 C-32.65456815 25.24758891 -36.31733897 24.59950296 -40 24 C-40 23.01 -40 22.02 -40 21 C-40.99 20.67 -41.98 20.34 -43 20 C-37.22621075 20.4811491 -33.04140164 22.18467181 -28 25 C-28 25.66 -28 26.32 -28 27 C-27.13375 26.938125 -26.2675 26.87625 -25.375 26.8125 C-21.51199516 27.02711138 -19.40175727 28.22825142 -16 30 C-12.7633037 30.70758326 -12.7633037 30.70758326 -10 31 C-10 31.66 -10 32.32 -10 33 C-8.33333333 33.33333333 -6.66666667 33.66666667 -5 34 C-3.35 34.33 -1.7 34.66 0 35 C0 23.45 0 11.9 0 0 Z " fill="#B8A5BF" transform="translate(240,431)"/>
<path d="M0 0 C2.475 0.495 2.475 0.495 5 1 C5.33 25.42 5.66 49.84 6 75 C9.3 75.99 12.6 76.98 16 78 C18.69516681 79.27474106 21.37338209 80.5894089 24 82 C24 82.33 24 82.66 24 83 C22.35 83 20.7 83 19 83 C19 82.34 19 81.68 19 81 C17.35 81 15.7 81 14 81 C14 80.34 14 79.68 14 79 C12.9171875 78.814375 12.9171875 78.814375 11.8125 78.625 C9 78 9 78 4 76 C4 51.58 4 27.16 4 2 C2.68 2 1.36 2 0 2 C0 1.34 0 0.68 0 0 Z " fill="#DED9E8" transform="translate(398,164)"/>
<path d="M0 0 C3.47186333 0.44798237 6.2938602 1.53438415 9.4375 3 C12.9594074 4.62549573 16.10765708 5.60078534 20 6 C20 6.66 20 7.32 20 8 C21.98 8 23.96 8 26 8 C26 8.66 26 9.32 26 10 C26.7425 10.12375 27.485 10.2475 28.25 10.375 C31 11 31 11 32.8125 11.9375 C34.9403055 12.97100553 36.69827305 13.39423263 39 13.875 C42.67681734 14.725607 44.59627718 15.99534647 47 19 C41.47293087 18.27275406 36.30039859 16.66554027 31 15 C31 14.34 31 13.68 31 13 C30.2575 13.04125 29.515 13.0825 28.75 13.125 C25.91241048 12.99601866 24.41226062 12.42948778 22 11 C22 10.34 22 9.68 22 9 C20.93072266 9.07154297 20.93072266 9.07154297 19.83984375 9.14453125 C16.56128129 8.97767181 14.5118029 8.10567544 11.5625 6.6875 C10.60859375 6.23375 9.6546875 5.78 8.671875 5.3125 C7.34929687 4.6628125 7.34929687 4.6628125 6 4 C5.32453125 3.67 4.6490625 3.34 3.953125 3 C2.62976582 2.34462212 1.31367085 1.67458773 0 1 C0 0.67 0 0.34 0 0 Z " fill="#E4E0EF" transform="translate(372,263)"/>
<path d="M0 0 C2.31 0 4.62 0 7 0 C7 27.39 7 54.78 7 83 C6.67 83 6.34 83 6 83 C6 55.94 6 28.88 6 1 C1.545 2.485 1.545 2.485 -3 4 C-3.33 3.34 -3.66 2.68 -4 2 C-2.68 2 -1.36 2 0 2 C0 1.34 0 0.68 0 0 Z " fill="#7F6889" transform="translate(102,132)"/>
<path d="M0 0 C4.571279 0.54855348 8.67435795 1.41744803 13 3 C13 3.66 13 4.32 13 5 C14.65 5 16.3 5 18 5 C18 5.66 18 6.32 18 7 C18.99 7 19.98 7 21 7 C21 24.82 21 42.64 21 61 C20.67 61 20.34 61 20 61 C20 43.84 20 26.68 20 9 C19.01 9 18.02 9 17 9 C16.67 8.34 16.34 7.68 16 7 C14.12267157 6.19603175 14.12267157 6.19603175 11.875 5.5625 C7.77779659 4.27761701 3.91889261 2.75099457 0 1 C0 0.67 0 0.34 0 0 Z " fill="#C8C2D6" transform="translate(349,328)"/>
<path d="M0 0 C2.31 0.33 4.62 0.66 7 1 C7 1.66 7 2.32 7 3 C8.65 3 10.3 3 12 3 C12 3.99 12 4.98 12 6 C13.32 6 14.64 6 16 6 C16 20.52 16 35.04 16 50 C15.67 50 15.34 50 15 50 C15 35.81 15 21.62 15 7 C13.35 6.67 11.7 6.34 10 6 C8.2146857 5.35103174 6.44305392 4.66312895 4.6875 3.9375 C3.36298828 3.39416016 3.36298828 3.39416016 2.01171875 2.83984375 C1.34785156 2.56269531 0.68398438 2.28554688 0 2 C0 1.34 0 0.68 0 0 Z " fill="#D1CDDE" transform="translate(419,282)"/>
<path d="M0 0 C0.33 0 0.66 0 1 0 C1 13.86 1 27.72 1 42 C-11 47 -11 47 -15 46 C-13.43979133 45.34865075 -11.87671421 44.70417036 -10.3125 44.0625 C-9.00732422 43.52302734 -9.00732422 43.52302734 -7.67578125 42.97265625 C-5 42 -5 42 0 41 C0 27.47 0 13.94 0 0 Z " fill="#E1DBEC" transform="translate(306,414)"/>
<path d="M0 0 C0.33 0 0.66 0 1 0 C1.66 10.89 2.32 21.78 3 33 C4.98 33.66 6.96 34.32 9 35 C9 35.66 9 36.32 9 37 C9.99 37.33 10.98 37.66 12 38 C11.29875 37.855625 10.5975 37.71125 9.875 37.5625 C6.92443859 36.98521625 3.96729849 36.48304859 1 36 C-0.18975795 32.43072615 -0.12478155 29.20053028 -0.09765625 25.48828125 C-0.0962413 24.76005661 -0.09482635 24.03183197 -0.09336853 23.28153992 C-0.08777659 20.95848461 -0.07522562 18.63552612 -0.0625 16.3125 C-0.05748396 14.73632952 -0.05292123 13.16015752 -0.04882812 11.58398438 C-0.0378098 7.72261902 -0.02055074 3.86132592 0 0 Z " fill="#ACA7B8" transform="translate(207,348)"/>
<path d="M0 0 C-1 3 -1 3 -2.75 4.1875 C-5.29960574 5.10819096 -7.30923081 5.14948718 -10 5 C-10 5.66 -10 6.32 -10 7 C-11.56159059 7.48212214 -13.12431928 7.96055873 -14.6875 8.4375 C-15.55761719 8.70433594 -16.42773438 8.97117187 -17.32421875 9.24609375 C-19.87025921 9.96344529 -22.4003423 10.517541 -25 11 C-25 11.66 -25 12.32 -25 13 C-26.98 13.33 -28.96 13.66 -31 14 C-29.25 12 -29.25 12 -27 10 C-25.68 10 -24.36 10 -23 10 C-23 9.34 -23 8.68 -23 8 C-21.14375 7.4121875 -21.14375 7.4121875 -19.25 6.8125 C-14.21251732 5.14668697 -9.37063513 3.09533245 -4.50390625 0.98828125 C-2 0 -2 0 0 0 Z " fill="#E5E3EE" transform="translate(435,400)"/>
<path d="M0 0 C0.33 0 0.66 0 1 0 C1 13.53 1 27.06 1 41 C2.98 40.34 4.96 39.68 7 39 C9.375 39.375 9.375 39.375 11 40 C10.01 40 9.02 40 8 40 C8 40.66 8 41.32 8 42 C6.02253397 42.73080266 4.01927511 43.39421747 2 44 C1.34 43.67 0.68 43.34 0 43 C0 28.81 0 14.62 0 0 Z " fill="#D9D5E5" transform="translate(338,398)"/>
<path d="M0 0 C0 0.99 0 1.98 0 3 C-3.61973402 4.31626692 -6.09567131 5 -10 5 C-10 5.66 -10 6.32 -10 7 C-10.73605469 7.18175781 -11.47210938 7.36351563 -12.23046875 7.55078125 C-17.36092697 8.8723656 -21.45784384 10.24717808 -26 13 C-28.3125 12.6875 -28.3125 12.6875 -30 12 C-29.34 12 -28.68 12 -28 12 C-28 11.34 -28 10.68 -28 10 C-24.38026598 8.68373308 -21.90432869 8 -18 8 C-18 7.34 -18 6.68 -18 6 C-17.43152344 5.81824219 -16.86304688 5.63648437 -16.27734375 5.44921875 C-12.4669941 4.20878773 -8.72828901 2.93658374 -5.0625 1.3125 C-2 0 -2 0 0 0 Z " fill="#ADA8BB" transform="translate(199,93)"/>
<path d="M0 0 C5.77378925 0.4811491 9.95859836 2.18467181 15 5 C15 5.66 15 6.32 15 7 C15.825 6.9175 16.65 6.835 17.5 6.75 C22.01303847 7.07235989 25.11795056 8.79294651 29 11 C29 11.33 29 11.66 29 12 C27.35 12 25.7 12 24 12 C24 11.34 24 10.68 24 10 C22.35 10 20.7 10 19 10 C19 9.34 19 8.68 19 8 C17.35 8 15.7 8 14 8 C14 7.34 14 6.68 14 6 C10.34543185 5.24758891 6.68266103 4.59950296 3 4 C3 3.01 3 2.02 3 1 C2.01 0.67 1.02 0.34 0 0 Z " fill="#B8A7BE" transform="translate(197,451)"/>
<path d="M0 0 C1.43861294 0.08746284 2.87597508 0.19565348 4.3125 0.3125 C5.11300781 0.37050781 5.91351563 0.42851562 6.73828125 0.48828125 C9 1 9 1 10.34765625 2.3828125 C12.82101016 4.80354186 15.89836637 5.52932539 19.125 6.5625 C21.45510463 7.31362155 23.71368997 8.11412796 26 9 C26.33 9.66 26.66 10.32 27 11 C14.33029613 9.25740319 14.33029613 9.25740319 9 6 C9 5.34 9 4.68 9 4 C8.443125 3.87625 7.88625 3.7525 7.3125 3.625 C4.77885636 2.94023145 2.42078968 2.00866237 0 1 C0 0.67 0 0.34 0 0 Z " fill="#BCAAC2" transform="translate(170,440)"/>
<path d="M0 0 C2.64 0 5.28 0 8 0 C8 0.66 8 1.32 8 2 C8.88751953 2.16435547 8.88751953 2.16435547 9.79296875 2.33203125 C14.35386882 3.24718738 18.23931435 4.08850143 22 7 C22 7.66 22 8.32 22 9 C22.66 9.33 23.32 9.66 24 10 C19.08668451 9.45157182 15.1985745 7.84516137 10.875 5.5625 C10.26785156 5.24990234 9.66070312 4.93730469 9.03515625 4.61523438 C7.35392975 3.7489815 5.67681071 2.87476993 4 2 C2.66838376 1.32991015 1.3359814 0.66134403 0 0 Z " fill="#CCC8D9" transform="translate(279,80)"/>
<path d="M0 0 C5.37802065 0.56021048 9.9997951 1.93123851 15 4 C16.57201172 4.64775391 16.57201172 4.64775391 18.17578125 5.30859375 C21.12097065 6.53027631 24.06200087 7.7611437 27 9 C27 9.33 27 9.66 27 10 C24.69 10 22.38 10 20 10 C20 9.34 20 8.68 20 8 C18.68 8 17.36 8 16 8 C16 7.34 16 6.68 16 6 C12.37 5.34 8.74 4.68 5 4 C5 3.34 5 2.68 5 2 C3.35 2 1.7 2 0 2 C0 1.34 0 0.68 0 0 Z " fill="#AE9CB4" transform="translate(143,430)"/>
<path d="M0 0 C6.75 0.75 6.75 0.75 9 3 C10.43819103 3.55528611 11.90066269 4.04937199 13.375 4.5 C16.42051297 5.43708091 19.18179223 6.50725068 22 8 C22 8.66 22 9.32 22 10 C21.05640625 9.70996094 21.05640625 9.70996094 20.09375 9.4140625 C14.75783615 7.7907875 9.42240732 6.30539435 4 5 C4 4.01 4 3.02 4 2 C2.68 1.67 1.36 1.34 0 1 C0 0.67 0 0.34 0 0 Z " fill="#B8A7BE" transform="translate(169,402)"/>
<path d="M0 0 C0.33 0 0.66 0 1 0 C1 5.94 1 11.88 1 18 C7.6187972 17.20013168 7.6187972 17.20013168 12 14 C15.25 13.3125 15.25 13.3125 18 13 C18 13.66 18 14.32 18 15 C16.69598449 15.66279748 15.38106373 16.30413862 14.0625 16.9375 C13.33160156 17.29714844 12.60070312 17.65679687 11.84765625 18.02734375 C9 19 9 19 0 20 C0 13.4 0 6.8 0 0 Z " fill="#A29EB0" transform="translate(273,448)"/>
<path d="M0 0 C2.64 0 5.28 0 8 0 C8 0.66 8 1.32 8 2 C8.55171875 2.13277344 9.1034375 2.26554687 9.671875 2.40234375 C12.22050602 3.05660641 14.73159343 3.80035064 17.25 4.5625 C18.14203125 4.83191406 19.0340625 5.10132813 19.953125 5.37890625 C20.62859375 5.58386719 21.3040625 5.78882813 22 6 C22 6.66 22 7.32 22 8 C22.99 8.33 23.98 8.66 25 9 C16.21946809 7.87429078 8.1313435 4.34420599 0 1 C0 0.67 0 0.34 0 0 Z " fill="#C8B7CB" transform="translate(144,393)"/>
<path d="M0 0 C7.32761972 1.45450497 13.75788743 2.79020315 20 7 C16.45332822 8.25127906 14.27746562 7.72285053 10.75 6.5625 C9.85796875 6.27503906 8.9659375 5.98757813 8.046875 5.69140625 C7.37140625 5.46324219 6.6959375 5.23507812 6 5 C6 4.34 6 3.68 6 3 C3.03 2.505 3.03 2.505 0 2 C0 1.34 0 0.68 0 0 Z " fill="#755E7E" transform="translate(214,421)"/>
<path d="M0 0 C1.98 0 3.96 0 6 0 C2.90265841 2.71017389 -0.2238153 3.90227695 -4.04296875 5.234375 C-6.2104408 6.00989055 -6.2104408 6.00989055 -8.75 7.75 C-11 9 -11 9 -13.3125 8.6875 C-13.869375 8.460625 -14.42625 8.23375 -15 8 C-14 7 -14 7 -11.4375 6.9375 C-10.2309375 6.9684375 -10.2309375 6.9684375 -9 7 C-9 6.01 -9 5.02 -9 4 C-7.68 4 -6.36 4 -5 4 C-5 3.34 -5 2.68 -5 2 C-3.35 2 -1.7 2 0 2 C0 1.34 0 0.68 0 0 Z " fill="#D3CFDF" transform="translate(214,84)"/>
<path d="M0 0 C4.71437718 1.51271293 9.28958585 3.26772954 13.875 5.125 C14.56335938 5.40214844 15.25171875 5.67929687 15.9609375 5.96484375 C17.64126501 6.64164233 19.32072342 7.32059803 21 8 C21 8.33 21 8.66 21 9 C19.02 9 17.04 9 15 9 C15 8.34 15 7.68 15 7 C13.35 7 11.7 7 10 7 C10 6.34 10 5.68 10 5 C8.35 5 6.7 5 5 5 C5 4.34 5 3.68 5 3 C3.35 3 1.7 3 0 3 C0 2.01 0 1.02 0 0 Z " fill="#D2C2D6" transform="translate(122,421)"/>
<path d="M0 0 C1.36125 0.6496875 1.36125 0.6496875 2.75 1.3125 C7.16018467 3.23233398 11.7432474 4.21399597 16.42578125 5.25390625 C19 6 19 6 21 8 C14.65173177 7.62957791 9.73299587 6.75183802 4 4 C2.67723944 3.62691369 1.34767923 3.26953585 0 3 C0 2.01 0 1.02 0 0 Z " fill="#CCBED2" transform="translate(101,413)"/>
<path d="M0 0 C2.93933089 0.61722952 5.87625379 1.24340471 8.8125 1.875 C9.64587891 2.04902344 10.47925781 2.22304687 11.33789062 2.40234375 C12.14033203 2.57636719 12.94277344 2.75039062 13.76953125 2.9296875 C14.87711792 3.16534424 14.87711792 3.16534424 16.00708008 3.40576172 C18 4 18 4 21 6 C21 6.66 21 7.32 21 8 C13.60741743 6.34886481 6.79360575 4.37964731 0 1 C0 0.67 0 0.34 0 0 Z " fill="#E3DEEC" transform="translate(404,130)"/>
<path d="M0 0 C4.571279 0.54855348 8.67435795 1.41744803 13 3 C13 3.66 13 4.32 13 5 C14.65 5 16.3 5 18 5 C18 5.66 18 6.32 18 7 C18.99 7.33 19.98 7.66 21 8 C13.66023799 6.81616742 6.75418356 4.0178267 0 1 C0 0.67 0 0.34 0 0 Z " fill="#DFDAEA" transform="translate(349,328)"/>
<path d="M0 0 C2.31 0 4.62 0 7 0 C7 5.61 7 11.22 7 17 C6.67 17 6.34 17 6 17 C6 11.72 6 6.44 6 1 C1.545 2.485 1.545 2.485 -3 4 C-3.33 3.34 -3.66 2.68 -4 2 C-2.68 2 -1.36 2 0 2 C0 1.34 0 0.68 0 0 Z " fill="#9E8BA6" transform="translate(102,132)"/>
<path d="M0 0 C-0.33 0.99 -0.66 1.98 -1 3 C-3.49498445 4.07222472 -5.85850745 4.94510667 -8.4375 5.75 C-9.13166016 5.98332031 -9.82582031 6.21664062 -10.54101562 6.45703125 C-15.73025977 8.13487011 -15.73025977 8.13487011 -18 7 C-14.17920901 4.41172223 -10.35204189 3.01257108 -5.98828125 1.6484375 C-0.93373494 0 -0.93373494 0 0 0 Z " fill="#9892AA" transform="translate(234,79)"/>
<path d="M0 0 C5.67276511 -0.29341888 8.99067246 -0.00559652 14 3 C11.05613377 4.47193312 8.62609964 3.84936173 5.375 3.5625 C4.18648437 3.46066406 2.99796875 3.35882813 1.7734375 3.25390625 C0.85820312 3.17011719 -0.05703125 3.08632812 -1 3 C-0.67 2.01 -0.34 1.02 0 0 Z " fill="#B1ADBF" transform="translate(250,70)"/>
<path d="M0 0 C1.32 0 2.64 0 4 0 C4 0.66 4 1.32 4 2 C5.66666667 2.33333333 7.33333333 2.66666667 9 3 C10.66666667 3.33333333 12.33333333 3.66666667 14 4 C14.33 3.34 14.66 2.68 15 2 C15 3.32 15 4.64 15 6 C12.03 5.67 9.06 5.34 6 5 C6 4.34 6 3.68 6 3 C4.35 3 2.7 3 1 3 C0.67 2.01 0.34 1.02 0 0 Z " fill="#A193A7" transform="translate(226,462)"/>
<path d="M0 0 C4.47272429 0.52008422 7.19565029 1.68027457 11 4 C13.31691454 4.72166191 15.64848923 5.40059529 18 6 C14.67465243 7.10844919 12.37817425 6.84454356 9 6 C9 5.34 9 4.68 9 4 C6.69 3.67 4.38 3.34 2 3 C2 2.34 2 1.68 2 1 C1.34 0.67 0.68 0.34 0 0 Z " fill="#D0CADA" transform="translate(147,358)"/>
<path d="M0 0 C5.36757261 0.46272178 9.30500109 1.13719579 14 4 C14.33 4.66 14.66 5.32 15 6 C11.66666667 5.33333333 8.33333333 4.66666667 5 4 C5 3.34 5 2.68 5 2 C3.35 2 1.7 2 0 2 C0 1.34 0 0.68 0 0 Z " fill="#D9D5E5" transform="translate(374,301)"/>
<path d="M0 0 C1.91936213 0.42551896 3.83542874 0.86591938 5.75 1.3125 C7.35101563 1.67794922 7.35101563 1.67794922 8.984375 2.05078125 C11.92210901 2.9754825 13.69294262 4.00092358 16 6 C14.02 6 12.04 6 10 6 C10 5.34 10 4.68 10 4 C8.02 4 6.04 4 4 4 C4 3.34 4 2.68 4 2 C2.68 2 1.36 2 0 2 C0 1.34 0 0.68 0 0 Z " fill="#695170" transform="translate(157,399)"/>
<path d="M0 0 C3.68266103 0.59950296 7.34543185 1.24758891 11 2 C11 2.66 11 3.32 11 4 C12.32 4.33 13.64 4.66 15 5 C12.24022114 6.37988943 10.98021199 5.62402826 8.0625 4.75 C6.74958984 4.37101562 6.74958984 4.37101562 5.41015625 3.984375 C2.95383848 2.98114635 1.70251753 2.00031763 0 0 Z " fill="#DCD8E7" transform="translate(384,122)"/>
<path d="M0 0 C1.32 0.33 2.64 0.66 4 1 C0.04342667 4.95657333 -6.5842764 6.12649619 -12 7 C-11.34 6.67 -10.68 6.34 -10 6 C-10 5.34 -10 4.68 -10 4 C-6.38026598 2.68373308 -3.90432869 2 0 2 C0 1.34 0 0.68 0 0 Z " fill="#C0BBCE" transform="translate(181,99)"/>
<path d="M0 0 C4.26947129 0.50229074 8.16836808 0.97148898 12 3 C12.33 3.99 12.66 4.98 13 6 C8.31479085 4.78184562 4.29456388 3.30440013 0 1 C0 0.67 0 0.34 0 0 Z " fill="#E8E4EF" transform="translate(366,114)"/>
<path d="M0 0 C0.66 0.66 1.32 1.32 2 2 C1.443125 1.97679688 0.88625 1.95359375 0.3125 1.9296875 C-5.17609015 1.79988976 -9.7293351 2.46671566 -15 4 C-15 3.34 -15 2.68 -15 2 C-10.29669569 -0.50842897 -5.21221812 -0.62731121 0 0 Z " fill="#D7D2E2" transform="translate(259,108)"/>
<path d="M0 0 C3.34373475 0.55728913 6.03312999 1.35173889 9 3 C9 3.33 9 3.66 9 4 C2.25 4.125 2.25 4.125 0 3 C0 2.01 0 1.02 0 0 Z " fill="#40234B" transform="translate(185,443)"/>
<path d="M0 0 C2.31 0 4.62 0 7 0 C7 0.66 7 1.32 7 2 C3.04 2.99 -0.92 3.98 -5 5 C-4.67 4.34 -4.34 3.68 -4 3 C-3.01 3 -2.02 3 -1 3 C-0.67 2.01 -0.34 1.02 0 0 Z " fill="#E0DCEA" transform="translate(359,430)"/>
<path d="M0 0 C1.64846769 0.44876616 3.29373455 0.90930488 4.9375 1.375 C5.85402344 1.63023437 6.77054688 1.88546875 7.71484375 2.1484375 C10 3 10 3 11 5 C8.69 5 6.38 5 4 5 C3.67 4.01 3.34 3.02 3 2 C2.01 1.67 1.02 1.34 0 1 C0 0.67 0 0.34 0 0 Z " fill="#CFCDDA" transform="translate(219,386)"/>
<path d="M0 0 C0 0.66 0 1.32 0 2 C-1.4096347 2.70180531 -2.82807641 3.38593958 -4.25 4.0625 C-5.03890625 4.44535156 -5.8278125 4.82820313 -6.640625 5.22265625 C-9.25993522 6.08564091 -10.44855176 5.93045933 -13 5 C-4.61290323 0 -4.61290323 0 0 0 Z " fill="#C6C1D3" transform="translate(291,461)"/>
<path d="M0 0 C4.97306516 0.49730652 8.63799813 1.55302334 13 4 C13 4.33 13 4.66 13 5 C11.02 5 9.04 5 7 5 C6.67 4.01 6.34 3.02 6 2 C4.35 2 2.7 2 1 2 C0.67 1.34 0.34 0.68 0 0 Z " fill="#94829C" transform="translate(131,388)"/>
<path d="M0 0 C1.44096586 0.42594588 2.87768712 0.86626633 4.3125 1.3125 C5.11300781 1.55613281 5.91351563 1.79976563 6.73828125 2.05078125 C9.09964573 3.04182023 10.33879993 4.08074943 12 6 C7.01208429 5.52496041 3.9767259 4.0298864 0 1 C0 0.67 0 0.34 0 0 Z " fill="#B09EB7" transform="translate(222,423)"/>
<path d="M0 0 C1.36125 0.12375 1.36125 0.12375 2.75 0.25 C0.68243723 3.0472908 -0.39440371 3.27692273 -3.9375 3.9375 C-5.030625 4.040625 -6.12375 4.14375 -7.25 4.25 C-4.83923194 1.28290085 -3.90322061 0.30024774 0 0 Z " fill="#D9D7E3" transform="translate(188.25,134.75)"/>
<path d="M0 0 C2.97 0.33 5.94 0.66 9 1 C9.33 1.99 9.66 2.98 10 4 C6.44219804 3.39009109 3.3171411 2.4216319 0 1 C0 0.67 0 0.34 0 0 Z " fill="#86708F" transform="translate(170,440)"/>
<path d="M0 0 C2.64 0 5.28 0 8 0 C8.33 0.99 8.66 1.98 9 3 C5.26512223 2.5020163 3.18762365 2.12508244 0 0 Z " fill="#644C6C" transform="translate(130,424)"/>
<path d="M0 0 C0.721875 0.144375 1.44375 0.28875 2.1875 0.4375 C3.5796875 0.7159375 3.5796875 0.7159375 5 1 C6.66666667 1.33333333 8.33333333 1.66666667 10 2 C10 2.66 10 3.32 10 4 C7.36 3.67 4.72 3.34 2 3 C2 2.34 2 1.68 2 1 C1.34 0.67 0.68 0.34 0 0 Z " fill="#9B89A3" transform="translate(84,406)"/>
</svg>
