<?xml version="1.0" encoding="UTF-8"?>
<svg version="1.1" xmlns="http://www.w3.org/2000/svg" width="192" height="192">
<path d="M0 0 C63.36 0 126.72 0 192 0 C192 63.36 192 126.72 192 192 C128.64 192 65.28 192 0 192 C0 128.64 0 65.28 0 0 Z " fill="#FCFCFD" transform="translate(0,0)"/>
<path d="M0 0 C0.67998047 0.27779297 1.35996094 0.55558594 2.06054688 0.84179688 C7.01797672 2.89297672 7.01797672 2.89297672 8.1875 4.0625 C8.28384459 5.83410318 8.30937481 7.60958408 8.30775452 9.38380432 C8.30912918 10.53791809 8.31050385 11.69203186 8.31192017 12.88111877 C8.30652725 14.79730263 8.30652725 14.79730263 8.30102539 16.75219727 C8.30074352 18.10208128 8.30090125 19.45196544 8.3014679 20.80184937 C8.30175587 24.47730608 8.29585916 28.15273043 8.28889394 31.8281796 C8.28266038 35.66523149 8.2820566 39.50228404 8.28086853 43.33934021 C8.27775522 50.61021218 8.26954183 57.88106919 8.25951904 65.15193456 C8.2483579 73.42749352 8.24284745 81.70305318 8.23782361 89.97861779 C8.22735922 107.00658719 8.20975978 124.03454202 8.1875 141.0625 C6.75320999 141.73604499 5.31492943 142.40109701 3.875 143.0625 C3.07449219 143.43375 2.27398437 143.805 1.44921875 144.1875 C-0.8125 145.0625 -0.8125 145.0625 -3.8125 145.0625 C-3.8125 101.1725 -3.8125 57.2825 -3.8125 12.0625 C-7.7725 12.0625 -11.7325 12.0625 -15.8125 12.0625 C-15.8125 47.0425 -15.8125 82.0225 -15.8125 118.0625 C-25.8125 115.0625 -25.8125 115.0625 -27.8125 114.0625 C-27.8125 82.3825 -27.8125 50.7025 -27.8125 18.0625 C-33.7525 20.5375 -33.7525 20.5375 -39.8125 23.0625 C-40.1425 50.7825 -40.4725 78.5025 -40.8125 107.0625 C-44.7725 106.0725 -48.7325 105.0825 -52.8125 104.0625 C-52.8125 74.0325 -52.8125 44.0025 -52.8125 13.0625 C-46.2125 10.4225 -39.6125 7.7825 -32.8125 5.0625 C-31.4925 4.4025 -30.1725 3.7425 -28.8125 3.0625 C-27.4925 3.0625 -26.1725 3.0625 -24.8125 3.0625 C-24.8125 2.4025 -24.8125 1.7425 -24.8125 1.0625 C-23.10901829 0.3835322 -21.39942821 -0.28011957 -19.6875 -0.9375 C-18.73617187 -1.30875 -17.78484375 -1.68 -16.8046875 -2.0625 C-10.38084055 -3.94101399 -5.91531275 -2.52194309 0 0 Z " fill="#82789F" transform="translate(105.8125,29.9375)"/>
<path d="M0 0 C4.60554181 0.7675903 6.99285206 1.26191357 10.9375 3.1875 C15.52765208 5.35349769 20.15843518 7.31923905 24.875 9.1875 C25.82040649 9.56201294 25.82040649 9.56201294 26.78491211 9.9440918 C28.52277214 10.63066808 30.26136541 11.31538753 32 12 C34.475 12.99 34.475 12.99 37 14 C37 27.53 37 41.06 37 55 C30 53 30 53 25 51 C24.505 37.14 24.505 37.14 24 23 C20.37 21.68 16.74 20.36 13 19 C13.33 32.53 13.66 46.06 14 60 C19.61 61.98 25.22 63.96 31 66 C32.98 66.99 34.96 67.98 37 69 C37.04934399 74.94481181 37.08569282 80.88950509 37.10986328 86.83447266 C37.11993671 88.85793127 37.13359595 90.88137528 37.15087891 92.90478516 C37.17506847 95.80895589 37.18646949 98.71293461 37.1953125 101.6171875 C37.20563507 102.52556366 37.21595764 103.43393982 37.22659302 104.36984253 C37.22681961 105.63092331 37.22681961 105.63092331 37.22705078 106.91748047 C37.231492 107.65916473 37.23593323 108.400849 37.24050903 109.16500854 C37 111 37 111 35 113 C32.04407687 114.07845349 29.05075318 114.97945834 26.04296875 115.90234375 C23.07188041 116.97407138 20.69536185 118.37920101 18 120 C14.1875 120.6875 14.1875 120.6875 11 121 C11 121.66 11 122.32 11 123 C7.7 123.99 4.4 124.98 1 126 C1 111.81 1 97.62 1 83 C8 85 8 85 13 87 C13 93.6 13 100.2 13 107 C15.97 105.68 18.94 104.36 22 103 C22.99 103 23.98 103 25 103 C25 94.75 25 86.5 25 78 C22.03 77.01 19.06 76.02 16 75 C10.72 73.02 5.44 71.04 0 69 C0 46.23 0 23.46 0 0 Z " fill="#C4BBDB" transform="translate(126,39)"/>
<path d="M0 0 C0 30.69 0 61.38 0 93 C1.65 93.33 3.3 93.66 5 94 C7.63367185 94.9666813 10.22991891 95.96598431 12.828125 97.01953125 C13.95078766 97.46929573 13.95078766 97.46929573 15.09613037 97.92814636 C16.67704398 98.56245581 18.25712722 99.19883825 19.83642578 99.8371582 C22.22636504 100.80294895 24.6187725 101.76239053 27.01171875 102.72070312 C34.40086182 105.68753847 41.757304 108.68738443 49 112 C49 116.29 49 120.58 49 125 C42.02189996 123.68939238 36.01651235 121.48498255 29.5625 118.5625 C23.45326973 115.81087755 17.49925635 113.40656027 11.01147461 111.69116211 C9 111 9 111 7 109 C4.75057617 108.110494 2.47523838 107.28573632 0.1875 106.5 C-3.9236225 105.07908516 -7.95864128 103.61654349 -12 102 C-12 69.66 -12 37.32 -12 4 C-4 0 -4 0 0 0 Z " fill="#482257" transform="translate(41,50)"/>
<path d="M0 0 C0 0.66 0 1.32 0 2 C-4.67902284 4.2018931 -6.62516458 5 -12 5 C-11.67 34.7 -11.34 64.4 -11 95 C-11.66 95 -12.32 95 -13 95 C-13 64.97 -13 34.94 -13 4 C-3 0 -3 0 0 0 Z " fill="#9C96AE" transform="translate(66,39)"/>
</svg>
