<?xml version="1.0" encoding="UTF-8"?>
<svg version="1.1" xmlns="http://www.w3.org/2000/svg" width="1054" height="1054">

    <path
        d="M0 0 C1.27126236 -0.01467567 1.27126236 -0.01467567 2.56820679 -0.02964783 C5.37520786 -0.05958139 8.18216135 -0.08098177 10.98925781 -0.09985352 C11.94863503 -0.10642534 12.90801224 -0.11299717 13.89646149 -0.11976814 C18.97490464 -0.15235309 24.05332689 -0.17680588 29.13183594 -0.19628906 C33.33201651 -0.21410091 37.53152557 -0.24892049 41.73144531 -0.29882812 C46.80540463 -0.35904984 51.87874139 -0.38976742 56.95304108 -0.39946175 C58.8843434 -0.40801415 60.81562919 -0.42682701 62.74672699 -0.45620537 C65.45428211 -0.49517772 68.15941781 -0.49614757 70.8671875 -0.48828125 C71.66017242 -0.50828186 72.45315735 -0.52828247 73.27017212 -0.54888916 C78.58950358 -0.47974769 81.45193222 0.87615874 85.2760067 4.58771801 C91.38984505 11.58491864 93.44394885 22.27165233 96.00878906 30.98217773 C96.41694703 32.34676757 96.82583004 33.71114071 97.23536682 35.07531738 C98.11807685 38.02095072 98.99591792 40.96797421 99.86993408 43.91619873 C101.28658857 48.69457846 102.7140296 53.46969577 104.14306641 58.24438477 C105.68548654 63.39977195 107.22706602 68.55540455 108.76501465 73.71212769 C112.70934791 86.93651207 116.68046461 100.15267844 120.66503906 113.36499023 C120.95810125 114.33686657 121.25116344 115.3087429 121.55310631 116.31007004 C122.74319302 120.25671234 123.93334006 124.20333643 125.1236105 128.14992332 C134.3493146 158.74129986 143.54015575 189.34285572 152.66506195 219.96444702 C159.15231023 241.73412886 165.67868989 263.49176024 172.23590088 285.2404747 C172.93632886 287.56366044 173.63663174 289.88688387 174.33691406 292.21011353 C178.89555569 307.33267925 183.46068935 322.45324612 188.04438782 337.5682373 C189.36614134 341.92778379 190.68623133 346.28783452 192.00671387 350.64776611 C193.04336354 354.06701587 194.08311661 357.48531129 195.12304688 360.90356445 C195.73744652 362.93102799 196.35171317 364.95853183 196.96582031 366.98608398 C197.24587921 367.90305557 197.52593811 368.82002716 197.81448364 369.76478577 C198.06471283 370.59312424 198.31494202 371.42146271 198.57275391 372.27490234 C198.79063568 372.99181747 199.00851746 373.7087326 199.23300171 374.44737244 C199.69238281 376.20874023 199.69238281 376.20874023 199.69238281 378.20874023 C200.35238281 378.20874023 201.01238281 378.20874023 201.69238281 378.20874023 C201.69086393 377.43982879 201.68934505 376.67091735 201.68778014 375.87870556 C201.59827357 330.30975713 201.52963947 284.74081826 201.48812149 239.17179954 C201.48311865 233.70063314 201.47794136 228.22946692 201.47265625 222.75830078 C201.47160701 221.66908718 201.47055777 220.57987359 201.46947673 219.45765352 C201.45207011 201.81978848 201.42053098 184.18197558 201.38377163 166.54414148 C201.34636941 148.44695268 201.32414847 130.34979119 201.31602883 112.25256532 C201.31053958 101.08503015 201.29320034 89.91764234 201.26071694 78.75015252 C201.23957796 71.09284491 201.23318139 63.43561351 201.2383773 55.77827884 C201.24094003 51.35995641 201.23700332 46.94189155 201.21556091 42.52361488 C201.19606162 38.4761323 201.19513455 34.42907991 201.20878723 30.38157731 C201.21047401 28.91977618 201.20542827 27.45794795 201.19285008 25.99619997 C201.12875474 18.08551489 201.16702063 10.97765576 205.69238281 4.20874023 C210.02921808 0.27121009 213.32276989 -0.29222403 219.0871582 -0.29296875 C220.15907158 -0.30107323 220.15907158 -0.30107323 221.25263977 -0.30934143 C223.59886963 -0.32178017 225.94386072 -0.30537328 228.29003906 -0.28735352 C229.92858443 -0.2875086 231.56713017 -0.28899916 233.20567322 -0.29176331 C236.63280536 -0.29314506 240.05951785 -0.28062583 243.48657227 -0.2578125 C247.87372725 -0.2294058 252.26018657 -0.23217415 256.64739323 -0.24490261 C260.02837542 -0.25186517 263.40919749 -0.24406434 266.79015923 -0.23164558 C268.40764184 -0.22713826 270.02514167 -0.22678799 271.64262581 -0.23071098 C273.90444171 -0.23362953 276.16530643 -0.21708768 278.42700195 -0.1953125 C279.71240372 -0.18990952 280.99780548 -0.18450653 282.32215881 -0.17893982 C285.92412324 0.23539755 287.80497871 1.06586384 290.69238281 3.20874023 C294.52589554 8.06828137 295.81544124 13.09813224 295.82266808 19.15353298 C295.82629242 20.15466482 295.82991677 21.15579665 295.83365095 22.18726581 C295.83204857 23.83388969 295.83204857 23.83388969 295.83041382 25.51377869 C295.8332351 26.68156453 295.83605638 27.84935038 295.83896315 29.05252367 C295.84586212 32.29469147 295.84833542 35.53682858 295.84901428 38.77900255 C295.85085446 42.27531794 295.85846151 45.77162095 295.86549377 49.26792908 C295.87701842 55.32690717 295.88526318 61.38588249 295.89161301 67.44486809 C295.90193779 77.0197877 295.92250039 86.59467261 295.94473267 96.16957092 C295.95221226 99.44500244 295.95962599 102.72043411 295.96702003 105.99586582 C295.9688706 106.81441781 295.97072117 107.6329698 295.97262781 108.47632639 C295.99355413 117.79362177 296.01238348 127.11092098 296.03027344 136.42822266 C296.03191162 137.27996492 296.0335498 138.13170719 296.03523763 139.00925983 C296.06153394 152.8181225 296.08017162 166.62698785 296.09686534 180.43586498 C296.11427734 194.60979282 296.14311182 208.78366808 296.18175471 222.95755392 C296.2051687 231.7023433 296.21915053 240.44704698 296.22108234 249.19186796 C296.22318945 255.18256865 296.23609954 261.17318402 296.25756167 267.16384643 C296.26960544 270.62167347 296.27673226 274.07933111 296.27084923 277.53717804 C296.26697347 281.28387842 296.28134842 285.03007451 296.30038452 288.77671814 C296.29485483 289.87223667 296.28932513 290.96775519 296.28362787 292.09647125 C296.2637324 299.17572527 296.2637324 299.17572527 299.69238281 305.20874023 C305.06411183 309.0911915 310.7223651 308.6235247 317.07861328 308.57763672 C318.21756042 308.5814032 319.35650757 308.58516968 320.52996826 308.58905029 C322.99842379 308.59547678 325.46690408 308.59515837 327.93535995 308.58886528 C331.84478019 308.57975191 335.75372114 308.5899827 339.66311646 308.60548401 C349.37288662 308.6415996 359.08264919 308.6479119 368.79248047 308.64538574 C376.99830548 308.64352223 385.20376883 308.6574297 393.4095192 308.69386482 C397.25616432 308.70468378 401.10231488 308.69256243 404.94894409 308.68003845 C407.31508878 308.68894433 409.68122944 308.69901923 412.04736328 308.71044922 C413.11256195 308.70070572 414.17776062 308.69096222 415.27523804 308.68092346 C421.53561997 308.74117061 426.57770713 309.37036229 431.69238281 313.20874023 C434.95216465 317.02681529 435.0710046 320.25893462 435.08056641 325.18286133 C435.08582336 325.86485092 435.09108032 326.54684052 435.09649658 327.24949646 C435.10965152 329.49395969 435.1009731 331.73770783 435.09082031 333.98217773 C435.09284282 335.55010107 435.09575574 337.11802348 435.09951782 338.6859436 C435.10393545 341.96934989 435.09753011 345.25251095 435.08349609 348.53588867 C435.06643261 352.73116856 435.07623061 356.92587142 435.09421349 361.12112999 C435.10509077 364.35892019 435.10158649 367.59657523 435.09383011 370.83436966 C435.09183751 372.38042902 435.09425413 373.92650089 435.10126877 375.47254562 C435.1089455 377.64063407 435.09719265 379.8078091 435.08056641 381.97583008 C435.07698624 383.82185318 435.07698624 383.82185318 435.07333374 385.70516968 C434.55903162 390.43515888 433.4542 394.54219438 429.91780126 397.88736022 C427.19194433 399.50588409 425.51895137 399.58462679 422.35994911 399.58626366 C421.27234909 399.5940869 420.18474906 399.60191014 419.06419146 399.60997045 C417.27268021 399.5999322 417.27268021 399.5999322 415.44497681 399.58969116 C414.17580772 399.59437113 412.90663863 399.59905111 411.59900987 399.6038729 C408.07366083 399.61641859 404.54855482 399.61019641 401.0232048 399.60091424 C397.2221536 399.59413849 393.42114477 399.60459773 389.62010193 399.612854 C382.17230131 399.6262101 374.72459126 399.62330505 367.27678706 399.61461608 C361.22381741 399.60784629 355.17087319 399.60691976 349.11790085 399.61018753 C347.82660628 399.61087708 347.82660628 399.61087708 346.50922494 399.61158056 C344.76047846 399.61253972 343.01173198 399.61351236 341.26298551 399.61449833 C324.85526274 399.62305798 308.44759021 399.61320962 292.03987567 399.59709723 C277.9595013 399.5836983 263.87920115 399.58601753 249.79882812 399.59985352 C233.45370015 399.6159074 217.10861626 399.62222893 200.7634815 399.61301672 C199.02048644 399.61206107 197.27749138 399.61111796 195.53449631 399.61018753 C194.67688224 399.6097247 193.81926817 399.60926188 192.93566579 399.60878503 C186.89057781 399.60619421 180.84551777 399.61056822 174.80043411 399.61762619 C167.43243152 399.62603947 160.06452482 399.62376489 152.69653322 399.60778396 C148.93681372 399.59989816 145.1772541 399.59681475 141.41753578 399.60673141 C137.34280329 399.61731637 133.26847467 399.60467956 129.1937561 399.58969116 C127.40893701 399.59972941 127.40893701 399.59972941 125.58806098 399.60997045 C115.5281929 399.53795392 115.5281929 399.53795392 110.69238281 396.20874023 C100.32432639 385.25299768 98.35201234 365.80538974 94.84643555 351.67602539 C94.08375812 348.61434878 93.30853051 345.55604785 92.53222656 342.49780273 C92.30607162 341.56851959 92.07991669 340.63923645 91.84690857 339.68179321 C90.29121702 333.57558051 88.71066426 327.77854918 83.73678589 323.54371643 C79.1518389 321.53320897 74.80149226 321.78301722 69.84692383 321.8046875 C68.75367798 321.79782425 67.66043213 321.790961 66.53405762 321.78388977 C62.92133587 321.7655931 59.30904719 321.76946352 55.69628906 321.77514648 C53.18431964 321.77058609 50.67235148 321.76528095 48.16038513 321.75926208 C42.89553893 321.75032535 37.6308051 321.75252677 32.3659668 321.76269531 C26.28838499 321.77417452 20.21124458 321.76010232 14.13372093 321.73329884 C8.27694433 321.70844024 2.42033907 321.70596892 -3.43647957 321.7124157 C-5.92396847 321.7125691 -8.4114658 321.70650882 -10.89892387 321.69412422 C-14.37720444 321.67924677 -17.8545135 321.68986873 -21.33276367 321.70703125 C-22.35997025 321.69736328 -23.38717682 321.68769531 -24.44551086 321.67773438 C-30.38214122 321.73907112 -33.77517041 322.2703615 -38.30761719 326.20874023 C-43.57246858 333.13950018 -45.36232458 342.5628761 -47.6161499 350.83926392 C-48.46841116 353.96525567 -49.3453034 357.08415939 -50.22119141 360.20359802 C-50.65385355 361.744785 -51.08550653 363.28625567 -51.51611328 364.82801819 C-53.16999567 370.74694846 -54.8691026 376.64893608 -56.68261719 382.52124023 C-56.896521 383.24110107 -57.1104248 383.96096191 -57.33081055 384.70263672 C-59.20145978 390.66957682 -61.8639026 395.87227 -67.30761719 399.20874023 C-70.64899802 400.32253384 -73.18206174 400.34924351 -76.70336914 400.36987305 C-77.34765869 400.37483795 -77.99194824 400.37980286 -78.65576172 400.38491821 C-80.7858182 400.39951447 -82.91580017 400.406338 -85.04589844 400.41186523 C-86.52939353 400.41761933 -88.0128886 400.42337703 -89.49638367 400.42913818 C-92.60753729 400.43964134 -95.71866513 400.4454883 -98.82983398 400.44897461 C-102.80774612 400.45445411 -106.78531506 400.47847306 -110.7631197 400.50694656 C-113.82841472 400.52561294 -116.89362779 400.53078069 -119.95897484 400.53231049 C-121.42493755 400.53532917 -122.89089909 400.54333116 -124.3568058 400.55649567 C-126.41269298 400.57363868 -128.46775109 400.57165635 -130.52368164 400.56518555 C-131.69155716 400.56883118 -132.85943268 400.57247681 -134.06269836 400.57623291 C-137.76291137 400.15717738 -140.16631717 399.19128882 -143.30761719 397.20874023 C-145.91950691 389.37307105 -144.00132797 381.80807974 -141.44921875 374.22387695 C-140.99148197 372.80567091 -140.99148197 372.80567091 -140.52449799 371.35881424 C-139.51329366 368.23885063 -138.48106804 365.12629412 -137.44824219 362.01342773 C-136.72254322 359.79112346 -135.99797789 357.56844871 -135.2744751 355.34542847 C-133.35870809 349.47471303 -131.423327 343.61067533 -129.48062134 337.74882507 C-128.33287515 334.28496787 -127.1883093 330.82007601 -126.04467773 327.3548584 C-121.13771581 312.49473757 -116.18638117 297.64962845 -111.22021484 282.8092041 C-109.27055145 276.98088969 -107.32437967 271.15140968 -105.37792969 265.32202148 C-102.37319901 256.32432875 -99.36673177 247.32721848 -96.35888672 238.33056641 C-92.93272299 228.08212831 -89.51227042 217.83180024 -86.09667969 207.57983398 C-82.43627012 196.59308373 -78.77216629 185.60757758 -75.10400391 174.62341309 C-72.97029302 168.23400766 -70.83779758 161.84419674 -68.70553589 155.45430756 C-67.16940616 150.85110441 -65.63270516 146.24809359 -64.09472656 141.64550781 C-53.65781912 110.40938047 -43.28467221 79.14960497 -33.34277344 47.75170898 C-32.58940786 45.38239251 -31.83568812 43.01318911 -31.08178711 40.64404297 C-30.59125665 39.09470713 -30.10450067 37.54417291 -29.62084961 35.99267578 C-20.96612035 8.28920695 -20.96612035 8.28920695 -11.30761719 1.20874023 C-7.51904864 -0.05411595 -3.94916622 0.02874558 0 0 Z "
        fill="#3F93F0" transform="translate(380.3076171875,307.791259765625)" />
    <path
        d="M0 0 C0.66 0 1.32 0 2 0 C3.04782844 2.62267119 4.08813771 5.24799176 5.125 7.875 C5.40859375 8.58269531 5.6921875 9.29039062 5.984375 10.01953125 C12.35818321 26.23117388 17.04794448 42.90423557 21.58666992 59.70288086 C22.55853583 63.29783646 23.53939299 66.8902479 24.52148438 70.48242188 C27.4524934 81.24387566 30.32452872 92.01858092 32.96484375 102.85546875 C33.17476456 103.7002327 33.38468536 104.54499664 33.60096741 105.4153595 C34.61509015 109.67102733 35.42466861 113.59503959 35 118 C34.34 118.99 33.68 119.98 33 121 C30.22937012 121.38095093 30.22937012 121.38095093 26.65429688 121.38818359 C26.00372818 121.39344055 25.35315948 121.39869751 24.68287659 121.40411377 C22.52792499 121.41734027 20.37370938 121.40856709 18.21875 121.3984375 C16.72424172 121.40045749 15.22973439 121.40336831 13.73522949 121.40713501 C10.60122301 121.41156193 7.46747282 121.40511577 4.33349609 121.39111328 C0.31138459 121.37402086 -3.71012642 121.38386013 -7.73221588 121.40183067 C-10.81883285 121.41265879 -13.90530688 121.40922672 -16.9919281 121.4014473 C-18.47513398 121.39944258 -19.95835273 121.40191407 -21.44154358 121.40888596 C-23.51281222 121.41648489 -25.58310141 121.40492001 -27.65429688 121.38818359 C-28.83407104 121.38579681 -30.01384521 121.38341003 -31.22937012 121.38095093 C-32.14367798 121.25523712 -33.05798584 121.12952332 -34 121 C-36.54756545 117.17865182 -36.3590084 115.56838195 -36 111 C-35.18001284 107.40133373 -34.0963578 103.89794756 -33 100.375 C-32.33997391 98.1973629 -31.68252402 96.0189437 -31.02734375 93.83984375 C-30.68687012 92.70788574 -30.34639648 91.57592773 -29.99560547 90.40966797 C-29.04707961 87.16123439 -28.16683525 83.90424116 -27.31640625 80.62890625 C-23.14642816 64.63706992 -18.1304735 49.01881703 -12.8125 33.375 C-12.4647049 32.34704315 -12.11690979 31.3190863 -11.75857544 30.25997925 C-4.53762189 8.97245413 -4.53762189 8.97245413 0 0 Z "
        fill="#030819" transform="translate(409,430)" />
    <path
        d="M0 0 C1.07191338 -0.00810448 1.07191338 -0.00810448 2.16548157 -0.01637268 C4.51171143 -0.02881142 6.85670252 -0.01240453 9.20288086 0.00561523 C10.84142623 0.00546015 12.47997197 0.00396959 14.11851501 0.00120544 C17.54564716 -0.00017631 20.97235965 0.01234292 24.39941406 0.03515625 C28.78656905 0.06356295 33.17302837 0.0607946 37.56023502 0.04806614 C40.94121721 0.04110358 44.32203928 0.04890441 47.70300102 0.06132317 C49.32048363 0.06583049 50.93798347 0.06618076 52.55546761 0.06225777 C54.81728351 0.05933922 57.07814823 0.07588107 59.33984375 0.09765625 C60.62524551 0.10305923 61.91064728 0.10846222 63.23500061 0.11402893 C66.83696504 0.5283663 68.71782051 1.35883259 71.60522461 3.50170898 C75.43873734 8.36125012 76.72828304 13.39110099 76.73550987 19.44650173 C76.73913422 20.44763357 76.74275857 21.4487654 76.74649274 22.48023456 C76.74542449 23.57798381 76.74435624 24.67573306 76.74325562 25.80674744 C76.74607689 26.97453328 76.74889817 28.14231913 76.75180495 29.34549242 C76.75870392 32.58766022 76.76117721 35.82979733 76.76185608 39.0719713 C76.76369625 42.56828669 76.77130331 46.0645897 76.77833557 49.56089783 C76.78986021 55.61987592 76.79810497 61.67885124 76.8044548 67.73783684 C76.81477959 77.31275645 76.83534219 86.88764136 76.85757446 96.46253967 C76.86505406 99.73797119 76.87246778 103.01340286 76.87986183 106.28883457 C76.8817124 107.10738656 76.88356296 107.92593855 76.88546961 108.76929514 C76.90639593 118.08659052 76.92522528 127.40388973 76.94311523 136.72119141 C76.94475342 137.57293367 76.9463916 138.42467594 76.94807942 139.30222858 C76.97437574 153.11109125 76.99301341 166.9199566 77.00970714 180.72883373 C77.02711914 194.90276157 77.05595361 209.07663683 77.09459651 223.25052267 C77.11801049 231.99531205 77.13199233 240.74001573 77.13392414 249.48483671 C77.13603124 255.4755374 77.14894134 261.46615277 77.17040347 267.45681518 C77.18244724 270.91464222 77.18957406 274.37229986 77.18369102 277.83014679 C77.17981526 281.57684717 77.19419022 285.32304326 77.21322632 289.06968689 C77.20769662 290.16520542 77.20216693 291.26072394 77.19646966 292.38944 C77.1765742 299.46869402 77.1765742 299.46869402 80.60522461 305.50170898 C85.97695363 309.38416025 91.6352069 308.91649345 97.99145508 308.87060547 C99.13040222 308.87437195 100.26934937 308.87813843 101.44281006 308.88201904 C103.91126559 308.88844553 106.37974588 308.88812712 108.84820175 308.88183403 C112.75762198 308.87272066 116.66656294 308.88295145 120.57595825 308.89845276 C130.28572842 308.93456835 139.99549099 308.94088065 149.70532227 308.93835449 C157.91114728 308.93649098 166.11661063 308.95039845 174.32236099 308.98683357 C178.16900612 308.99765253 182.01515667 308.98553118 185.86178589 308.9730072 C188.22793057 308.98191308 190.59407124 308.99198798 192.96020508 309.00341797 C194.55800308 308.98880272 194.55800308 308.98880272 196.18807983 308.97389221 C202.44846177 309.03413936 207.49054893 309.66333104 212.60522461 313.50170898 C215.86500645 317.31978404 215.9838464 320.55190337 215.9934082 325.47583008 C215.99866516 326.15781967 216.00392212 326.83980927 216.00933838 327.54246521 C216.02249332 329.78692844 216.0138149 332.03067658 216.00366211 334.27514648 C216.00568462 335.84306982 216.00859754 337.41099223 216.01235962 338.97891235 C216.01677725 342.26231864 216.01037191 345.5454797 215.99633789 348.82885742 C215.97927441 353.02413731 215.98907241 357.21884017 216.00705528 361.41409874 C216.01793257 364.65188894 216.01442829 367.88954398 216.00667191 371.12733841 C216.00467931 372.67339777 216.00709593 374.21946964 216.01411057 375.76551437 C216.02178729 377.93360282 216.01003445 380.10077785 215.9934082 382.26879883 C215.99102142 383.4994809 215.98863464 384.73016296 215.98617554 385.99813843 C215.47712063 390.67986949 214.29409867 394.62963321 211.09030914 398.18095589 C207.2091155 400.24370202 203.44751937 399.90746898 199.11813354 399.86920166 C198.14580249 399.8724705 197.17347143 399.87573934 196.1716758 399.87910724 C192.90441361 399.88640619 189.63759634 399.87221282 186.37036133 399.8581543 C184.03134586 399.85894494 181.69233052 399.86104149 179.35331726 399.86434937 C172.99145294 399.86949284 166.62974982 399.85592677 160.26791143 399.83882236 C154.28597654 399.82532301 148.30404645 399.82503668 142.3220997 399.82444581 C130.46169306 399.82275716 118.60134755 399.8069387 106.7409668 399.78295898 C95.24454237 399.75973211 83.74815669 399.74553865 72.25170898 399.74194336 C71.19092846 399.74160921 71.19092846 399.74160921 70.10871802 399.74126831 C68.68397404 399.74082569 67.25923006 399.74038367 65.83448607 399.73994224 C64.78013362 399.73961289 64.78013362 399.73961289 63.70448112 399.73927689 C63.00330335 399.7390609 62.30212557 399.73884491 61.57969999 399.73862238 C49.94898666 399.73468943 38.31828089 399.72199073 26.68757486 399.70893002 C22.72574672 399.70483743 18.76391895 399.70190842 14.80208969 399.69913483 C8.56573599 399.69422557 2.32941191 399.68399482 -3.90692711 399.66969681 C-6.19255874 399.66519012 -8.47819435 399.66233902 -10.76383018 399.66128922 C-13.89117696 399.65953113 -17.01845083 399.65161586 -20.14578247 399.64215088 C-21.49290209 399.6434506 -21.49290209 399.6434506 -22.86723626 399.64477658 C-28.76137586 399.61814022 -34.54110289 399.18669144 -40.39477539 398.50170898 C-40.39477539 398.17170898 -40.39477539 397.84170898 -40.39477539 397.50170898 C-31.35207599 396.59462784 -22.58838971 396.52280463 -13.51977539 397.00170898 C-6.62690162 397.35849871 -0.23008913 397.60366377 6.60522461 396.50170898 C10.14756793 396.35414119 13.68529345 396.36181432 17.23022461 396.37670898 C18.62241211 396.3709082 18.62241211 396.3709082 20.04272461 396.36499023 C20.94249023 396.3662793 21.84225586 396.36756836 22.76928711 396.36889648 C23.98285889 396.37058838 23.98285889 396.37058838 25.22094727 396.37231445 C27.60522461 396.50170898 27.60522461 396.50170898 29.72833252 397.00170898 C33.4972322 397.65673871 37.20768235 397.64097788 41.01977539 397.63110352 C41.85449371 397.63285583 42.68921204 397.63460815 43.54922485 397.63641357 C46.29968361 397.64080375 49.05007773 397.63790461 51.80053711 397.63452148 C53.71434542 397.63519521 55.62815365 397.63616581 57.54196167 397.63742065 C61.54824643 397.63889368 65.55450886 397.63675528 69.56079102 397.63208008 C74.70016818 397.62637532 79.83949322 397.62966902 84.97886848 397.63565254 C88.92846064 397.63926224 92.87804038 397.63811781 96.8276329 397.63552475 C98.72309246 397.63485701 100.61855314 397.63567857 102.51401138 397.6380043 C105.15919237 397.64053833 107.80428826 397.63667993 110.44946289 397.63110352 C111.23498535 397.63312775 112.02050781 397.63515198 112.82983398 397.63723755 C116.02187954 397.62474509 118.55420206 397.5187165 121.60522461 396.50170898 C122.59522461 396.83170898 123.58522461 397.16170898 124.60522461 397.50170898 C126.96261868 397.3895856 129.31737782 397.21559783 131.66772461 397.00170898 C138.38513727 396.39166532 138.38513727 396.39166532 140.60522461 397.50170898 C142.48214539 397.59875006 144.36251674 397.63247179 146.24194336 397.63452148 C147.37696289 397.63581055 148.51198242 397.63709961 149.68139648 397.63842773 C150.87313477 397.63456055 152.06487305 397.63069336 153.29272461 397.62670898 C154.46512695 397.63057617 155.6375293 397.63444336 156.84545898 397.63842773 C161.43228264 397.63324781 165.8339631 397.61839725 170.37475586 396.93139648 C173.82778485 396.47210605 176.64318711 396.7754758 180.07104492 397.22631836 C185.02663176 397.76484456 190.00028973 397.72738696 194.98022461 397.75170898 C196.05916992 397.77233398 197.13811523 397.79295898 198.24975586 397.81420898 C199.28229492 397.81936523 200.31483398 397.82452148 201.37866211 397.82983398 C202.77737549 397.84385254 202.77737549 397.84385254 204.2043457 397.8581543 C207.0468012 397.43615053 207.7562559 396.60865715 209.60522461 394.50170898 C210.26522461 394.50170898 210.92522461 394.50170898 211.60522461 394.50170898 C212.35436314 391.16620486 212.72492668 388.10254407 212.70288086 384.68652344 C212.69957764 383.75818192 212.69627441 382.82984039 212.69287109 381.87336731 C212.68042358 380.38422066 212.68042358 380.38422066 212.66772461 378.86499023 C212.66393799 377.83037155 212.66015137 376.79575287 212.65625 375.7297821 C212.63996281 371.3162241 212.61193863 366.90275981 212.5847168 362.48925781 C212.56650816 359.26033974 212.55448791 356.03143724 212.54272461 352.80249023 C212.5302771 351.32852531 212.5302771 351.32852531 212.51757812 349.82478333 C212.49846113 344.36090636 212.75216766 339.02700472 213.3757019 333.59747314 C213.65590491 331.03894883 213.73848455 328.51217994 213.73022461 325.93920898 C213.73280273 325.11291992 213.73538086 324.28663086 213.73803711 323.43530273 C213.81748614 321.4949739 213.81748614 321.4949739 212.60522461 320.50170898 C212.56458629 318.83553783 212.56250361 317.16782804 212.60522461 315.50170898 C203.63449347 311.60566152 193.18844836 310.42139634 183.5375824 312.00511169 C179.13777371 312.56074096 174.88453527 312.63451151 170.45703125 312.61523438 C169.56843414 312.6153804 168.67983704 312.61552643 167.76431274 312.61567688 C164.84797667 312.61498417 161.93170568 312.60722196 159.01538086 312.59936523 C156.98514338 312.59749878 154.95490545 312.59607595 152.92466736 312.59507751 C147.59657535 312.59127029 142.26851087 312.5814554 136.94042969 312.57037354 C131.49731824 312.56012075 126.05420232 312.55557162 120.61108398 312.55053711 C109.94245214 312.53983146 99.27384067 312.52277668 88.60522461 312.50170898 C88.60522461 311.84170898 88.60522461 311.18170898 88.60522461 310.50170898 C87.61522461 310.83170898 86.62522461 311.16170898 85.60522461 311.50170898 C81.13321143 309.07126704 76.82743784 306.18374052 74.60522461 301.50170898 C73.9575378 296.5939438 74.09024142 291.75465015 74.23022461 286.81420898 C74.24675183 285.46983323 74.2610947 284.12542876 74.27319336 282.78100586 C74.42109357 273.05410211 74.42109357 273.05410211 75.60522461 269.50170898 C74.94522461 269.50170898 74.28522461 269.50170898 73.60522461 269.50170898 C73.63482206 268.88969729 73.66441952 268.2776856 73.69491386 267.64712811 C74.83777108 242.83898491 74.7533239 218.03158913 74.73955011 193.20274758 C74.7369852 187.12061282 74.73937458 181.03847944 74.74093628 174.9563446 C74.74274233 164.78078942 74.74038918 154.60524156 74.7355957 144.4296875 C74.73011641 132.66222504 74.73194834 120.8947798 74.73742211 109.12731773 C74.74195101 98.98410911 74.74260608 88.84090569 74.73998344 78.69769639 C74.7384245 72.65508788 74.73821726 66.61248751 74.74151993 60.56987953 C74.74439669 54.915156 74.74242665 49.26045496 74.73662567 43.60573387 C74.73529872 41.52796338 74.7356911 39.45019101 74.73788834 37.37242126 C74.74060134 34.54796291 74.73721732 31.72357777 74.73220825 28.89912415 C74.73443897 28.06872268 74.7366697 27.23832121 74.73896801 26.38275605 C74.82419823 22.31083768 74.82419823 22.31083768 73.60522461 18.50170898 C73.24325908 16.69470917 72.9140623 14.88104322 72.60522461 13.06420898 C72.09636374 10.07862688 71.56449528 7.37952099 70.60522461 4.50170898 C68.62522461 4.17170898 66.64522461 3.84170898 64.60522461 3.50170898 C64.60522461 2.84170898 64.60522461 2.18170898 64.60522461 1.50170898 C63.61522461 1.83170898 62.62522461 2.16170898 61.60522461 2.50170898 C59.70480368 2.58043483 57.80164825 2.59870526 55.8996582 2.58349609 C54.7276889 2.57696518 53.5557196 2.57043427 52.34823608 2.56370544 C51.07952667 2.55227005 49.81081726 2.54083466 48.50366211 2.52905273 C46.5075218 2.51964141 44.51138135 2.51024226 42.51523781 2.50154209 C37.59481159 2.47864118 32.67446951 2.44522571 27.75415039 2.40576172 C24.995819 2.38404434 22.2375532 2.3678346 19.47915649 2.35731506 C16.88468703 2.34702832 14.29023337 2.32855515 11.69589233 2.30076599 C3.66645652 2.27798499 -4.28323799 2.34366526 -11.39477539 6.50170898 C-14.67339234 12.71382531 -14.43136143 19.25316591 -14.36352539 26.08764648 C-14.39719023 29.76553056 -14.62584235 33.39626118 -14.89477539 37.06420898 C-16.2753725 47.50537906 -16.2753725 47.50537906 -14.39477539 57.50170898 C-14.29587093 60.04616625 -14.25493869 62.5625817 -14.26196289 65.10717773 C-14.2605278 66.24332268 -14.2605278 66.24332268 -14.25906372 67.40242004 C-14.25838245 69.00884077 -14.26023304 70.61526424 -14.2644043 72.22167969 C-14.26971637 74.66209239 -14.26447681 77.10231793 -14.25805664 79.54272461 C-14.25871816 81.10587605 -14.26000083 82.66902738 -14.26196289 84.23217773 C-14.25993866 84.9553569 -14.25791443 85.67853607 -14.25582886 86.42362976 C-14.27604759 90.87346293 -14.74472052 95.10609988 -15.39477539 99.50170898 C-15.43226711 101.80687613 -15.43226711 101.80687613 -15.23852539 103.91186523 C-15.18567383 104.6743457 -15.13282227 105.43682617 -15.07836914 106.22241211 C-15.0177832 106.99520508 -14.95719727 107.76799805 -14.89477539 108.56420898 C-14.48745803 113.78567084 -14.41472497 118.31816108 -15.39477539 123.50170898 C-15.08646614 125.50571909 -14.75748127 127.50682664 -14.39477539 129.50170898 C-14.72477539 130.16170898 -15.05477539 130.82170898 -15.39477539 131.50170898 C-15.3045582 132.94164194 -15.14835722 134.37752014 -14.96536255 135.80862427 C-14.03517652 145.04417014 -14.25545872 154.31925329 -14.26538086 163.59106445 C-14.26402423 165.72247853 -14.26224282 167.85389238 -14.2600708 169.98530579 C-14.25552931 175.74720893 -14.25727204 181.50909408 -14.26044989 187.27099752 C-14.26298851 193.30779155 -14.26063195 199.34458408 -14.25906372 205.38137817 C-14.25724725 215.51068396 -14.25963551 225.63998244 -14.2644043 235.76928711 C-14.26985473 247.48178277 -14.2680765 259.19426104 -14.26257789 270.90675628 C-14.2580424 280.97066868 -14.25739809 291.03457584 -14.26001656 301.09848893 C-14.26157579 307.10624929 -14.26178258 313.11400148 -14.25848007 319.12176132 C-14.25559474 324.76394403 -14.25758928 330.40610425 -14.26337433 336.04828453 C-14.26469798 338.11994197 -14.26431448 340.19160129 -14.26211166 342.26325798 C-14.25938495 345.08763019 -14.26279993 347.91193002 -14.26779175 350.73629761 C-14.26556103 351.55856586 -14.2633303 352.38083412 -14.26103199 353.2280196 C-14.27441375 357.1232121 -14.51848654 360.70752407 -15.39477539 364.50170898 C-15.42291803 367.56121623 -15.33102138 370.60398606 -15.23461914 373.66186523 C-15.395835 376.52049763 -15.91762803 378.08613859 -17.39477539 380.50170898 C-18.71477539 380.50170898 -20.03477539 380.50170898 -21.39477539 380.50170898 C-22.9471161 376.91192109 -23.39477539 374.39668218 -23.39477539 370.50170898 C-22.73477539 370.50170898 -22.07477539 370.50170898 -21.39477539 370.50170898 C-20.73477539 373.14170898 -20.07477539 375.78170898 -19.39477539 378.50170898 C-18.73477539 378.50170898 -18.07477539 378.50170898 -17.39477539 378.50170898 C-17.39629427 377.73279754 -17.39781315 376.9638861 -17.39937806 376.17167431 C-17.48888463 330.60272588 -17.55751873 285.03378701 -17.59903671 239.46476829 C-17.60403955 233.99360189 -17.60921684 228.52243567 -17.61450195 223.05126953 C-17.61555119 221.96205593 -17.61660044 220.87284234 -17.61768147 219.75062227 C-17.6350881 202.11275723 -17.66662723 184.47494433 -17.70338657 166.83711023 C-17.74078879 148.73992143 -17.76300973 130.64275994 -17.77112937 112.54553407 C-17.77661862 101.3779989 -17.79395786 90.21061109 -17.82644126 79.04312127 C-17.84758024 71.38581366 -17.85397682 63.72858226 -17.8487809 56.07124759 C-17.84621818 51.65292516 -17.85015488 47.2348603 -17.87159729 42.81658363 C-17.89109658 38.76910105 -17.89202365 34.72204866 -17.87837097 30.67454606 C-17.87668419 29.21274493 -17.88172993 27.7509167 -17.89430812 26.28916872 C-17.95840346 18.37848364 -17.92013758 11.27062451 -13.39477539 4.50170898 C-9.05794013 0.56417884 -5.76438831 0.00074472 0 0 Z "
        fill="#706AF9" transform="translate(599.394775390625,307.498291015625)" />
    <path
        d="M0 0 C1.27126236 -0.01467567 1.27126236 -0.01467567 2.56820679 -0.02964783 C5.37520786 -0.05958139 8.18216135 -0.08098177 10.98925781 -0.09985352 C11.94863503 -0.10642534 12.90801224 -0.11299717 13.89646149 -0.11976814 C18.97490464 -0.15235309 24.05332689 -0.17680588 29.13183594 -0.19628906 C33.33201651 -0.21410091 37.53152557 -0.24892049 41.73144531 -0.29882812 C46.80540463 -0.35904984 51.87874139 -0.38976742 56.95304108 -0.39946175 C58.8843434 -0.40801415 60.81562919 -0.42682701 62.74672699 -0.45620537 C65.45428211 -0.49517772 68.15941781 -0.49614757 70.8671875 -0.48828125 C71.66017242 -0.50828186 72.45315735 -0.52828247 73.27017212 -0.54888916 C78.58450546 -0.47981266 81.45193953 0.87152944 85.27360344 4.57920361 C87.12427631 6.70479078 88.3183949 8.73928421 89.39428711 11.34399414 C89.78909271 12.29880676 90.18389832 13.25361938 90.59066772 14.23736572 C92.40196753 19.12252172 93.98328084 24.04956481 95.46191406 29.04467773 C95.78778 30.12705719 96.11364594 31.20943665 96.4493866 32.32461548 C97.12948404 34.59067949 97.80573886 36.85790007 98.47827148 39.1262207 C99.5092804 42.59855084 100.55604337 46.06585986 101.60449219 49.53295898 C102.26623924 51.74491764 102.92707906 53.95714796 103.58691406 56.16967773 C104.05554619 57.71974014 104.05554619 57.71974014 104.53364563 59.30111694 C104.81781845 60.26627228 105.10199127 61.23142761 105.39477539 62.22583008 C105.64616776 63.0697934 105.89756012 63.91375671 106.15657043 64.78329468 C106.71935162 67.33081911 106.78875004 69.60818483 106.69238281 72.20874023 C104.69238281 69.20874023 104.69238281 69.20874023 104.69238281 66.20874023 C104.03238281 65.87874023 103.37238281 65.54874023 102.69238281 65.20874023 C100.87580737 60.78083759 100.08268554 56.21546422 99.20019531 51.53686523 C98.73228774 49.08421748 98.73228774 49.08421748 97.56738281 46.39624023 C96.5575739 43.87171795 96.5384195 41.90309829 96.69238281 39.20874023 C96.03238281 39.20874023 95.37238281 39.20874023 94.69238281 39.20874023 C94.69238281 38.54874023 94.69238281 37.88874023 94.69238281 37.20874023 C94.03238281 37.20874023 93.37238281 37.20874023 92.69238281 37.20874023 C92.89347656 36.48041992 93.09457031 35.75209961 93.30175781 35.00170898 C93.75162149 31.78518366 93.27501133 30.44240058 91.94238281 27.52124023 C90.02977186 23.12883027 88.63056348 18.76976265 87.40332031 14.14233398 C86.87088427 12.01251052 86.87088427 12.01251052 84.69238281 11.20874023 C84.46550781 10.25999023 84.23863281 9.31124023 84.00488281 8.33374023 C82.94310075 4.96451727 82.94310075 4.96451727 79.69238281 3.33374023 C75.21037869 1.73909035 70.38426081 1.54827478 65.69238281 2.20874023 C65.03238281 2.86874023 64.37238281 3.52874023 63.69238281 4.20874023 C62.06738281 3.89624023 62.06738281 3.89624023 59.69238281 3.20874023 C53.92424935 2.196787 48.92193817 2.33116496 43.11035156 3.05249023 C40.69238281 3.20874023 40.69238281 3.20874023 37.69238281 2.20874023 C31.61740624 1.91534648 25.55067112 2.05260817 19.50488281 2.70874023 C13.60006618 3.33858734 7.72694333 3.26350052 1.79711914 3.17163086 C-1.51037415 3.13448808 -4.14488581 3.15449644 -7.30761719 4.20874023 C-8.11199219 4.31186523 -8.91636719 4.41499023 -9.74511719 4.52124023 C-13.04225054 5.40583699 -14.10992738 6.60327595 -16.30761719 9.20874023 C-17.75804527 12.34010397 -17.75804527 12.34010397 -18.87011719 15.83374023 C-19.29164063 17.07510742 -19.71316406 18.31647461 -20.14746094 19.59545898 C-21.36652717 23.39221409 -22.51454328 27.20305854 -23.62402344 31.03295898 C-24.62120003 34.20682961 -25.96215762 37.16683165 -27.30761719 40.20874023 C-28.50456319 43.40059625 -29.2984248 46.12754078 -29.68261719 49.52124023 C-30.33045003 53.34345399 -31.54436358 56.06320448 -33.19433594 59.52514648 C-35.0505771 63.99966466 -36.16708068 68.68170649 -37.37792969 73.36499023 C-37.838125 74.77264648 -37.838125 74.77264648 -38.30761719 76.20874023 C-39.29761719 76.70374023 -39.29761719 76.70374023 -40.30761719 77.20874023 C-40.26894531 77.93061523 -40.23027344 78.65249023 -40.19042969 79.39624023 C-40.31711487 82.43668464 -40.99024467 84.42363655 -42.18261719 87.20874023 C-42.53066406 88.03374023 -42.87871094 88.85874023 -43.23730469 89.70874023 C-43.59050781 90.53374023 -43.94371094 91.35874023 -44.30761719 92.20874023 C-44.97826918 93.87380724 -45.64609135 95.54002642 -46.30761719 97.20874023 C-45.64761719 97.53874023 -44.98761719 97.86874023 -44.30761719 98.20874023 C-45.29761719 98.70374023 -45.29761719 98.70374023 -46.30761719 99.20874023 C-47.39233961 101.92938914 -48.37644403 104.62346473 -49.30761719 107.39624023 C-49.56800781 108.15227539 -49.82839844 108.90831055 -50.09667969 109.68725586 C-50.84231342 111.85825509 -51.57621399 114.03291281 -52.30761719 116.20874023 C-52.66984375 117.26963867 -53.03207031 118.33053711 -53.40527344 119.42358398 C-54.28102526 122.12666213 -55.03145069 124.8339066 -55.74511719 127.58374023 C-56.81752128 131.57157453 -58.05235339 135.40010674 -59.55371094 139.24389648 C-61.34977354 143.92482649 -62.87868046 148.69495103 -64.24511719 153.51733398 C-65.32812514 157.27999029 -66.51275028 160.99244376 -67.74511719 164.70874023 C-68.15632813 165.95655273 -68.56753906 167.20436523 -68.99121094 168.48999023 C-69.85778992 170.93801158 -70.8074273 173.35843066 -71.84277344 175.73999023 C-73.30378011 179.19965403 -74.32731931 182.58642003 -75.30761719 186.20874023 C-77.7058918 194.33389301 -80.18325726 202.39261779 -83.51074219 210.19311523 C-84.29928642 212.1876683 -84.79167158 214.12932308 -85.30761719 216.20874023 C-86.29402072 219.00355024 -87.33282725 221.77621423 -88.37011719 224.55249023 C-89.15449066 226.77488173 -89.76134676 228.9215104 -90.30761719 231.20874023 C-91.99557418 237.05166828 -93.79254864 242.84446791 -95.87011719 248.56030273 C-96.13864502 249.30062744 -96.40717285 250.04095215 -96.68383789 250.80371094 C-97.21119247 252.24516794 -97.74580113 253.68399893 -98.28881836 255.11962891 C-99.55710608 258.58314125 -100.44843215 261.72723051 -100.79589844 265.40795898 C-101.32331426 269.32532991 -102.20285289 270.96052226 -104.30761719 274.20874023 C-105.43111882 276.87416099 -106.36823946 279.59879695 -107.30761719 282.33374023 C-107.57106934 283.0878418 -107.83452148 283.84194336 -108.10595703 284.61889648 C-109.83015541 289.62153035 -111.27788676 294.64827659 -112.58886719 299.77514648 C-113.56589697 303.0832419 -114.944256 306.13355327 -116.44042969 309.23608398 C-118.24220248 313.33471129 -118.84568453 317.81308093 -119.70996094 322.18530273 C-120.30761719 324.20874023 -120.30761719 324.20874023 -122.30761719 326.20874023 C-123.1716345 328.49685233 -123.1716345 328.49685233 -123.87011719 331.08374023 C-124.11890625 331.94741211 -124.36769531 332.81108398 -124.62402344 333.70092773 C-125.02102283 335.15734837 -125.40378585 336.61809533 -125.74902344 338.08764648 C-126.56949475 341.20314243 -127.64224351 344.22263009 -128.68261719 347.27124023 C-131.03409852 354.23152317 -133.1282762 361.23227864 -134.82324219 368.38452148 C-135.30761719 370.20874023 -135.30761719 370.20874023 -136.30761719 372.20874023 C-136.96761719 372.20874023 -137.62761719 372.20874023 -138.30761719 372.20874023 C-138.45199219 373.38436523 -138.59636719 374.55999023 -138.74511719 375.77124023 C-139.07226057 378.43044857 -139.4447488 381.0620036 -139.87011719 383.70874023 C-140.36286317 387.65070807 -140.50947611 391.23884804 -140.30761719 395.20874023 C-139.64761719 395.86874023 -138.98761719 396.52874023 -138.30761719 397.20874023 C-135.46775854 397.1916178 -135.46775854 397.1916178 -132.30761719 396.77124023 C-126.5072258 396.10893593 -126.5072258 396.10893593 -124.30761719 397.20874023 C-121.31962841 397.11295156 -118.3528497 396.95776166 -115.37011719 396.77124023 C-104.72057924 396.18429399 -94.09440159 396.12013725 -83.43261719 396.14624023 C-82.63429474 396.14810333 -81.83597229 396.14996643 -81.01345825 396.15188599 C-76.44479989 396.16404527 -71.87622073 396.18342402 -67.30761719 396.20874023 C-66.97761719 395.21874023 -66.64761719 394.22874023 -66.30761719 393.20874023 C-65.31761719 393.20874023 -64.32761719 393.20874023 -63.30761719 393.20874023 C-63.17484375 392.63897461 -63.04207031 392.06920898 -62.90527344 391.48217773 C-62.3067236 389.20534111 -61.54841111 387.04570902 -60.74511719 384.83374023 C-59.74482334 381.92336146 -59.30886313 380.14519701 -59.37011719 377.02124023 C-59.2846032 373.17311078 -57.42560291 371.38571882 -55.30761719 368.20874023 C-54.63529218 365.9703899 -54.17872239 363.75061867 -53.74511719 361.45483398 C-53.33729492 359.36110362 -52.80337823 357.37276784 -52.18261719 355.33374023 C-51.17280222 352.26812302 -51.17280222 352.26812302 -51.30761719 349.20874023 C-50.64761719 349.20874023 -49.98761719 349.20874023 -49.30761719 349.20874023 C-49.36949219 348.15686523 -49.43136719 347.10499023 -49.49511719 346.02124023 C-49.29448693 341.94175827 -48.49369575 340.53157965 -46.30761719 337.20874023 C-45.9574667 335.54552542 -45.62564662 333.87839474 -45.30761719 332.20874023 C-43.99511719 328.45874023 -43.99511719 328.45874023 -42.30761719 325.20874023 C-40.12011719 324.27124023 -40.12011719 324.27124023 -38.30761719 324.20874023 C-38.30761719 323.54874023 -38.30761719 322.88874023 -38.30761719 322.20874023 C-36.03484969 320.71349846 -33.73962289 319.42474309 -31.30761719 318.20874023 C-30.64761719 318.53874023 -29.98761719 318.86874023 -29.30761719 319.20874023 C-28.97761719 318.54874023 -28.64761719 317.88874023 -28.30761719 317.20874023 C-28.30761719 317.86874023 -28.30761719 318.52874023 -28.30761719 319.20874023 C6.01238281 319.20874023 40.33238281 319.20874023 75.69238281 319.20874023 C75.69238281 319.53874023 75.69238281 319.86874023 75.69238281 320.20874023 C74.53108353 320.2190477 73.36978424 320.22935516 72.17329407 320.23997498 C61.18433553 320.33808688 50.19542886 320.44085344 39.20655537 320.54807949 C33.55821344 320.60304732 27.90986615 320.65642284 22.26147461 320.70605469 C16.80196737 320.75408716 11.3425165 320.80643905 5.88307762 320.86168098 C3.80889493 320.88192992 1.73469689 320.9006696 -0.33951378 320.91781425 C-18.42865788 320.18572912 -18.42865788 320.18572912 -35.80761719 323.64624023 C-42.88107066 330.89653005 -45.02655385 341.32987516 -47.6161499 350.83926392 C-48.46841116 353.96525567 -49.3453034 357.08415939 -50.22119141 360.20359802 C-50.65385355 361.744785 -51.08550653 363.28625567 -51.51611328 364.82801819 C-53.16999567 370.74694846 -54.8691026 376.64893608 -56.68261719 382.52124023 C-56.896521 383.24110107 -57.1104248 383.96096191 -57.33081055 384.70263672 C-59.20145978 390.66957682 -61.8639026 395.87227 -67.30761719 399.20874023 C-70.64899802 400.32253384 -73.18206174 400.34924351 -76.70336914 400.36987305 C-77.34765869 400.37483795 -77.99194824 400.37980286 -78.65576172 400.38491821 C-80.7858182 400.39951447 -82.91580017 400.406338 -85.04589844 400.41186523 C-86.52939353 400.41761933 -88.0128886 400.42337703 -89.49638367 400.42913818 C-92.60753729 400.43964134 -95.71866513 400.4454883 -98.82983398 400.44897461 C-102.80774612 400.45445411 -106.78531506 400.47847306 -110.7631197 400.50694656 C-113.82841472 400.52561294 -116.89362779 400.53078069 -119.95897484 400.53231049 C-121.42493755 400.53532917 -122.89089909 400.54333116 -124.3568058 400.55649567 C-126.41269298 400.57363868 -128.46775109 400.57165635 -130.52368164 400.56518555 C-131.69155716 400.56883118 -132.85943268 400.57247681 -134.06269836 400.57623291 C-137.76291137 400.15717738 -140.16631717 399.19128882 -143.30761719 397.20874023 C-145.91950691 389.37307105 -144.00132797 381.80807974 -141.44921875 374.22387695 C-140.99148197 372.80567091 -140.99148197 372.80567091 -140.52449799 371.35881424 C-139.51329366 368.23885063 -138.48106804 365.12629412 -137.44824219 362.01342773 C-136.72254322 359.79112346 -135.99797789 357.56844871 -135.2744751 355.34542847 C-133.35870809 349.47471303 -131.423327 343.61067533 -129.48062134 337.74882507 C-128.33287515 334.28496787 -127.1883093 330.82007601 -126.04467773 327.3548584 C-121.13771581 312.49473757 -116.18638117 297.64962845 -111.22021484 282.8092041 C-109.27055145 276.98088969 -107.32437967 271.15140968 -105.37792969 265.32202148 C-102.37319901 256.32432875 -99.36673177 247.32721848 -96.35888672 238.33056641 C-92.93272299 228.08212831 -89.51227042 217.83180024 -86.09667969 207.57983398 C-82.43627012 196.59308373 -78.77216629 185.60757758 -75.10400391 174.62341309 C-72.97029302 168.23400766 -70.83779758 161.84419674 -68.70553589 155.45430756 C-67.16940616 150.85110441 -65.63270516 146.24809359 -64.09472656 141.64550781 C-53.65781912 110.40938047 -43.28467221 79.14960497 -33.34277344 47.75170898 C-32.58940786 45.38239251 -31.83568812 43.01318911 -31.08178711 40.64404297 C-30.59125665 39.09470713 -30.10450067 37.54417291 -29.62084961 35.99267578 C-20.96612035 8.28920695 -20.96612035 8.28920695 -11.30761719 1.20874023 C-7.51904864 -0.05411595 -3.94916622 0.02874558 0 0 Z "
        fill="#1EDAF1" transform="translate(380.3076171875,307.791259765625)" />
    <path
        d="M0 0 C1.27126236 -0.01467567 1.27126236 -0.01467567 2.56820679 -0.02964783 C5.37520786 -0.05958139 8.18216135 -0.08098177 10.98925781 -0.09985352 C12.42832363 -0.10971126 12.42832363 -0.10971126 13.89646149 -0.11976814 C18.97490464 -0.15235309 24.05332689 -0.17680588 29.13183594 -0.19628906 C33.33201651 -0.21410091 37.53152557 -0.24892049 41.73144531 -0.29882812 C46.80540463 -0.35904984 51.87874139 -0.38976742 56.95304108 -0.39946175 C58.8843434 -0.40801415 60.81562919 -0.42682701 62.74672699 -0.45620537 C65.45428211 -0.49517772 68.15941781 -0.49614757 70.8671875 -0.48828125 C71.66017242 -0.50828186 72.45315735 -0.52828247 73.27017212 -0.54888916 C78.58450546 -0.47981266 81.45193953 0.87152944 85.27360344 4.57920361 C87.12427631 6.70479078 88.3183949 8.73928421 89.39428711 11.34399414 C89.78909271 12.29880676 90.18389832 13.25361938 90.59066772 14.23736572 C92.40196753 19.12252172 93.98328084 24.04956481 95.46191406 29.04467773 C95.78778 30.12705719 96.11364594 31.20943665 96.4493866 32.32461548 C97.12948404 34.59067949 97.80573886 36.85790007 98.47827148 39.1262207 C99.5092804 42.59855084 100.55604337 46.06585986 101.60449219 49.53295898 C102.26623924 51.74491764 102.92707906 53.95714796 103.58691406 56.16967773 C104.05554619 57.71974014 104.05554619 57.71974014 104.53364563 59.30111694 C104.81781845 60.26627228 105.10199127 61.23142761 105.39477539 62.22583008 C105.64616776 63.0697934 105.89756012 63.91375671 106.15657043 64.78329468 C106.71935162 67.33081911 106.78875004 69.60818483 106.69238281 72.20874023 C104.69238281 69.20874023 104.69238281 69.20874023 104.69238281 66.20874023 C104.03238281 65.87874023 103.37238281 65.54874023 102.69238281 65.20874023 C100.87580737 60.78083759 100.08268554 56.21546422 99.20019531 51.53686523 C98.73228774 49.08421748 98.73228774 49.08421748 97.56738281 46.39624023 C96.5575739 43.87171795 96.5384195 41.90309829 96.69238281 39.20874023 C96.03238281 39.20874023 95.37238281 39.20874023 94.69238281 39.20874023 C94.69238281 38.54874023 94.69238281 37.88874023 94.69238281 37.20874023 C94.03238281 37.20874023 93.37238281 37.20874023 92.69238281 37.20874023 C92.89347656 36.48041992 93.09457031 35.75209961 93.30175781 35.00170898 C93.75162149 31.78518366 93.27501133 30.44240058 91.94238281 27.52124023 C90.02977186 23.12883027 88.63056348 18.76976265 87.40332031 14.14233398 C86.87088427 12.01251052 86.87088427 12.01251052 84.69238281 11.20874023 C84.46550781 10.25999023 84.23863281 9.31124023 84.00488281 8.33374023 C82.94310075 4.96451727 82.94310075 4.96451727 79.69238281 3.33374023 C75.21037869 1.73909035 70.38426081 1.54827478 65.69238281 2.20874023 C65.03238281 2.86874023 64.37238281 3.52874023 63.69238281 4.20874023 C62.06738281 3.89624023 62.06738281 3.89624023 59.69238281 3.20874023 C53.92424935 2.196787 48.92193817 2.33116496 43.11035156 3.05249023 C40.69238281 3.20874023 40.69238281 3.20874023 37.69238281 2.20874023 C31.61740624 1.91534648 25.55067112 2.05260817 19.50488281 2.70874023 C13.60006618 3.33858734 7.72694333 3.26350052 1.79711914 3.17163086 C-1.51037415 3.13448808 -4.14488581 3.15449644 -7.30761719 4.20874023 C-8.11199219 4.31186523 -8.91636719 4.41499023 -9.74511719 4.52124023 C-13.04225054 5.40583699 -14.10992738 6.60327595 -16.30761719 9.20874023 C-17.75804527 12.34010397 -17.75804527 12.34010397 -18.87011719 15.83374023 C-19.29164063 17.07510742 -19.71316406 18.31647461 -20.14746094 19.59545898 C-21.36652717 23.39221409 -22.51454328 27.20305854 -23.62402344 31.03295898 C-24.62120003 34.20682961 -25.96215762 37.16683165 -27.30761719 40.20874023 C-28.50456319 43.40059625 -29.2984248 46.12754078 -29.68261719 49.52124023 C-30.33045003 53.34345399 -31.54436358 56.06320448 -33.19433594 59.52514648 C-35.0505771 63.99966466 -36.16708068 68.68170649 -37.37792969 73.36499023 C-37.68472656 74.30342773 -37.99152344 75.24186523 -38.30761719 76.20874023 C-39.29761719 76.70374023 -39.29761719 76.70374023 -40.30761719 77.20874023 C-40.24960937 78.29155273 -40.24960937 78.29155273 -40.19042969 79.39624023 C-40.31711487 82.43668464 -40.99024467 84.42363655 -42.18261719 87.20874023 C-42.53066406 88.03374023 -42.87871094 88.85874023 -43.23730469 89.70874023 C-43.59050781 90.53374023 -43.94371094 91.35874023 -44.30761719 92.20874023 C-44.97826918 93.87380724 -45.64609135 95.54002642 -46.30761719 97.20874023 C-45.31761719 97.70374023 -45.31761719 97.70374023 -44.30761719 98.20874023 C-45.29761719 98.70374023 -45.29761719 98.70374023 -46.30761719 99.20874023 C-47.39233961 101.92938914 -48.37644403 104.62346473 -49.30761719 107.39624023 C-49.56800781 108.15227539 -49.82839844 108.90831055 -50.09667969 109.68725586 C-50.84231342 111.85825509 -51.57621399 114.03291281 -52.30761719 116.20874023 C-52.66984375 117.26963867 -53.03207031 118.33053711 -53.40527344 119.42358398 C-54.28102526 122.12666213 -55.03145069 124.8339066 -55.74511719 127.58374023 C-56.81752128 131.57157453 -58.05235339 135.40010674 -59.55371094 139.24389648 C-61.34977354 143.92482649 -62.87868046 148.69495103 -64.24511719 153.51733398 C-65.32812514 157.27999029 -66.51275028 160.99244376 -67.74511719 164.70874023 C-68.15632813 165.95655273 -68.56753906 167.20436523 -68.99121094 168.48999023 C-69.89761477 171.05051383 -70.83026574 173.49588692 -71.90917969 175.97827148 C-73.37092331 179.35498092 -74.31983104 182.66433112 -75.30761719 186.20874023 C-76.61228023 190.21843822 -77.9565193 194.21447512 -79.30761719 198.20874023 C-79.96761719 198.20874023 -80.62761719 198.20874023 -81.30761719 198.20874023 C-82.29761719 200.18874023 -82.29761719 200.18874023 -83.30761719 202.20874023 C-82.07900136 196.19623326 -80.51768924 190.41745117 -78.54882812 184.60766602 C-78.27841705 183.79760101 -78.00800598 182.98753601 -77.72940063 182.15292358 C-76.83777876 179.48521314 -75.93984234 176.81967272 -75.04199219 174.15405273 C-74.40533635 172.25225486 -73.76913592 170.35030449 -73.13336182 168.44821167 C-71.45260252 163.42303284 -69.76674376 158.3995809 -68.07946777 153.37658691 C-65.10279314 144.51270343 -62.13433288 135.64606451 -59.16699219 126.77905273 C-58.8408449 125.80478773 -58.51469761 124.83052273 -58.17866707 123.82673454 C-49.71378522 98.53010913 -41.39755625 73.18214696 -33.34277344 47.75170898 C-32.5893844 45.38239999 -31.83568812 43.0131891 -31.08178711 40.64404297 C-30.59125665 39.09470713 -30.10450067 37.54417291 -29.62084961 35.99267578 C-20.96612035 8.28920695 -20.96612035 8.28920695 -11.30761719 1.20874023 C-7.51904864 -0.05411595 -3.94916622 0.02874558 0 0 Z "
        fill="#25DEF4" transform="translate(380.3076171875,307.791259765625)" />
    <path
        d="M0 0 C0.94875 0.350625 1.8975 0.70125 2.875 1.0625 C3.3911894 3.643447 3.89888403 6.21262816 4.3125 8.8125 C4.498125 9.555 4.68375 10.2975 4.875 11.0625 C5.535 11.3925 6.195 11.7225 6.875 12.0625 C6.875 14.72916667 6.875 17.39583333 6.875 20.0625 C8.195 20.3925 9.515 20.7225 10.875 21.0625 C10.83375 21.743125 10.7925 22.42375 10.75 23.125 C10.90270993 26.71368331 11.78976659 29.63544713 12.875 33.0625 C13.11605469 33.84753906 13.35710937 34.63257813 13.60546875 35.44140625 C14.98262581 40.18278604 14.98262581 40.18278604 17.875 44.0625 C17.875 45.0525 17.875 46.0425 17.875 47.0625 C18.16101083 48.65083199 18.47668964 50.2339462 18.8125 51.8125 C19.92953287 57.24714217 20.875 62.49799718 20.875 68.0625 C21.535 68.0625 22.195 68.0625 22.875 68.0625 C23.06835938 68.66578125 23.26171875 69.2690625 23.4609375 69.890625 C23.72132813 70.68984375 23.98171875 71.4890625 24.25 72.3125 C24.50523437 73.10140625 24.76046875 73.8903125 25.0234375 74.703125 C25.80965025 77.05509371 25.80965025 77.05509371 26.95703125 79.1015625 C27.98118418 81.28932749 28.10567258 82.78435799 28.1875 85.1875 C28.61367748 90.45947324 29.89501424 95.36219961 31.3125 100.4375 C31.53010986 101.2227002 31.74771973 102.00790039 31.97192383 102.81689453 C33.17591287 107.07990244 33.17591287 107.07990244 34.95336914 111.12353516 C36.43835533 114.24771008 35.87007106 116.87827262 34.875 120.0625 C32.59595701 123.48106448 31.70978225 123.91722358 27.875 125.0625 C24.86422729 125.31646729 24.86422729 125.31646729 21.47998047 125.32128906 C19.57307938 125.33074554 19.57307938 125.33074554 17.62765503 125.34039307 C16.24916443 125.33681382 14.87067511 125.332712 13.4921875 125.328125 C12.07162408 125.32947309 10.65106111 125.33141482 9.23049927 125.33392334 C6.25990385 125.33686593 3.28942902 125.33260361 0.31884766 125.32324219 C-3.48885718 125.31182723 -7.29628069 125.31842533 -11.1039753 125.33038712 C-14.03447595 125.33761139 -16.96490979 125.33531556 -19.89541245 125.33013153 C-21.29964099 125.32879768 -22.70387562 125.33043351 -24.10809708 125.33509064 C-26.06832005 125.34016717 -28.02856432 125.33105833 -29.98876953 125.32128906 C-31.1039798 125.31969788 -32.21919006 125.31810669 -33.36819458 125.31646729 C-36.125 125.0625 -36.125 125.0625 -39.125 123.0625 C-39.125 122.0725 -39.125 121.0825 -39.125 120.0625 C-39.785 120.0625 -40.445 120.0625 -41.125 120.0625 C-43.30067443 113.53547671 -41.49266936 107.39305323 -38.5625 101.375 C-38.10746094 100.52550781 -37.65242188 99.67601562 -37.18359375 98.80078125 C-35.87824428 95.42421306 -36.12110113 92.6689505 -36.125 89.0625 C-35.1015625 85.4921875 -35.1015625 85.4921875 -33.75 81.9375 C-33.30914062 80.75929688 -32.86828125 79.58109375 -32.4140625 78.3671875 C-31.65678652 76.42580725 -30.86325066 74.49672566 -29.98828125 72.60546875 C-28.44904308 68.07133278 -28.71234702 63.30873056 -28.56640625 58.55859375 C-28.1080254 54.92805514 -27.54694806 53.68677296 -25.125 51.0625 C-23.27170366 48.28255549 -22.43936395 46.27993449 -21.5 43.125 C-21.23960937 42.27035156 -20.97921875 41.41570312 -20.7109375 40.53515625 C-19.97127914 37.83731995 -19.97127914 37.83731995 -20.125 34.0625 C-19.68414062 33.62421875 -19.24328125 33.1859375 -18.7890625 32.734375 C-16.34615123 30.27999467 -15.63625288 27.56092849 -14.5 24.3125 C-14.07460938 23.12140625 -13.64921875 21.9303125 -13.2109375 20.703125 C-12.15015723 17.14684006 -11.64666495 13.72776328 -11.125 10.0625 C-9.5625 8.3125 -9.5625 8.3125 -8.125 7.0625 C-8.125 6.0725 -8.125 5.0825 -8.125 4.0625 C-7.465 4.0625 -6.805 4.0625 -6.125 4.0625 C-5.939375 3.1034375 -5.939375 3.1034375 -5.75 2.125 C-5.54375 1.444375 -5.3375 0.76375 -5.125 0.0625 C-3.125 -0.9375 -3.125 -0.9375 0 0 Z M-3.125 1.0625 C-8.47334184 12.82257464 -12.7221382 24.90057632 -16.875 37.125 C-17.22405396 38.14752869 -17.57310791 39.17005737 -17.93273926 40.22357178 C-23.89880984 57.75601996 -29.05565312 75.40584367 -33.61746216 93.35017395 C-35.00699299 98.76164866 -36.63630277 104.07919377 -38.36279297 109.39160156 C-39.35669067 112.87438209 -39.59263677 115.47728476 -39.125 119.0625 C-38.465 120.0525 -37.805 121.0425 -37.125 122.0625 C-34.23019223 122.52367096 -34.23019223 122.52367096 -30.77929688 122.45068359 C-30.12872818 122.45594055 -29.47815948 122.46119751 -28.80787659 122.46661377 C-26.65292499 122.47984027 -24.49870938 122.47106709 -22.34375 122.4609375 C-20.84924172 122.46295749 -19.35473439 122.46586831 -17.86022949 122.46963501 C-14.72622301 122.47406193 -11.59247282 122.46761577 -8.45849609 122.45361328 C-4.43638459 122.43652086 -0.41487358 122.44636013 3.60721588 122.46433067 C6.69383285 122.47515879 9.78030688 122.47172672 12.8669281 122.4639473 C14.35013398 122.46194258 15.83335273 122.46441407 17.31654358 122.47138596 C19.38781222 122.47898489 21.45810141 122.46742001 23.52929688 122.45068359 C24.70907104 122.44829681 25.88884521 122.44591003 27.10437012 122.44345093 C28.01867798 122.31773712 28.93298584 122.19202332 29.875 122.0625 C33.09688677 117.22966984 31.75758331 112.63632488 30.875 107.0625 C29.54454657 100.7865476 27.78060604 94.61573989 26.0625 88.4375 C25.57002456 86.6410963 25.078092 84.8445437 24.58666992 83.04785156 C23.29399541 78.33695817 21.98534397 73.63064979 20.67224121 68.92541504 C19.88025346 66.08136532 19.09406859 63.23577232 18.30957031 60.38964844 C10.48367429 30.05939067 10.48367429 30.05939067 -1.125 1.0625 C-1.785 1.0625 -2.445 1.0625 -3.125 1.0625 Z "
        fill="#26D3F3" transform="translate(412.125,428.9375)" />
    <path
        d="M0 0 C0.33 0 0.66 0 1 0 C1 121.11 1 242.22 1 367 C0.34 367 -0.32 367 -1 367 C-2.18883529 361.61369358 -1.89824349 356.652635 -1.56860352 351.20048523 C-1.07902511 341.65786543 -0.89239174 332.13569852 -0.88647461 322.58113098 C-0.88598555 321.89065022 -0.88549648 321.20016946 -0.8849926 320.48876505 C-0.8836271 316.04308543 -0.89026477 311.59743883 -0.89859343 307.15176833 C-0.9050688 303.07775865 -0.90554428 299.00374731 -0.9067688 294.92973328 C-0.90963216 287.89816076 -0.91603162 280.86659899 -0.92483521 273.83503151 C-0.93747509 263.66465816 -0.94348516 253.49428869 -0.94776857 243.32390877 C-0.95480686 226.81074399 -0.96558921 210.29758419 -0.97949219 193.78442383 C-0.98032 192.79961427 -0.98114781 191.81480471 -0.98200071 190.80015244 C-0.98790538 183.80426821 -0.99394307 176.8083841 -1 169.8125 C-1.00693893 161.78784188 -1.01380167 153.76318371 -1.02050781 145.73852539 C-1.02133594 144.74917312 -1.02216407 143.75982085 -1.02301729 142.74048821 C-1.03669015 126.25964132 -1.04645381 109.77879435 -1.05341816 93.29794329 C-1.05789927 83.14617451 -1.065939 72.99442029 -1.07856297 62.8426583 C-1.08697162 55.9032699 -1.09187549 48.96388486 -1.09398818 42.02449171 C-1.0953359 38.01987603 -1.09836229 34.01527918 -1.10574722 30.01066971 C-1.1124763 26.34815037 -1.11463649 22.6856583 -1.11311162 19.02313336 C-1.11351318 17.06572444 -1.11888818 15.1083185 -1.12441921 13.15091735 C-1.12304486 11.99368311 -1.12167051 10.83644887 -1.12025452 9.64414692 C-1.12163721 8.14320766 -1.12163721 8.14320766 -1.12304783 6.6119464 C-1.0117814 4.25008479 -0.67490308 2.25738844 0 0 Z "
        fill="#000106" transform="translate(581,319)" />
    <path
        d="M0 0 C0.33 0 0.66 0 1 0 C1.02335394 21.03582077 1.04099146 42.07163941 1.05181217 63.10747051 C1.05696982 72.87462993 1.06400242 82.6417813 1.07543945 92.40893555 C1.08540249 100.92136335 1.0918573 109.43378532 1.09408849 117.94621879 C1.09539284 122.45402327 1.0984613 126.96181107 1.10573006 131.46961021 C1.11251579 135.71222228 1.11461174 139.95481078 1.11310768 144.19742775 C1.11338286 145.75467176 1.11537284 147.31191656 1.11920547 148.86915588 C1.12418258 150.99565984 1.12298344 153.1220749 1.12025452 155.24858093 C1.12117631 156.43861567 1.1220981 157.62865042 1.12304783 158.85474682 C1.01166226 161.70189846 0.60558016 164.22592448 0 167 C-0.02814264 170.05950725 0.06375401 173.10227707 0.16015625 176.16015625 C-0.00105961 179.01878864 -0.52285264 180.5844296 -2 183 C-3.32 183 -4.64 183 -6 183 C-7.55234071 179.41021211 -8 176.89497319 -8 173 C-7.34 173 -6.68 173 -6 173 C-5.34 175.64 -4.68 178.28 -4 181 C-3.34 181 -2.68 181 -2 181 C-2.00276538 179.61898826 -2.00276538 179.61898826 -2.00558662 178.21007729 C-2.04970349 155.83590003 -2.08282623 133.46173024 -2.10362434 111.08751869 C-2.11394878 100.26763983 -2.12803135 89.44778995 -2.15087891 78.62792969 C-2.17077711 69.20031159 -2.18370793 59.77271448 -2.18817699 50.34507596 C-2.19079044 45.35053433 -2.19695727 40.35605274 -2.21146011 35.3615303 C-2.22498771 30.66502231 -2.22923247 25.96859937 -2.22621536 21.27207375 C-2.2267677 19.5442477 -2.23077376 17.81641895 -2.23841095 16.0886097 C-2.2482969 13.73764744 -2.24599238 11.38701035 -2.24050903 9.03604126 C-2.24327441 7.05879531 -2.24327441 7.05879531 -2.24609566 5.041605 C-2 2 -2 2 0 0 Z "
        fill="#586EEE" transform="translate(584,505)" />
    <path
        d="M0 0 C0.495 0.99 0.495 0.99 1 2 C35.32 2 69.64 2 105 2 C105 2.33 105 2.66 105 3 C103.83870071 3.01030746 102.67740143 3.02061493 101.48091125 3.03123474 C90.49195271 3.12934664 79.50304605 3.23211321 68.51417255 3.33933926 C62.86583062 3.39430708 57.21748334 3.4476826 51.5690918 3.49731445 C46.10958455 3.54534693 40.65013369 3.59769881 35.19069481 3.65294075 C33.11651212 3.67318969 31.04231408 3.69192937 28.96810341 3.70907402 C10.87895931 2.97698888 10.87895931 2.97698888 -6.5 6.4375 C-13.57345348 13.68778981 -15.71893666 24.12113492 -18.30853271 33.63052368 C-19.16079398 36.75651544 -20.03768621 39.87541916 -20.91357422 42.99485779 C-21.34623636 44.53604477 -21.77788934 46.07751544 -22.20849609 47.61927795 C-23.86237848 53.53820822 -25.56148541 59.44019584 -27.375 65.3125 C-27.58890381 66.03236084 -27.80280762 66.75222168 -28.02319336 67.49389648 C-29.91653613 73.53322375 -32.53491232 78.59417174 -38 82 C-40.28741455 82.36749268 -40.28741455 82.36749268 -42.82519531 82.35644531 C-43.7800885 82.35944641 -44.73498169 82.36244751 -45.71881104 82.36553955 C-46.74488464 82.35319275 -47.77095825 82.34084595 -48.828125 82.328125 C-49.89109802 82.32625183 -50.95407104 82.32437866 -52.04925537 82.32244873 C-54.29865655 82.3157277 -56.54804604 82.30181225 -58.79736328 82.28125 C-62.22309364 82.25024353 -65.64836227 82.240291 -69.07421875 82.234375 C-71.26302638 82.22519803 -73.45182937 82.21482007 -75.640625 82.203125 C-76.65860168 82.19887512 -77.67657837 82.19462524 -78.72540283 82.19024658 C-84.23647503 82.13552021 -89.54692717 81.8076828 -95 81 C-95 80.67 -95 80.34 -95 80 C-75.999065 78.83963756 -57.02663364 78.89456682 -38 79 C-37.505 77.515 -37.505 77.515 -37 76 C-36.01 76 -35.02 76 -34 76 C-33.86722656 75.43023438 -33.73445313 74.86046875 -33.59765625 74.2734375 C-32.99910642 71.99660088 -32.24079393 69.83696878 -31.4375 67.625 C-30.43720615 64.71462123 -30.00124595 62.93645678 -30.0625 59.8125 C-29.97698601 55.96437054 -28.11798573 54.17697859 -26 51 C-25.32767499 48.76164967 -24.8711052 46.54187843 -24.4375 44.24609375 C-24.02967774 42.15236338 -23.49576105 40.1640276 -22.875 38.125 C-21.86518504 35.05938278 -21.86518504 35.05938278 -22 32 C-21.34 32 -20.68 32 -20 32 C-20.061875 30.948125 -20.12375 29.89625 -20.1875 28.8125 C-19.98686974 24.73301804 -19.18607857 23.32283942 -17 20 C-16.64984951 18.33678518 -16.31802943 16.66965451 -16 15 C-14.6875 11.25 -14.6875 11.25 -13 8 C-10.8125 7.0625 -10.8125 7.0625 -9 7 C-9 6.34 -9 5.68 -9 5 C-6.7272325 3.50475822 -4.4320057 2.21600285 -2 1 C-1.01 1.495 -1.01 1.495 0 2 C0 1.34 0 0.68 0 0 Z "
        fill="#20D8F7" transform="translate(351,625)" />
    <path
        d="M0 0 C2 1.8125 2 1.8125 4 4 C4 4.99 4 5.98 4 7 C4.28601083 8.58833199 4.60168964 10.1714462 4.9375 11.75 C6.05453287 17.18464217 7 22.43549718 7 28 C7.66 28 8.32 28 9 28 C9.19335938 28.60328125 9.38671875 29.2065625 9.5859375 29.828125 C9.84632813 30.62734375 10.10671875 31.4265625 10.375 32.25 C10.63023437 33.03890625 10.88546875 33.8278125 11.1484375 34.640625 C11.93465025 36.99259371 11.93465025 36.99259371 13.08203125 39.0390625 C14.10618418 41.22682749 14.23067258 42.72185799 14.3125 45.125 C14.73867748 50.39697324 16.02001424 55.29969961 17.4375 60.375 C17.65510986 61.1602002 17.87271973 61.94540039 18.09692383 62.75439453 C19.30091287 67.01740244 19.30091287 67.01740244 21.07836914 71.06103516 C22.56335533 74.18521008 21.99507106 76.81577262 21 80 C18.72061429 83.41907856 17.83709286 83.8580013 14 85 C10.96903992 85.24050903 10.96903992 85.24050903 7.55737305 85.22705078 C6.27642258 85.22689972 4.99547211 85.22674866 3.67570496 85.22659302 C2.28770795 85.2163813 0.89971256 85.20594933 -0.48828125 85.1953125 C-1.91602887 85.1915795 -3.34377905 85.18873388 -4.77153015 85.18673706 C-8.51818999 85.17912318 -12.26469326 85.15949419 -16.0112915 85.1373291 C-19.83888634 85.11682214 -23.66650662 85.107725 -27.49414062 85.09765625 C-34.9961649 85.07624599 -42.49806046 85.04213741 -50 85 C-49.67 84.01 -49.34 83.02 -49 82 C-27.55 81.67 -6.1 81.34 16 81 C20.43285895 72.1342821 13.31451002 56.06429252 10.8125 47.0625 C10.31058635 45.22323723 9.80961346 43.3837175 9.30957031 41.54394531 C7.23865467 33.95160052 5.13066152 26.37196244 2.90234375 18.82421875 C2.61576904 17.85154053 2.32919434 16.8788623 2.03393555 15.87670898 C1.53026155 14.18906385 1.01569207 12.50461119 0.48754883 10.82446289 C-0.70921212 6.86110609 -1.2902923 3.99675909 0 0 Z "
        fill="#2AC2F2" transform="translate(426,469)" />
    <path
        d="M0 0 C0.33 0 0.66 0 1 0 C1.00586624 0.75310959 1.01173248 1.50621918 1.01777649 2.28215027 C1.07574392 9.38870303 1.14784357 16.49494024 1.23571491 23.60117626 C1.28039218 27.25435862 1.31965377 30.90743015 1.34643555 34.56079102 C1.37249545 38.08826179 1.41291592 41.61530546 1.46318626 45.14251137 C1.48792576 47.13927679 1.49789298 49.13620755 1.50764465 51.13310242 C1.52743881 52.35399063 1.54723297 53.57487885 1.56762695 54.83276367 C1.57873001 55.90531906 1.58983307 56.97787445 1.60127258 58.08293152 C2.07142936 61.52257338 2.82630999 63.29220709 5 66 C9.29405811 68.77158488 12.67976148 69.38390576 17.73974609 69.43237305 C18.38435791 69.4425647 19.02896973 69.45275635 19.69311523 69.46325684 C21.80331299 69.49321847 23.91305561 69.50262627 26.0234375 69.51171875 C27.49461353 69.52857805 28.96577527 69.54672997 30.43692017 69.56611633 C34.29359469 69.61348712 38.15021124 69.64337963 42.00708008 69.66955566 C45.9488469 69.69942677 49.89041423 69.74593447 53.83203125 69.79101562 C61.55458823 69.87690151 69.27715994 69.94431173 77 70 C77 70.66 77 71.32 77 72 C63.32987928 73.12941478 49.70823049 73.11649348 36 73.0625 C33.76041767 73.05747197 31.52083425 73.05291138 29.28125 73.04882812 C23.85414221 73.03793269 18.42707642 73.02129913 13 73 C13 72.34 13 71.68 13 71 C11.515 71.495 11.515 71.495 10 72 C5.52798682 69.56955805 1.22221323 66.68203153 -1 62 C-1.64768681 57.09223481 -1.51498319 52.25294117 -1.375 47.3125 C-1.35847278 45.96812425 -1.34412991 44.62371977 -1.33203125 43.27929688 C-1.18413104 33.55239312 -1.18413104 33.55239312 0 30 C-0.66 30 -1.32 30 -2 30 C-1.88201748 25.88806264 -1.75778941 21.77636712 -1.62768555 17.66479492 C-1.58428566 16.26510801 -1.54261436 14.86536641 -1.50268555 13.46557617 C-1.44510555 11.45738505 -1.38086 9.44938851 -1.31640625 7.44140625 C-1.27974854 6.23170166 -1.24309082 5.02199707 -1.20532227 3.77563477 C-1 1 -1 1 0 0 Z "
        fill="#6E5EF4" transform="translate(675,547)" />
    <path
        d="M0 0 C0.66 0 1.32 0 2 0 C1.5694611 4.04706565 0.8662237 7.59874462 -0.5 11.4375 C-1.56591335 14.44986382 -2.24165179 17.1956859 -2.5625 20.375 C-3 24 -3 24 -5 27 C-5.66 27 -6.32 27 -7 27 C-7.2165625 28.7634375 -7.2165625 28.7634375 -7.4375 30.5625 C-7.76464338 33.22170834 -8.13713161 35.85326336 -8.5625 38.5 C-9.05524598 42.44196783 -9.20185893 46.0301078 -9 50 C-8.34 50.66 -7.68 51.32 -7 52 C-4.12632616 51.98316465 -4.12632616 51.98316465 -0.9375 51.5625 C1.03796476 51.33935 3.01712807 51.14309385 5 51 C5.495 51.495 5.495 51.495 6 52 C12.65136945 52.9306977 19.23260719 53.19958243 25.94140625 53.31640625 C27.45383156 53.3475779 27.45383156 53.3475779 28.99681091 53.37937927 C32.18531149 53.44422851 35.37388717 53.50345608 38.5625 53.5625 C40.73763766 53.60574684 42.912768 53.64936299 45.08789062 53.69335938 C50.39185006 53.79984262 55.69588249 53.90172315 61 54 C61 54.33 61 54.66 61 55 C52.36795 55.06961416 43.73599715 55.12286902 35.10372734 55.15543652 C31.09509211 55.17106997 27.08664943 55.19226548 23.078125 55.22631836 C19.20721681 55.25899512 15.33649343 55.27687047 11.46545792 55.28463173 C9.99111142 55.29016037 8.51677466 55.30095651 7.04250717 55.31719017 C4.97196614 55.33907587 2.90218169 55.34196241 0.83154297 55.34057617 C-0.93384323 55.35056892 -0.93384323 55.35056892 -2.7348938 55.36076355 C-6.4499187 54.95028821 -8.84881071 53.99222113 -12 52 C-15.63463536 41.09609392 -10.56868739 30.31976282 -7.0625 20 C-6.49151106 18.28038813 -5.92183798 16.56033875 -5.35351562 14.83984375 C-1.27043893 2.54087787 -1.27043893 2.54087787 0 0 Z "
        fill="#15DDF6" transform="translate(249,653)" />
    <path
        d="M0 0 C36.34658357 -0.14558838 72.66199123 0.2001047 109 1 C108.67 1.99 108.34 2.98 108 4 C108.7425 4.061875 109.485 4.12375 110.25 4.1875 C113.96754528 5.28586565 114.99866166 6.71208701 117 10 C117.75 13.8125 117.75 13.8125 118 17 C116.34019925 14.86597046 114.90633335 12.82543943 113.625 10.4375 C111.61292347 7.4193852 110.31570068 6.51548022 107 5 C103.75158196 4.55181378 100.52804951 4.56250161 97.25268555 4.56762695 C96.27659836 4.5574353 95.30051117 4.54724365 94.29484558 4.53674316 C91.07541167 4.50660049 87.85627526 4.4973451 84.63671875 4.48828125 C82.40183014 4.47143555 80.16695101 4.45328545 77.93208313 4.43388367 C72.05491091 4.38636599 66.17777714 4.35656789 60.30047607 4.33044434 C54.30115161 4.30064788 48.30195962 4.25411436 42.30273438 4.20898438 C30.53522552 4.12293103 18.76768941 4.05559463 7 4 C7 3.67 7 3.34 7 3 C4.36 2.67 1.72 2.34 -1 2 C-0.67 1.34 -0.34 0.68 0 0 Z "
        fill="#20A6DF" transform="translate(354,625)" />
    <path
        d="M0 0 C1.09436119 0.038974 1.09436119 0.038974 2.21083069 0.07873535 C5.30685525 0.18913697 8.40227721 0.31351399 11.49780273 0.43701172 C13.76921066 0.52557963 16.04080443 0.60670299 18.3125 0.6875 C19.34563576 0.73275818 19.34563576 0.73275818 20.39964294 0.77893066 C24.79974788 0.93423677 28.8805933 0.52039372 33.22265625 -0.15625 C34.92171839 -0.23942965 36.62312339 -0.28669752 38.32421875 -0.2890625 C39.2265625 -0.29035156 40.12890625 -0.29164063 41.05859375 -0.29296875 C42.43917969 -0.28716797 42.43917969 -0.28716797 43.84765625 -0.28125 C45.23984375 -0.28705078 45.23984375 -0.28705078 46.66015625 -0.29296875 C47.55992187 -0.29167969 48.4596875 -0.29039062 49.38671875 -0.2890625 C50.1957666 -0.28793457 51.00481445 -0.28680664 51.83837891 -0.28564453 C54.22265625 -0.15625 54.22265625 -0.15625 56.41163635 0.34474182 C59.84537373 0.95429391 63.09479713 0.96321824 66.58325195 0.95727539 C67.66699348 0.95749443 67.66699348 0.95749443 68.77262878 0.9577179 C71.14792947 0.95702422 73.5231506 0.94925745 75.8984375 0.94140625 C77.55038917 0.93954013 79.2023414 0.93811714 80.85429382 0.93711853 C85.19273417 0.93330861 89.5311408 0.92349139 93.86956787 0.91241455 C98.3004104 0.9021676 102.7312584 0.89761388 107.16210938 0.89257812 C115.84897377 0.88186771 124.53581081 0.86480966 133.22265625 0.84375 C133.22265625 1.50375 133.22265625 2.16375 133.22265625 2.84375 C115.53278431 2.86715038 97.8429164 2.88476418 80.1530323 2.89556217 C71.9386048 2.90070999 63.72418694 2.90772373 55.50976562 2.91918945 C48.34686237 2.92918266 41.18396609 2.93561444 34.02105606 2.93783849 C30.23129465 2.93913774 26.44155323 2.9421736 22.65179825 2.94948006 C19.07810173 2.95631355 15.50443325 2.95835217 11.93073082 2.95685768 C10.0075024 2.95726003 8.08427696 2.96261678 6.16105652 2.96817017 C-0.54907601 2.9602625 -7.11741782 2.68239771 -13.77734375 1.84375 C-13.77734375 1.51375 -13.77734375 1.18375 -13.77734375 0.84375 C-9.12052236 -0.10054864 -4.72254683 -0.20627256 0 0 Z "
        fill="#6C6BF9" transform="translate(572.77734375,704.15625)" />
    <path
        d="M0 0 C0.33 0 0.66 0 1 0 C1.68530088 5.92521686 2.09693283 11.10398603 1 17 C1.30830925 19.00401011 1.63729412 21.00511766 2 23 C1.67 23.66 1.34 24.32 1 25 C1.08708308 26.62368283 1.24129007 28.24400871 1.42919922 29.85913086 C2.05152454 36.00613887 2.14451588 42.07943985 2.1328125 48.25390625 C2.13376923 49.39423813 2.13472595 50.53457001 2.13571167 51.7094574 C2.13638826 54.11042333 2.13457056 56.51139116 2.13037109 58.91235352 C2.12505047 62.52820094 2.13031598 66.14392218 2.13671875 69.75976562 C2.14001287 82.54128858 1.919339 95.24966852 1 108 C0.67 108 0.34 108 0 108 C-0.94053504 96.56053306 -1.1480756 85.20346311 -1.1328125 73.73046875 C-1.13348826 71.91498298 -1.13446054 70.0994973 -1.13571167 68.28401184 C-1.13717397 64.5080986 -1.13508058 60.73220926 -1.13037109 56.95629883 C-1.12465409 52.14074666 -1.12797461 47.32525 -1.13394356 42.50969982 C-1.13757156 38.77172941 -1.13640067 35.03377199 -1.13381577 31.29580116 C-1.13315375 29.52056179 -1.13394924 27.74532119 -1.13629532 25.97008324 C-1.14530414 17.24672475 -1.11082921 8.66876996 0 0 Z "
        fill="#5F71F4" transform="translate(583,414)" />
    <path
        d="M0 0 C0.81597656 -0.04576172 1.63195312 -0.09152344 2.47265625 -0.13867188 C6.77880142 -0.21815931 9.78673759 0.14416814 13.28125 2.77734375 C20.07457252 9.72310535 22.57962962 20.18642243 25.26953125 29.2734375 C25.59539719 30.35581696 25.92126312 31.43819641 26.25700378 32.55337524 C26.93710122 34.81943925 27.61335605 37.08665984 28.28588867 39.35498047 C29.31689758 42.8273106 30.36366056 46.29461963 31.41210938 49.76171875 C32.07385642 51.97367741 32.73469625 54.18590772 33.39453125 56.3984375 C33.70695267 57.43181244 34.01937408 58.46518738 34.34126282 59.52987671 C34.62543564 60.49503204 34.90960846 61.46018738 35.20239258 62.45458984 C35.45378494 63.29855316 35.70517731 64.14251648 35.96418762 65.01205444 C36.52696881 67.55957887 36.59636723 69.8369446 36.5 72.4375 C34.5 69.4375 34.5 69.4375 34.5 66.4375 C33.51 65.9425 33.51 65.9425 32.5 65.4375 C30.68342456 61.00959736 29.89030273 56.44422399 29.0078125 51.765625 C28.53990493 49.31297724 28.53990493 49.31297724 27.375 46.625 C26.36519108 44.10047771 26.34603668 42.13185805 26.5 39.4375 C25.84 39.4375 25.18 39.4375 24.5 39.4375 C24.5 38.7775 24.5 38.1175 24.5 37.4375 C23.84 37.4375 23.18 37.4375 22.5 37.4375 C22.70109375 36.70917969 22.9021875 35.98085938 23.109375 35.23046875 C23.55923868 32.01394343 23.08262852 30.67116034 21.75 27.75 C19.83738905 23.35759003 18.43818067 18.99852241 17.2109375 14.37109375 C16.67850146 12.24127029 16.67850146 12.24127029 14.5 11.4375 C14.1596875 10.014375 14.1596875 10.014375 13.8125 8.5625 C12.75071793 5.19327703 12.75071793 5.19327703 9.5 3.5625 C5.01799588 1.96785011 0.19187799 1.77703454 -4.5 2.4375 C-5.16 3.0975 -5.82 3.7575 -6.5 4.4375 C-8.25 4.125 -8.25 4.125 -10.5 3.4375 C-12.49788438 3.09171232 -14.49759451 2.75606451 -16.5 2.4375 C-16.5 2.1075 -16.5 1.7775 -16.5 1.4375 C-10.99115462 0.54157219 -5.57861082 0.12778808 0 0 Z "
        fill="#32BFF0" transform="translate(450.5,307.5625)" />
    <path
        d="M0 0 C7.25899226 -0.10174864 14.51779934 -0.17161187 21.77734375 -0.21972656 C24.24486158 -0.23979295 26.71233215 -0.26705244 29.1796875 -0.30175781 C32.73449393 -0.35049306 36.28866944 -0.37301939 39.84375 -0.390625 C41.48796936 -0.42159271 41.48796936 -0.42159271 43.16540527 -0.45318604 C49.57868346 -0.45504827 54.77442199 0.0193045 60 4 C63.24102879 7.79923481 63.35769106 10.93470982 63.29296875 15.83203125 C63.2784668 17.77045898 63.2784668 17.77045898 63.26367188 19.74804688 C63.23860985 21.1028707 63.21321506 22.45768841 63.1875 23.8125 C63.17244013 25.18683445 63.15875401 26.56118468 63.14648438 27.93554688 C63.11116628 31.29076632 63.06183851 34.64518166 63 38 C62.67 38 62.34 38 62 38 C61.97494385 37.21761963 61.9498877 36.43523926 61.92407227 35.62915039 C61.80850212 32.10675051 61.68560051 28.5846444 61.5625 25.0625 C61.52318359 23.83080078 61.48386719 22.59910156 61.44335938 21.33007812 C61.40146484 20.16025391 61.35957031 18.99042969 61.31640625 17.78515625 C61.26141968 16.15912476 61.26141968 16.15912476 61.20532227 14.50024414 C61.27635735 12.060737 61.27635735 12.060737 60 11 C59.95936168 9.33382885 59.957279 7.66611905 60 6 C51.09458531 2.1323199 40.62490036 0.87254334 31.0390625 2.50390625 C25.45834495 3.33358338 19.81564264 3.14435178 14.1875 3.125 C13.04345703 3.12886719 11.89941406 3.13273438 10.72070312 3.13671875 C9.08584961 3.13478516 9.08584961 3.13478516 7.41796875 3.1328125 C6.42563232 3.13168457 5.4332959 3.13055664 4.41088867 3.12939453 C2 3 2 3 0 2 C0 1.34 0 0.68 0 0 Z "
        fill="#6E68F4" transform="translate(752,617)" />
    <path
        d="M0 0 C0.33 0 0.66 0 1 0 C1 12.87 1 25.74 1 39 C0.67 39 0.34 39 0 39 C-0.33 63.42 -0.66 87.84 -1 113 C-1.33 113 -1.66 113 -2 113 C-2.04667978 98.56195469 -2.0818362 84.12392104 -2.10362434 69.68581581 C-2.11394563 62.98225002 -2.12802217 56.27873105 -2.15087891 49.57519531 C-2.17254588 43.11077754 -2.18455562 36.64640851 -2.18975449 30.18195724 C-2.19346132 27.71069954 -2.20069939 25.23944461 -2.21146011 22.76820755 C-2.22589332 19.31758016 -2.22798137 15.86715643 -2.22705078 12.41650391 C-2.23424133 11.38576248 -2.24143188 10.35502106 -2.24884033 9.29304504 C-2.246091 8.35632462 -2.24334167 7.41960419 -2.24050903 6.45449829 C-2.24235262 5.63778971 -2.24419621 4.82108112 -2.24609566 3.97962379 C-2 2 -2 2 0 0 Z "
        fill="#5366DE" transform="translate(584,505)" />
    <path
        d="M0 0 C9.30124275 -0.06954996 18.6023958 -0.12283657 27.90384197 -0.15543652 C32.22301617 -0.17108389 36.54201228 -0.1923051 40.86108398 -0.22631836 C45.03024353 -0.2589451 49.19923192 -0.27686 53.36850929 -0.28463173 C54.95811469 -0.2901693 56.54771085 -0.30098291 58.13724327 -0.31719017 C60.36603316 -0.339009 62.59411832 -0.34196514 64.82299805 -0.34057617 C66.09096725 -0.34723801 67.35893646 -0.35389984 68.66532898 -0.36076355 C72.29605191 0.03202857 74.11992555 0.79542259 77 3 C80.56714509 8.05345555 81.56965902 11.86764109 82 18 C81.01 18.66 80.02 19.32 79 20 C78.87625 18.845 78.7525 17.69 78.625 16.5 C78.09721115 12.21649625 77.11601963 8.16647328 76 4 C74.02 3.67 72.04 3.34 70 3 C70 2.34 70 1.68 70 1 C69.01 1.33 68.02 1.66 67 2 C65.16120369 2.09332022 63.31918958 2.12792465 61.47802734 2.12939453 C60.34609955 2.13254669 59.21417175 2.13569885 58.04794312 2.13894653 C56.82298126 2.1369223 55.59801941 2.13489807 54.3359375 2.1328125 C53.0741568 2.13376923 51.8123761 2.13472595 50.51235962 2.13571167 C47.83746943 2.136393 45.16267019 2.13504313 42.48779297 2.13037109 C39.08201077 2.12470861 35.676308 2.1279319 32.27052879 2.13394356 C29.00066234 2.13846091 25.730805 2.1352806 22.4609375 2.1328125 C20.6417128 2.13584885 20.6417128 2.13584885 18.78573608 2.13894653 C12.43851047 2.12156144 6.2921734 1.84561839 0 1 C0 0.67 0 0.34 0 0 Z "
        fill="#7165F6" transform="translate(594,308)" />
    <path
        d="M0 0 C0.99 0.495 0.99 0.495 2 1 C2.484375 3.1796875 2.484375 3.1796875 2.75 5.875 C2.84796875 6.75929688 2.9459375 7.64359375 3.046875 8.5546875 C3 11 3 11 1 14 C-1.67019653 14.36076355 -1.67019653 14.36076355 -5.10205078 14.34057617 C-7.02381638 14.34023628 -7.02381638 14.34023628 -8.98440552 14.33988953 C-10.3880447 14.32456841 -11.79168034 14.3089204 -13.1953125 14.29296875 C-14.62734535 14.28737438 -16.05938393 14.28310353 -17.49142456 14.28010559 C-21.26287656 14.26864413 -25.03398265 14.23916624 -28.80529785 14.20599365 C-32.65270304 14.1753205 -36.50016406 14.16160618 -40.34765625 14.14648438 C-47.8985953 14.11429738 -55.44924921 14.06308584 -63 14 C-61 12 -61 12 -58.51098633 11.78881836 C-56.93740356 11.81407593 -56.93740356 11.81407593 -55.33203125 11.83984375 C-54.1423877 11.85144531 -52.95274414 11.86304688 -51.72705078 11.875 C-49.78934814 11.9059375 -49.78934814 11.9059375 -47.8125 11.9375 C-45.09768669 11.96486757 -42.382882 11.98217905 -39.66796875 11.99609375 C-38.9653894 12.00003143 -38.26281006 12.00396912 -37.53894043 12.00802612 C-29.5618716 12.03430358 -21.59620351 11.78271823 -13.625 11.5 C-12.93652985 11.47590057 -12.24805969 11.45180115 -11.53872681 11.42697144 C-7.69221799 11.29139412 -3.84601149 11.14899035 0 11 C0 7.37 0 3.74 0 0 Z "
        fill="#000104" transform="translate(441,537)" />
    <path
        d="M0 0 C3.21263449 0.755914 6.10667729 0.33218935 9.3828125 0.03125 C16.03988631 -0.57771309 16.03988631 -0.57771309 18.2578125 0.53125 C20.1442037 0.616165 22.03359765 0.638443 23.921875 0.62890625 C25.60410156 0.62407227 25.60410156 0.62407227 27.3203125 0.61914062 C29.08375 0.60657227 29.08375 0.60657227 30.8828125 0.59375 C32.06617188 0.58923828 33.24953125 0.58472656 34.46875 0.58007812 C37.39848757 0.56826467 40.32812522 0.55179258 43.2578125 0.53125 C43.2578125 1.19125 43.2578125 1.85125 43.2578125 2.53125 C23.7878125 2.53125 4.3178125 2.53125 -15.7421875 2.53125 C-15.7421875 2.20125 -15.7421875 1.87125 -15.7421875 1.53125 C-14.98292969 1.47066406 -14.22367188 1.41007813 -13.44140625 1.34765625 C-12.44753906 1.26386719 -11.45367188 1.18007813 -10.4296875 1.09375 C-9.44355469 1.01253906 -8.45742188 0.93132813 -7.44140625 0.84765625 C-0.06377747 -0.01715986 -0.06377747 -0.01715986 0 0 Z "
        fill="#6D62F5" transform="translate(721.7421875,704.46875)" />
    <path
        d="M0 0 C10.41229998 1.69251319 20.95586793 1.52838034 31.48046875 1.68359375 C33.6373842 1.72185245 35.79428566 1.76090851 37.95117188 1.80078125 C43.18997835 1.8959122 48.42887179 1.98119882 53.66796875 2.05859375 C53.66796875 2.38859375 53.66796875 2.71859375 53.66796875 3.05859375 C45.00135449 3.10493984 36.33478291 3.14047449 27.66807175 3.16221809 C23.64374157 3.17265407 19.61949621 3.18680985 15.59521484 3.20947266 C11.71135881 3.23120771 7.82758434 3.24316378 3.94367218 3.24834824 C2.462107 3.2520428 0.98054626 3.25925737 -0.50098419 3.27005386 C-2.57660052 3.28457775 -4.65188007 3.28657134 -6.72753906 3.28564453 C-7.90890442 3.29008575 -9.09026978 3.29452698 -10.30743408 3.29910278 C-13.2219169 3.06734979 -14.87586137 2.58410145 -17.33203125 1.05859375 C-11.33147713 -0.94159096 -6.13886919 -1.20909886 0 0 Z "
        fill="#13B7D9" transform="translate(256.33203125,704.94140625)" />
    <path
        d="M0 0 C0.67625931 0.02092209 1.35251862 0.04184418 2.04927063 0.06340027 C4.22580362 0.13256113 6.40191264 0.21050526 8.578125 0.2890625 C10.06957056 0.3387468 11.56102572 0.38814386 13.05249023 0.43725586 C23.31929341 0.78430807 33.57749883 1.2364543 43.828125 1.9140625 C43.828125 2.2440625 43.828125 2.5740625 43.828125 2.9140625 C37.31771692 2.9395774 30.80732191 2.95699818 24.296875 2.96899414 C22.08560708 2.9739992 19.87434242 2.98080526 17.66308594 2.98950195 C14.47069488 3.00173609 11.27834786 3.00732924 8.0859375 3.01171875 C7.10948273 3.01688004 6.13302795 3.02204132 5.12698364 3.02735901 C-1.03224463 3.0278538 -7.05652083 2.64896535 -13.171875 1.9140625 C-13.171875 1.5840625 -13.171875 1.2540625 -13.171875 0.9140625 C-8.68778488 0.02599643 -4.56451626 -0.15048509 0 0 Z "
        fill="#5D79F7" transform="translate(572.171875,704.0859375)" />
    <path
        d="M0 0 C20.79 0 41.58 0 63 0 C63 0.66 63 1.32 63 2 C60.47958689 2.19667089 57.95911728 2.38254317 55.4375 2.5625 C54.73302734 2.61857422 54.02855469 2.67464844 53.30273438 2.73242188 C52.60341797 2.78076172 51.90410156 2.82910156 51.18359375 2.87890625 C50.54993896 2.9260376 49.91628418 2.97316895 49.26342773 3.02172852 C47 3 47 3 43.828125 2.52734375 C39.38861489 1.91577858 35.0415933 1.77275631 30.56640625 1.68359375 C29.68846909 1.66281265 28.81053192 1.64203156 27.9059906 1.62062073 C25.12490015 1.55568055 22.34372215 1.49650073 19.5625 1.4375 C17.66730896 1.39426186 15.7721265 1.35064595 13.87695312 1.30664062 C9.25138987 1.20005678 4.62573929 1.09863592 0 1 C0 0.67 0 0.34 0 0 Z "
        fill="#574ECC" transform="translate(689,617)" />
    <path
        d="M0 0 C22.11 0 44.22 0 67 0 C67 0.33 67 0.66 67 1 C63.73025053 1.36469424 60.45911086 1.71493339 57.1875 2.0625 C56.25873047 2.16626953 55.32996094 2.27003906 54.37304688 2.37695312 C53.48037109 2.47041016 52.58769531 2.56386719 51.66796875 2.66015625 C50.84578857 2.74918213 50.0236084 2.83820801 49.17651367 2.92993164 C47 3 47 3 44 2 C42.54293083 1.88650152 41.08155041 1.82398525 39.62036133 1.79467773 C38.73967484 1.77473251 37.85898834 1.75478729 36.95161438 1.73423767 C36.00465195 1.71752518 35.05768951 1.70081268 34.08203125 1.68359375 C33.10965012 1.66281265 32.13726898 1.64203156 31.13542175 1.62062073 C28.02785335 1.55521252 24.92020015 1.49628071 21.8125 1.4375 C19.70637142 1.39430649 17.60025144 1.35069193 15.49414062 1.30664062 C10.32951409 1.19954001 5.16480222 1.09824781 0 1 C0 0.67 0 0.34 0 0 Z "
        fill="#2BEAFC" transform="translate(374,308)" />
    <path
        d="M0 0 C2.09032131 2.09032131 2.48896119 3.03059076 3.32861328 5.77539062 C3.56871124 6.54959351 3.8088092 7.32379639 4.05618286 8.12145996 C4.30834564 8.95794067 4.56050842 9.79442139 4.8203125 10.65625 C5.08383514 11.51432251 5.34735779 12.37239502 5.61886597 13.25646973 C6.17483771 15.07127305 6.72774725 16.88701689 7.27783203 18.70361328 C8.12221346 21.490802 8.97629649 24.27487234 9.83203125 27.05859375 C10.37036521 28.82013732 10.9081445 30.58185053 11.4453125 32.34375 C11.70152374 33.18023071 11.95773499 34.01671143 12.22171021 34.87854004 C14 40.7673105 14 40.7673105 14 43 C13.34 43 12.68 43 12 43 C12 42.01 12 41.02 12 40 C11.34 40 10.68 40 10 40 C9.67 36.7 9.34 33.4 9 30 C8.34 30 7.68 30 7 30 C6.61908203 28.26363281 6.61908203 28.26363281 6.23046875 26.4921875 C5.88322046 24.9530329 5.53554133 23.41397547 5.1875 21.875 C5.02185547 21.11445313 4.85621094 20.35390625 4.68554688 19.5703125 C3.63676155 14.97940316 2.15588209 11.21376955 0 7 C-0.1875 3.125 -0.1875 3.125 0 0 Z "
        fill="#35ABEA" transform="translate(493,400)" />
    <path
        d="M0 0 C0.81597656 -0.04576172 1.63195312 -0.09152344 2.47265625 -0.13867188 C8.13043942 -0.24310928 11.01166004 0.92070316 15.11352539 4.82910156 C17.96598685 8.13813768 19.5 11.07148364 19.5 15.4375 C18.51 15.1075 17.52 14.7775 16.5 14.4375 C16.5 13.7775 16.5 13.1175 16.5 12.4375 C15.84 12.1075 15.18 11.7775 14.5 11.4375 C14.1596875 10.014375 14.1596875 10.014375 13.8125 8.5625 C12.75071793 5.19327703 12.75071793 5.19327703 9.5 3.5625 C5.01799588 1.96785011 0.19187799 1.77703454 -4.5 2.4375 C-5.16 3.0975 -5.82 3.7575 -6.5 4.4375 C-8.25 4.125 -8.25 4.125 -10.5 3.4375 C-12.49788438 3.09171232 -14.49759451 2.75606451 -16.5 2.4375 C-16.5 2.1075 -16.5 1.7775 -16.5 1.4375 C-10.99115462 0.54157219 -5.57861082 0.12778808 0 0 Z "
        fill="#2ECEF8" transform="translate(450.5,307.5625)" />
    <path
        d="M0 0 C0.33 0 0.66 0 1 0 C2.30734434 11.23107539 2.11285861 22.46207013 2.0625 33.75 C2.05747437 35.71874886 2.05291335 37.68749896 2.04882812 39.65625 C2.03790809 44.43753118 2.02070218 49.21875158 2 54 C1.67 54 1.34 54 1 54 C0.97494385 52.91992676 0.9498877 51.83985352 0.92407227 50.72705078 C0.83004428 46.72757688 0.72981246 42.72827853 0.62768555 38.72900391 C0.5843192 36.99662374 0.54264537 35.26420037 0.50268555 33.53173828 C0.44502406 31.04446373 0.38131802 28.55740707 0.31640625 26.0703125 C0.29969376 25.29317902 0.28298126 24.51604553 0.26576233 23.71536255 C0.23526571 19.72725784 0.23526571 19.72725784 -1 16 C-1.3305133 10.59513542 -1.11733894 5.30735995 0 0 Z "
        fill="#5551C8" transform="translate(813,643)" />
    <path
        d="M0 0 C1.0209375 0.12761719 2.041875 0.25523437 3.09375 0.38671875 C10.72957243 1.12931459 18.29929138 1.16625518 25.96875 1.13671875 C27.20044922 1.13260986 28.43214844 1.12850098 29.70117188 1.12426758 C32.66540837 1.11157678 35.62956127 1.09506621 38.59375 1.07421875 C38.26375 1.73421875 37.93375 2.39421875 37.59375 3.07421875 C23.40375 3.07421875 9.21375 3.07421875 -5.40625 3.07421875 C-2.40625 0.07421875 -2.40625 0.07421875 0 0 Z "
        fill="#746AF9" transform="translate(770.40625,703.92578125)" />
    <path
        d="M0 0 C0.66 0 1.32 0 2 0 C2.99 4.29 3.98 8.58 5 13 C5.66 13 6.32 13 7 13 C6.67 13.99 6.34 14.98 6 16 C6.33 16.33 6.66 16.66 7 17 C7.07179964 18.51928038 7.08392007 20.04167482 7.0625 21.5625 C7.05347656 22.38878906 7.04445313 23.21507812 7.03515625 24.06640625 C7.02355469 24.70449219 7.01195312 25.34257813 7 26 C4.80257646 23.80257646 4.48679064 22.76272326 3.7109375 19.82421875 C3.49179687 18.99599609 3.27265625 18.16777344 3.046875 17.31445312 C2.82515625 16.44755859 2.6034375 15.58066406 2.375 14.6875 C2.14554687 13.83220703 1.91609375 12.97691406 1.6796875 12.09570312 C0.61352858 7.99924131 -0.3346996 4.27182383 0 0 Z "
        fill="#38B1F2" transform="translate(472,643)" />
    <path
        d="M0 0 C0.33 0 0.66 0 1 0 C1.16968666 2.66650463 1.33581821 5.33315526 1.5 8 C1.54769531 8.74378906 1.59539063 9.48757813 1.64453125 10.25390625 C2.55253984 25.17119024 2.55253984 25.17119024 0 29 C-1.32 29 -2.64 29 -4 29 C-5.55234071 25.41021211 -6 22.89497319 -6 19 C-5.34 19 -4.68 19 -4 19 C-3.34 21.64 -2.68 24.28 -2 27 C-1.34 27 -0.68 27 0 27 C0 18.09 0 9.18 0 0 Z "
        fill="#6381F9" transform="translate(582,659)" />
    <path
        d="M0 0 C1.4921875 1.12109375 1.4921875 1.12109375 3 3 C3.2578125 5.84765625 3.2578125 5.84765625 3.125 9.0625 C2.82197133 13.18657617 2.82197133 13.18657617 4 17 C3.01 17.33 2.02 17.66 1 18 C-0.83198669 14.87186463 -1.24801923 12.60914709 -1.1875 9 C-1.18105469 8.154375 -1.17460937 7.30875 -1.16796875 6.4375 C-1.01154076 4.16747523 -0.63089814 2.18038396 0 0 Z "
        fill="#0EDBF6" transform="translate(237,688)" />
    <path
        d="M0 0 C0.66 0 1.32 0 2 0 C1.74309819 2.06428157 1.46886954 4.12641094 1.1875 6.1875 C1.03667969 7.33605469 0.88585937 8.48460937 0.73046875 9.66796875 C-0.0094045 13.04289862 -0.93815937 15.24222324 -3 18 C-3.66 18 -4.32 18 -5 18 C-4.42934122 11.58008874 -2.32655091 5.98410537 0 0 Z "
        fill="#27DDF6" transform="translate(350,348)" />
    <path
        d="M0 0 C0.99 0 1.98 0 3 0 C3.83679277 2.62394306 4.66956942 5.24904384 5.5 7.875 C5.73847656 8.62136719 5.97695313 9.36773437 6.22265625 10.13671875 C8 15.7734375 8 15.7734375 8 18 C7.01 18 6.02 18 5 18 C3.90499574 14.93398806 3.0149138 12.10652712 2.5625 8.875 C1.96155311 5.8034937 1.05004456 4.31744168 -1 2 C-0.67 1.34 -0.34 0.68 0 0 Z "
        fill="#37A5EA" transform="translate(506,448)" />
    <path
        d="M0 0 C4.56583654 1.76407321 6.98428304 3.60822392 9.25390625 8.015625 C10.49731246 11.32269492 10.75329137 14.484402 11 18 C10.01 18.66 9.02 19.32 8 20 C7.87625 18.845 7.7525 17.69 7.625 16.5 C7.09721115 12.21649625 6.11601963 8.16647328 5 4 C2.03 3.505 2.03 3.505 -1 3 C-0.67 2.01 -0.34 1.02 0 0 Z "
        fill="#6A57E8" transform="translate(665,308)" />
    <path
        d="M0 0 C2.79786144 2.79786144 3.4933049 6.11804187 4.625 9.8125 C4.85445313 10.52470703 5.08390625 11.23691406 5.3203125 11.97070312 C6.49564842 15.75206661 7.29925001 18.99162489 7 23 C4.81926243 20.81926243 4.39529397 19.5826082 3.5 16.6875 C2.70431287 14.15503384 1.90825863 11.79720329 0.8125 9.375 C-0.27355356 6.20038189 -0.13049332 3.32757961 0 0 Z "
        fill="#37B5EF" transform="translate(493,400)" />
    <path
        d="M0 0 C0.79921875 0.11085938 1.5984375 0.22171875 2.421875 0.3359375 C3.32679688 0.47902344 3.32679688 0.47902344 4.25 0.625 C4.25 0.955 4.25 1.285 4.25 1.625 C3.64671875 1.74617188 3.0434375 1.86734375 2.421875 1.9921875 C1.62265625 2.15976562 0.8234375 2.32734375 0 2.5 C-0.78890625 2.66242188 -1.5778125 2.82484375 -2.390625 2.9921875 C-4.75884696 3.62737286 -6.6610398 4.34230514 -8.75 5.625 C-10.03254644 8.16270003 -10.03254644 8.16270003 -10.75 10.625 C-11.41 9.305 -12.07 7.985 -12.75 6.625 C-8.98355159 1.51339144 -6.48979052 -0.95438096 0 0 Z M-12.75 10.625 C-12.42 10.625 -12.09 10.625 -11.75 10.625 C-11.75 12.605 -11.75 14.585 -11.75 16.625 C-12.08 16.625 -12.41 16.625 -12.75 16.625 C-12.75 14.645 -12.75 12.665 -12.75 10.625 Z "
        fill="#5F64E8" transform="translate(596.75,308.375)" />
    <path
        d="M0 0 C-0.33 0.66 -0.66 1.32 -1 2 C0.11375 2.0928125 0.11375 2.0928125 1.25 2.1875 C4.96754528 3.28586565 5.99866166 4.71208701 8 8 C8.75 11.8125 8.75 11.8125 9 15 C7.34019925 12.86597046 5.90633335 10.82543943 4.625 8.4375 C1.80168736 4.20253104 -2.35241862 2.72624451 -7 1 C-7 0.67 -7 0.34 -7 0 C-2.25 -1.125 -2.25 -1.125 0 0 Z "
        fill="#32BBF3" transform="translate(463,627)" />
    <path
        d="M0 0 C0.66 0 1.32 0 2 0 C2.67413211 1.91405367 3.3390332 3.83136026 4 5.75 C4.37125 6.81734375 4.7425 7.8846875 5.125 8.984375 C6 12 6 12 6 16 C5.01 16.33 4.02 16.66 3 17 C2.86722656 16.19175781 2.73445313 15.38351562 2.59765625 14.55078125 C2.42105469 13.48214844 2.24445313 12.41351563 2.0625 11.3125 C1.88847656 10.25675781 1.71445312 9.20101563 1.53515625 8.11328125 C1.06832879 5.39750396 0.55577384 2.69875765 0 0 Z "
        fill="#32B3EE" transform="translate(487,383)" />
    <path
        d="M0 0 C0.66 0 1.32 0 2 0 C1.5535141 5.06017356 -0.595189 7.43305514 -4 11 C-4.99 11.33 -5.98 11.66 -7 12 C-6.34 10.02 -5.68 8.04 -5 6 C-4.01 6 -3.02 6 -2 6 C-1.855625 5.38125 -1.71125 4.7625 -1.5625 4.125 C-1 2 -1 2 0 0 Z "
        fill="#1CD8F6" transform="translate(319,695)" />
    <path
        d="M0 0 C0.99 0 1.98 0 3 0 C3.37125 0.7425 3.7425 1.485 4.125 2.25 C6.85883787 6.25962888 10.56039676 7.33398537 15 9 C14.67 9.99 14.34 10.98 14 12 C14 11.34 14 10.68 14 10 C13.01 10.33 12.02 10.66 11 11 C6.21398619 8.39890554 3.22840168 5.27288457 0 1 C0 0.67 0 0.34 0 0 Z "
        fill="#695CED" transform="translate(674,608)" />
    <path
        d="M0 0 C0.99 1.32 1.98 2.64 3 4 C2.01 6.31 1.02 8.62 0 11 C-0.99 11 -1.98 11 -3 11 C-2.01 7.37 -1.02 3.74 0 0 Z "
        fill="#24D2EA" transform="translate(353,337)" />
    <path
        d="M0 0 C0.33 0 0.66 0 1 0 C1 6.93 1 13.86 1 21 C0.34 21 -0.32 21 -1 21 C-1.33 19.35 -1.66 17.7 -2 16 C-1.34 16 -0.68 16 0 16 C0 10.72 0 5.44 0 0 Z "
        fill="#020414" transform="translate(581,665)" />
    <path
        d="M0 0 C0.66 0 1.32 0 2 0 C1.73911731 3.52191627 0.75685408 4.21275268 -2 6.625 C-2.99 7.40875 -3.98 8.1925 -5 9 C-5.33 9.66 -5.66 10.32 -6 11 C-6.66 11 -7.32 11 -8 11 C-6.4722133 7.56247993 -4.49818944 4.81046312 -2 2 C-1.34 2 -0.68 2 0 2 C0 1.34 0 0.68 0 0 Z "
        fill="#000408" transform="translate(368,306)" />
    <path
        d="M0 0 C4.3590077 3.48720616 4.94552183 6.72760915 6 12 C5.01 12.495 5.01 12.495 4 13 C3.67 10.69 3.34 8.38 3 6 C2.34 6 1.68 6 1 6 C1 5.34 1 4.68 1 4 C0.34 4 -0.32 4 -1 4 C-0.67 2.68 -0.34 1.36 0 0 Z "
        fill="#2EB2EA" transform="translate(474,341)" />
    <path
        d="M0 0 C0.66 0 1.32 0 2 0 C2.66 2.64 3.32 5.28 4 8 C4.66 8 5.32 8 6 8 C6 8.66 6 9.32 6 10 C4.68 10 3.36 10 2 10 C0.44765929 6.41021211 0 3.89497319 0 0 Z "
        fill="#5479EE" transform="translate(576,678)" />
    <path
        d="M0 0 C0.96661363 3.12180401 0.98988909 5.52083795 0.5625 8.75 C0.40974609 9.94882812 0.40974609 9.94882812 0.25390625 11.171875 C0.12822266 12.07679688 0.12822266 12.07679688 0 13 C-0.99 13 -1.98 13 -3 13 C-3 11.35 -3 9.7 -3 8 C-2.34 8 -1.68 8 -1 8 C-1.020625 6.865625 -1.04125 5.73125 -1.0625 4.5625 C-1 1 -1 1 0 0 Z "
        fill="#1BC7EF" transform="translate(332,649)" />
    <path
        d="M0 0 C2.10633718 1.70828921 2.93801608 2.52148416 3.29296875 5.26171875 C3.25816406 6.06222656 3.22335938 6.86273437 3.1875 7.6875 C3.16042969 8.49574219 3.13335937 9.30398438 3.10546875 10.13671875 C3.07066406 10.75160156 3.03585938 11.36648438 3 12 C2.34 12 1.68 12 1 12 C0.855625 11.05125 0.71125 10.1025 0.5625 9.125 C0.17064601 6.1065506 0.17064601 6.1065506 -1 4 C-0.5625 1.875 -0.5625 1.875 0 0 Z "
        fill="#11CBEF" transform="translate(237,688)" />
    <path
        d="M0 0 C1.64599285 2.96278714 2.65262237 5.61306808 3 9 C2.01 10.485 2.01 10.485 1 12 C-0.80619523 7.53763531 -1.11658501 4.68965706 0 0 Z "
        fill="#4979E1" transform="translate(568,647)" />
    <path
        d="M0 0 C5.66153846 1.47692308 5.66153846 1.47692308 7.375 4.125 C7.684375 5.053125 7.684375 5.053125 8 6 C7.01 6.33 6.02 6.66 5 7 C3.29115995 5.37660195 1.62553283 3.70680947 0 2 C0 1.34 0 0.68 0 0 Z "
        fill="#03030C" transform="translate(808,617)" />
    <path
        d="M0 0 C2.00293347 3.00440021 2.49271626 4.70993945 3.125 8.1875 C3.37636719 9.53908203 3.37636719 9.53908203 3.6328125 10.91796875 C3.75398438 11.60503906 3.87515625 12.29210937 4 13 C3.01 13 2.02 13 1 13 C0.67 8.71 0.34 4.42 0 0 Z "
        fill="#041623" transform="translate(434,506)" />
    <path
        d="M0 0 C3.73386136 1.24462045 4.64805848 2.91307675 7 6 C7.98230498 7.0173873 8.97469597 8.02596117 10 9 C5.74257863 8.52695318 3.74294902 6.1136178 1 3 C0.67 2.01 0.34 1.02 0 0 Z "
        fill="#000207" transform="translate(485,698)" />
    <path
        d="M0 0 C1.88391785 3.26545761 2.49287967 6.28111761 3 10 C2.01 10 1.02 10 0 10 C-0.74926071 6.33694766 -1.2380014 3.57644848 0 0 Z "
        fill="#2AB9EC" transform="translate(430,482)" />
    <path
        d="M0 0 C0.66 1.32 1.32 2.64 2 4 C1.34 4 0.68 4 0 4 C-0.66 6.64 -1.32 9.28 -2 12 C-2.33 12 -2.66 12 -3 12 C-3.08131463 10.56344146 -3.13933559 9.1255517 -3.1875 7.6875 C-3.22230469 6.88699219 -3.25710938 6.08648437 -3.29296875 5.26171875 C-2.93801608 2.52148416 -2.10633718 1.70828921 0 0 Z "
        fill="#24C7F4" transform="translate(395,460)" />
    <path
        d="M0 0 C0.99 0.33 1.98 0.66 3 1 C1.75023244 4.65316671 1.32901247 5.78065836 -2 8 C-2.33 7.34 -2.66 6.68 -3 6 C-2.67 5.34 -2.34 4.68 -2 4 C-1.34 4 -0.68 4 0 4 C0 2.68 0 1.36 0 0 Z "
        fill="#6563E7" transform="translate(811,698)" />
    <path
        d="M0 0 C2.21399303 3.79541663 3.00980198 7.75629421 4 12 C3.34 12 2.68 12 2 12 C-0.60018816 8.09971775 -0.15085514 4.52565431 0 0 Z "
        fill="#4985E5" transform="translate(554,601)" />
    <path
        d="M0 0 C0.99 0 1.98 0 3 0 C3.625 2.8125 3.625 2.8125 4 6 C3.01 7.485 3.01 7.485 2 9 C0.50178941 5.62902617 0 3.79557881 0 0 Z "
        fill="#051123" transform="translate(421,466)" />
    <path
        d="M0 0 C0.33 0 0.66 0 1 0 C1.25 7.625 1.25 7.625 -1 11 C-2.26264601 6.70700357 -1.62950412 4.12168689 0 0 Z "
        fill="#02111F" transform="translate(248,647)" />
    <path
        d="M0 0 C0.66 0.33 1.32 0.66 2 1 C1.01 2.485 1.01 2.485 0 4 C-0.66 4 -1.32 4 -2 4 C-2.33 5.32 -2.66 6.64 -3 8 C-3.66 7.67 -4.32 7.34 -5 7 C-1.125 1.125 -1.125 1.125 0 0 Z "
        fill="#01030A" transform="translate(343,632)" />
    <path
        d="M0 0 C1.26026798 2.52053595 0.91874445 3.8542098 0.5625 6.625 C0.40974609 7.85089844 0.40974609 7.85089844 0.25390625 9.1015625 C0.17011719 9.72804688 0.08632813 10.35453125 0 11 C-2 8 -2 8 -1.6875 4.375 C-1 1 -1 1 0 0 Z "
        fill="#041323" transform="translate(329,403)" />
    <path
        d="M0 0 C0.66 0 1.32 0 2 0 C1.39009109 3.55780196 0.4216319 6.6828589 -1 10 C-1.33 10 -1.66 10 -2 10 C-1.125 2.25 -1.125 2.25 0 0 Z "
        fill="#2BEBFA" transform="translate(350,348)" />
</svg>