<svg width="18" height="18" viewBox="0 0 18 18" fill="none" xmlns="http://www.w3.org/2000/svg">
<path fill-rule="evenodd" clip-rule="evenodd" d="M6.49115 3.42347C7.47445 1.42153 9.53396 0.0419922 11.917 0.0419922C15.2537 0.0419922 17.9587 2.74694 17.9587 6.08366C17.9587 6.97707 17.7643 7.82679 17.4151 8.59144C17.3239 8.791 17.3062 8.97949 17.3467 9.13096L17.4528 9.52766C17.7926 10.7975 16.6308 11.9593 15.361 11.6195L14.9643 11.5134C14.8516 11.4832 14.7183 11.4853 14.5753 11.5259C14.1502 15.1482 11.0701 17.9587 7.33366 17.9587C6.20869 17.9587 5.14156 17.7035 4.18857 17.2472C3.99991 17.1569 3.81416 17.1386 3.66136 17.1795L2.63966 17.4528C1.3698 17.7926 0.208053 16.6309 0.547823 15.361L0.821193 14.3393C0.862077 14.1865 0.843753 14.0007 0.753432 13.8121C0.297188 12.8591 0.0419922 11.792 0.0419922 10.667C0.0419922 6.92486 2.86093 3.84114 6.49115 3.42347ZM7.94615 3.40069C11.5501 3.70042 14.4098 6.62125 14.6137 10.2517C14.8325 10.2308 15.0598 10.2449 15.2874 10.3058L15.6841 10.412C16.0248 10.5031 16.3365 10.1914 16.2453 9.85075L16.1392 9.45405C16.0082 8.9646 16.0936 8.476 16.2781 8.07208C16.5544 7.46717 16.7087 6.79428 16.7087 6.08366C16.7087 3.43729 14.5634 1.29199 11.917 1.29199C10.2654 1.29199 8.808 2.12769 7.94615 3.40069ZM7.33366 4.62533C3.99694 4.62533 1.29199 7.33027 1.29199 10.667C1.29199 11.6012 1.50359 12.4842 1.88089 13.2723C2.07705 13.6821 2.15932 14.1743 2.02872 14.6624L1.75535 15.6841C1.66419 16.0248 1.97588 16.3365 2.31657 16.2453L3.33827 15.9719C3.82638 15.8413 4.31858 15.9236 4.72834 16.1198C5.51643 16.4971 6.39946 16.7087 7.33366 16.7087C10.6704 16.7087 13.3753 14.0037 13.3753 10.667C13.3753 7.33027 10.6704 4.62533 7.33366 4.62533Z" fill="#717579"/>
<path d="M5.25033 10.667C5.25033 11.1272 4.87723 11.5003 4.41699 11.5003C3.95675 11.5003 3.58366 11.1272 3.58366 10.667C3.58366 10.2068 3.95675 9.83366 4.41699 9.83366C4.87723 9.83366 5.25033 10.2068 5.25033 10.667Z" fill="#717579"/>
<path d="M8.16699 10.667C8.16699 11.1272 7.7939 11.5003 7.33366 11.5003C6.87342 11.5003 6.50033 11.1272 6.50033 10.667C6.50033 10.2068 6.87342 9.83366 7.33366 9.83366C7.7939 9.83366 8.16699 10.2068 8.16699 10.667Z" fill="#717579"/>
<path d="M11.0837 10.667C11.0837 11.1272 10.7106 11.5003 10.2503 11.5003C9.79009 11.5003 9.41699 11.1272 9.41699 10.667C9.41699 10.2068 9.79009 9.83366 10.2503 9.83366C10.7106 9.83366 11.0837 10.2068 11.0837 10.667Z" fill="#717579"/>
</svg>
