<svg width="16" height="10" viewBox="0 0 16 10" fill="none" xmlns="http://www.w3.org/2000/svg">
<path fill-rule="evenodd" clip-rule="evenodd" d="M0.708008 0.833008C0.708008 0.48783 0.98783 0.208008 1.33301 0.208008H14.6663C15.0115 0.208008 15.2913 0.48783 15.2913 0.833008C15.2913 1.17819 15.0115 1.45801 14.6663 1.45801H1.33301C0.98783 1.45801 0.708008 1.17819 0.708008 0.833008ZM0.708008 4.99967C0.708008 4.6545 0.98783 4.37467 1.33301 4.37467H10.4997C10.8449 4.37467 11.1247 4.6545 11.1247 4.99967C11.1247 5.34485 10.8449 5.62467 10.4997 5.62467H1.33301C0.98783 5.62467 0.708008 5.34485 0.708008 4.99967ZM0.708008 9.16634C0.708008 8.82116 0.98783 8.54134 1.33301 8.54134H5.49967C5.84485 8.54134 6.12467 8.82116 6.12467 9.16634C6.12467 9.51152 5.84485 9.79134 5.49967 9.79134H1.33301C0.98783 9.79134 0.708008 9.51152 0.708008 9.16634Z" fill="#717579"/>
</svg>
