<svg width="20" height="20" viewBox="0 0 20 20" fill="currentcolor" xmlns="http://www.w3.org/2000/svg">
<path fill-rule="evenodd" clip-rule="evenodd" d="M8.95251 0.0419924H9.04814C10.9718 0.0419816 12.4793 0.0419731 13.6556 0.200114C14.8595 0.361981 15.8095 0.699764 16.5552 1.44544C17.3009 2.19111 17.6387 3.14113 17.8005 4.34508C17.9587 5.52132 17.9587 7.02885 17.9587 8.95252V9.04814C17.9587 10.9718 17.9587 12.4793 17.8005 13.6556C17.6387 14.8595 17.3009 15.8095 16.5552 16.5552C15.8095 17.3009 14.8595 17.6387 13.6556 17.8005C12.4793 17.9587 10.9718 17.9587 9.04814 17.9587H8.95252C7.02885 17.9587 5.52132 17.9587 4.34508 17.8005C3.14113 17.6387 2.19111 17.3009 1.44544 16.5552C0.699764 15.8095 0.361981 14.8595 0.200114 13.6556C0.0419731 12.4793 0.0419816 10.9718 0.0419924 9.04814V8.95251C0.0419816 7.02885 0.0419731 5.52132 0.200114 4.34508C0.361981 3.14113 0.699764 2.19111 1.44544 1.44544C2.19111 0.699764 3.14113 0.361981 4.34508 0.200114C5.52132 0.0419731 7.02885 0.0419816 8.95251 0.0419924ZM4.51164 1.43897C3.4463 1.5822 2.80404 1.85461 2.32932 2.32932C1.85461 2.80404 1.5822 3.4463 1.43897 4.51164C1.29332 5.59495 1.29199 7.01847 1.29199 9.00033C1.29199 10.9822 1.29332 12.4057 1.43897 13.489C1.5822 14.5543 1.85461 15.1966 2.32932 15.6713C2.80404 16.146 3.4463 16.4185 4.51164 16.5617C5.59495 16.7073 7.01847 16.7087 9.00033 16.7087C10.9822 16.7087 12.4057 16.7073 13.489 16.5617C14.5543 16.4185 15.1966 16.146 15.6713 15.6713C16.146 15.1966 16.4185 14.5543 16.5617 13.489C16.7073 12.4057 16.7087 10.9822 16.7087 9.00033C16.7087 7.01847 16.7073 5.59495 16.5617 4.51164C16.4185 3.4463 16.146 2.80404 15.6713 2.32932C15.1966 1.85461 14.5543 1.5822 13.489 1.43897C12.4057 1.29332 10.9822 1.29199 9.00033 1.29199C7.01847 1.29199 5.59495 1.29332 4.51164 1.43897ZM7.76469 4.38107C8.01465 4.61913 8.0243 5.01474 7.78624 5.26469L5.40529 7.76469C5.28733 7.88856 5.12375 7.95866 4.95271 7.95866C4.78166 7.95866 4.61808 7.88856 4.50012 7.76469L3.54774 6.76469C3.30969 6.51474 3.31933 6.11913 3.56929 5.88107C3.81925 5.64302 4.21486 5.65267 4.45291 5.90262L4.95271 6.42741L6.88107 4.40262C7.11913 4.15267 7.51474 4.14302 7.76469 4.38107ZM9.20866 6.50033C9.20866 6.15515 9.48848 5.87533 9.83366 5.87533H14.0003C14.3455 5.87533 14.6253 6.15515 14.6253 6.50033C14.6253 6.8455 14.3455 7.12533 14.0003 7.12533H9.83366C9.48848 7.12533 9.20866 6.8455 9.20866 6.50033ZM7.76469 10.2144C8.01465 10.4525 8.0243 10.8481 7.78624 11.098L5.40529 13.598C5.28733 13.7219 5.12375 13.792 4.95271 13.792C4.78166 13.792 4.61808 13.7219 4.50012 13.598L3.54774 12.598C3.30969 12.3481 3.31933 11.9525 3.56929 11.7144C3.81925 11.4764 4.21486 11.486 4.45291 11.736L4.95271 12.2607L6.88107 10.236C7.11913 9.986 7.51474 9.97635 7.76469 10.2144ZM9.20866 12.3337C9.20866 11.9885 9.48848 11.7087 9.83366 11.7087H14.0003C14.3455 11.7087 14.6253 11.9885 14.6253 12.3337C14.6253 12.6788 14.3455 12.9587 14.0003 12.9587H9.83366C9.48848 12.9587 9.20866 12.6788 9.20866 12.3337Z" fill="var(--secondary-700)"/>
</svg>
